{
.appVersion = "3098";
.formatVersion = 3;
axes = (
{
name = Year;
tag = YEAR;
}
);
classes = (
{
automatic = 1;
code = "A Aacute Abreve Acircumflex Adieresis Adotbelow Agrave Amacron Aogonek Aring Aringacute Atilde AE AEacute B Bhook C Cacute Ccaron Ccedilla Ccircumflex Cdotaccent D Eth Dcaron Dcircumflexbelow Dcroat Dhook E Eacute Ebreve Ecaron Ecircumflex Edieresis Edotaccent Edotbelow Egrave Emacron Eogonek Etilde F G Gbreve Gcaron Gcircumflex Gcommaaccent Gdotaccent H Hbar Hcircumflex I IJ Iacute Ibreve Icircumflex Idieresis Idotaccent Idotbelow Igrave Imacron Iogonek Itilde J Jacute Jcircumflex K Kcommaaccent Khook L Lacute Lcaron Lcircumflexbelow Lcommaaccent Ldot Lslash M N Nacute Ncaron Ncircumflexbelow Ncommaaccent Ndotaccent Nhookleft Ntilde Eng O Oacute Obreve Ocircumflex Odieresis Odotbelow Ograve Ohungarumlaut Omacron Oogonek Oslash Oslashacute Otilde OE P Thorn Q R Racute Rcaron Rcommaaccent S Sacute Scaron Scedilla Scircumflex Scommaaccent Sdotbelow Germandbls Schwa T Tbar Tcaron Tcedilla Tcircumflexbelow Tcommaaccent U Uacute Ubreve Ucircumflex Udieresis Udotbelow Ugrave Uhungarumlaut Umacron Uogonek Uring Utilde V W Wacute Wcircumflex Wdieresis Wgrave X Y Yacute Ycircumflex Ydieresis Ygrave Yhook Ymacron Ytilde Z Zacute Zcaron Zdotaccent Delta Omega";
name = Uppercase;
}
);
customParameters = (
{
name = "Axis Mappings";
value = {
YEAR = {
1979 = 1979;
1990 = 1994;
2000 = 1992;
2010 = 2012;
2019 = 2019;
2030 = 2028;
2040 = 2040;
2050 = 2050;
};
};
},
{
name = "Use Typo Metrics";
value = 1;
},
{
name = "Variable Font Origin";
value = "F6D8640C-383C-48A8-B63C-DDE9F10207CE";
},
{
name = fsType;
value = (
);
}
);
date = "2020-03-01 19:22:25 +0000";
familyName = "Climate Crisis";
featurePrefixes = (
{
automatic = 1;
code = "languagesystem DFLT dflt;

languagesystem latn dflt;
languagesystem latn AZE;
languagesystem latn CRT;
languagesystem latn KAZ;
languagesystem latn TAT;
languagesystem latn TRK;
languagesystem latn ROM;
languagesystem latn MOL;

glyphs = (
{
color = 6;
glyphname = A;
kernLeft = A;
kernRight = A;
lastChange = "2021-09-06 15:12:35 +0000";
layers = (
{
anchors = (
{
name = bottom;
pos = (525,0);
},
{
name = ogonek;
pos = (945,0);
},
{
name = top;
pos = (523,750);
}
);
layerId = "F6D8640C-383C-48A8-B63C-DDE9F10207CE";
shapes = (
{
closed = 1;
nodes = (
(212,750,l),
(142,500,o),
(72,250,o),
(2,0,c),
(429,0,l),
(446,98,l),
(450,98,o),
(454,98,o),
(458,98,c),
(568,98,l),
(573,98,o),
(577,98,o),
(582,98,c),
(599,0,l),
(1045,0,l),
(974,250,o),
(904,500,o),
(833,750,c)
);
},
{
closed = 1;
nodes = (
(458,170,o),
(512,502,o),
(513,502,cs),
(513,502,o),
(514,502,o),
(514,502,cs),
(515,502,o),
(570,170,o),
(570,169,cs),
(570,169,o),
(570,168,o),
(569,168,cs),
(459,168,ls),
(458,168,o),
(458,168,o),
(458,169,cs)
);
}
);
width = 1047;
},
{
anchors = (
{
name = bottom;
pos = (517,0);
},
{
name = ogonek;
pos = (802,115);
},
{
name = top;
pos = (517,750);
}
);
layerId = "96858A69-C8A6-410B-90BB-94EA0DA45935";
name = "2050";
shapes = (
{
closed = 1;
nodes = (
(325,645,l),
(356,463,o),
(84,238,o),
(84,115,c),
(249,115,l),
(249,116,l),
(258,146,o),
(275,168,o),
(335,168,cs),
(624,168,ls),
(658,168,o),
(692,138,o),
(695,116,c),
(695,115,l),
(942,115,l),
(974,242,o),
(702,469,o),
(752,645,c)
);
},
{
closed = 1;
nodes = (
(258,331,o),
(289,645,o),
(487,645,cs),
(502,645,o),
(521,645,o),
(531,645,cs),
(670,645,o),
(745,422,o),
(745,309,cs),
(745,215,o),
(682,168,o),
(611,168,cs),
(335,168,ls),
(288,168,o),
(258,222,o),
(258,280,cs)
);
}
);
width = 1032;
}
);
unicode = 65;
},
{
color = 6;
glyphname = Aogonek;
kernLeft = A;
kernRight = A;
lastChange = "2021-09-06 15:12:35 +0000";
layers = (
{
layerId = "96858A69-C8A6-410B-90BB-94EA0DA45935";
shapes = (
{
closed = 1;
nodes = (
(736,-105,o),
(782,-77,o),
(810,-34,c),
(810,-33,l),
(805,-34,o),
(800,-34,o),
(795,-34,cs),
(762,-34,o),
(740,-15,o),
(740,15,cs),
(740,42,o),
(759,78,o),
(805,115,c),
(942,115,l),
(974,242,o),
(702,469,o),
(752,645,c),
(325,645,l),
(356,463,o),
(84,238,o),
(84,115,c),
(249,115,l),
(249,116,l),
(258,146,o),
(275,168,o),
(335,168,cs),
(624,168,ls),
(658,168,o),
(692,138,o),
(695,116,c),
(695,115,l),
(906,95,o),
(596,57,o),
(596,-45,cs),
(596,-77,o),
(625,-105,o),
(681,-105,cs)
);
},
{
closed = 1;
nodes = (
(287,168,o),
(258,222,o),
(258,280,cs),
(258,331,o),
(289,645,o),
(487,645,cs),
(526,645,o),
(403,645,o),
(531,645,cs),
(670,645,o),
(745,422,o),
(745,309,cs),
(745,215,o),
(682,168,o),
(611,168,cs),
(335,168,ls)
);
}
);
width = 1032;
},
{
background = {
anchors = (
{
name = bottom;
pos = (482,0);
},
{
name = ogonek;
pos = (902,0);
},
{
name = top;
pos = (480,750);
}
);
shapes = (
{
pos = (2,0);
ref = A;
}
);
};
layerId = "F6D8640C-383C-48A8-B63C-DDE9F10207CE";
name = Regular;
shapes = (
{
closed = 1;
nodes = (
(837,-308,o),
(879,-300,o),
(934,-285,c),
(934,-89,l),
(904,-101,o),
(882,-105,o),
(854,-105,cs),
(820,-105,o),
(800,-92,o),
(800,-70,cs),
(800,-43,o),
(829,0,o),
(953,0,cs),
(1045,0,l),
(974,250,o),
(904,500,o),
(833,750,c),
(212,750,l),
(142,500,o),
(72,250,o),
(2,0,c),
(429,0,l),
(446,98,l),
(450,98,o),
(454,98,o),
(458,98,c),
(568,98,l),
(573,98,o),
(577,98,o),
(582,98,c),
(599,0,l),
(554,-37,o),
(531,-85,o),
(531,-140,cs),
(531,-247,o),
(612,-308,o),
(775,-308,cs)
);
},
{
closed = 1;
nodes = (
(458,168,o),
(458,168,o),
(458,169,cs),
(458,170,o),
(512,502,o),
(513,502,cs),
(513,502,o),
(514,502,o),
(514,502,cs),
(515,502,o),
(570,170,o),
(570,169,cs),
(570,169,o),
(570,168,o),
(569,168,cs),
(459,168,ls)
);
}
);
width = 1047;
}
);
metricLeft = A;
metricRight = A;
unicode = 260;
},
{
color = 6;
glyphname = AE;
kernLeft = AE;
kernRight = E;
lastChange = "2021-09-06 15:12:35 +0000";
layers = (
{
anchors = (
{
name = bottom;
pos = (756,0);
},
{
name = top;
pos = (756,750);
}
);
background = {
shapes = (
{
pos = (548,0);
ref = E;
}
);
};
layerId = "F6D8640C-383C-48A8-B63C-DDE9F10207CE";
shapes = (
{
closed = 1;
nodes = (
(441,0,l),
(452,37,o),
(474,112,o),
(474,112,c),
(588,112,l),
(588,112,o),
(588,37,o),
(588,0,c),
(1415,0,l),
(1415,242,l),
(994,242,ls),
(993,242,o),
(993,242,o),
(993,243,cs),
(993,299,ls),
(993,300,o),
(993,300,o),
(994,300,cs),
(1394,300,l),
(1394,441,l),
(994,441,ls),
(993,441,o),
(993,441,o),
(993,442,cs),
(993,497,ls),
(993,498,o),
(993,498,o),
(994,498,cs),
(1409,498,l),
(1409,750,l),
(286,750,l),
(190,500,o),
(94,250,o),
(-2,0,c)
);
},
{
closed = 1;
nodes = (
(495,182,o),
(495,182,o),
(495,183,cs),
(526,289,o),
(556,395,o),
(587,502,c),
(588,502,l),
(588,396,o),
(588,289,o),
(588,183,cs),
(588,182,o),
(588,182,o),
(587,182,cs),
(496,182,ls)
);
}
);
width = 1427;
},
{
anchors = (
{
name = bottom;
pos = (764,0);
},
{
name = top;
pos = (764,750);
}
);
layerId = "96858A69-C8A6-410B-90BB-94EA0DA45935";
shapes = (
{
closed = 1;
nodes = (
(359,115,l),
(372,152,o),
(389,168,o),
(445,168,cs),
(652,168,ls),
(693,168,o),
(705,146,o),
(711,115,c),
(1378,115,l),
(1378,120,l),
(1096,120,ls),
(906,120,o),
(882,244,o),
(882,294,cs),
(882,296,ls),
(882,360,o),
(934,382,o),
(982,382,c),
(1197,382,l),
(1197,382,l),
(982,382,l),
(967,382,o),
(882,383,o),
(882,482,cs),
(882,485,ls),
(882,605,o),
(951,645,o),
(1059,645,cs),
(1069,645,l),
(1069,645,l),
(495,645,l),
(510,521,o),
(194,238,o),
(194,115,c)
);
},
{
closed = 1;
nodes = (
(405,168,o),
(368,213,o),
(368,286,cs),
(368,383,o),
(483,645,o),
(642,645,c),
(686,645,l),
(768,645,o),
(823,551,o),
(823,456,cs),
(823,326,o),
(729,168,o),
(639,168,cs),
(445,168,ls)
);
}
);
width = 1438;
}
);
unicode = 198;
},
{
color = 6;
glyphname = B;
kernLeft = H;
kernRight = B;
lastChange = "2021-09-06 15:12:35 +0000";
layers = (
{
anchors = (
{
name = bottom;
pos = (520,0);
},
{
name = top;
pos = (520,750);
}
);
background = {
shapes = (
{
ref = E;
}
);
};
layerId = "F6D8640C-383C-48A8-B63C-DDE9F10207CE";
shapes = (
{
closed = 1;
nodes = (
(20,681,o),
(20,611,o),
(20,542,cs),
(20,361,o),
(20,181,o),
(20,0,c),
(807,0,ls),
(959,0,o),
(1037,99,o),
(1037,197,cs),
(1037,296,o),
(959,395,o),
(798,395,cs),
(797,395,o),
(797,396,o),
(798,396,cs),
(938,396,o),
(1007,486,o),
(1007,575,cs),
(1007,663,o),
(940,750,o),
(807,750,cs),
(20,750,l)
);
},
{
closed = 1;
nodes = (
(414,356,o),
(415,357,o),
(415,357,c),
(566,357,ls),
(595,357,o),
(611,336,o),
(611,313,cs),
(611,289,o),
(593,267,o),
(557,267,cs),
(415,267,l),
(414,267,o),
(414,267,o),
(414,268,c),
(414,281,o),
(414,296,o),
(414,312,cs),
(414,326,o),
(414,341,o),
(414,356,c)
);
},
{
closed = 1;
nodes = (
(414,497,o),
(415,497,c),
(561,497,ls),
(590,497,o),
(606,476,o),
(606,453,cs),
(606,429,o),
(588,407,o),
(552,407,cs),
(415,407,l),
(414,407,o),
(414,407,o),
(414,408,c),
(414,421,o),
(414,437,o),
(414,452,cs),
(414,468,o),
(414,483,o),
(414,496,c),
(414,496,o)
);
}
);
width = 1046;
},
{
anchors = (
{
name = bottom;
pos = (560,0);
},
{
name = top;
pos = (560,750);
}
);
layerId = "96858A69-C8A6-410B-90BB-94EA0DA45935";
shapes = (
{
closed = 1;
nodes = (
(246,599,o),
(253,558,o),
(253,520,cs),
(253,360,o),
(136,260,o),
(136,115,c),
(736,115,ls),
(888,115,o),
(901,151,o),
(901,187,cs),
(901,234,o),
(846,268,o),
(753,319,cs),
(623,390,o),
(632,472,o),
(722,523,cs),
(782,557,o),
(802,579,o),
(802,609,cs),
(802,630,o),
(785,645,o),
(751,645,cs),
(230,645,l)
);
},
{
closed = 1;
nodes = (
(410,380,o),
(412,380,o),
(412,380,c),
(570,380,ls),
(632,380,o),
(700,290,o),
(700,215,cs),
(700,161,o),
(665,115,o),
(568,115,cs),
(412,115,l),
(410,115,o),
(410,115,o),
(410,115,c),
(360,115,o),
(326,193,o),
(326,264,cs),
(326,325,o),
(350,380,o),
(410,380,c)
);
},
{
closed = 1;
nodes = (
(410,645,o),
(412,645,c),
(560,645,ls),
(637,645,o),
(670,591,o),
(670,532,cs),
(670,460,o),
(621,380,o),
(548,380,cs),
(412,380,l),
(410,380,o),
(410,380,o),
(410,380,c),
(348,380,o),
(325,431,o),
(325,488,cs),
(325,561,o),
(364,645,o),
(410,645,c),
(410,645,o)
);
}
);
width = 1043;
}
);
unicode = 66;
},
{
color = 6;
glyphname = Bhook;
kernLeft = Bhook;
kernRight = B;
lastChange = "2021-09-06 15:12:35 +0000";
layers = (
{
anchors = (
{
name = bottom;
pos = (919,0);
},
{
name = top;
pos = (919,750);
}
);
background = {
shapes = (
{
ref = Dhook;
}
);
};
layerId = "F6D8640C-383C-48A8-B63C-DDE9F10207CE";
shapes = (
{
closed = 1;
nodes = (
(104,750,o),
(-16,654,o),
(18,388,c),
(325,390,l),
(303,470,o),
(326,497,o),
(419,497,cs),
(419,497,o),
(419,470,o),
(419,435,cs),
(419,264,o),
(419,181,o),
(419,0,c),
(1206,0,ls),
(1358,0,o),
(1436,99,o),
(1436,197,cs),
(1436,296,o),
(1358,395,o),
(1197,395,cs),
(1196,395,o),
(1196,396,o),
(1197,396,cs),
(1337,396,o),
(1406,486,o),
(1406,575,cs),
(1406,663,o),
(1339,750,o),
(1206,750,cs),
(379,750,ls)
);
},
{
closed = 1;
nodes = (
(813,356,o),
(814,357,o),
(814,357,c),
(965,357,ls),
(994,357,o),
(1010,336,o),
(1010,313,cs),
(1010,289,o),
(992,267,o),
(956,267,cs),
(814,267,l),
(813,267,o),
(813,267,o),
(813,268,c),
(813,281,o),
(813,296,o),
(813,312,cs),
(813,326,o),
(813,341,o),
(813,356,c)
);
},
{
closed = 1;
nodes = (
(813,497,o),
(814,497,c),
(960,497,ls),
(989,497,o),
(1005,476,o),
(1005,453,cs),
(1005,429,o),
(987,407,o),
(951,407,cs),
(814,407,l),
(813,407,o),
(813,407,o),
(813,408,c),
(813,421,o),
(813,437,o),
(813,452,cs),
(813,468,o),
(813,483,o),
(813,496,c),
(813,496,o)
);
}
);
width = 1445;
},
{
anchors = (
{
name = bottom;
pos = (637,0);
},
{
name = top;
pos = (637,750);
}
);
layerId = "96858A69-C8A6-410B-90BB-94EA0DA45935";
shapes = (
{
closed = 1;
nodes = (
(176,645,o),
(134,609,o),
(134,557,c),
(214,557,l),
(214,601,o),
(228,640,o),
(279,640,cs),
(317,640,o),
(330,614,o),
(330,520,cs),
(330,360,o),
(213,260,o),
(213,115,c),
(813,115,ls),
(965,115,o),
(978,151,o),
(978,187,cs),
(978,234,o),
(923,268,o),
(830,319,cs),
(700,390,o),
(709,472,o),
(799,523,cs),
(859,557,o),
(879,579,o),
(879,609,cs),
(879,630,o),
(862,645,o),
(828,645,cs),
(307,645,ls)
);
},
{
closed = 1;
nodes = (
(487,380,o),
(489,380,o),
(489,380,c),
(647,380,ls),
(709,380,o),
(777,290,o),
(777,215,cs),
(777,161,o),
(742,115,o),
(645,115,cs),
(489,115,l),
(487,115,o),
(487,115,o),
(487,115,c),
(437,115,o),
(403,193,o),
(403,264,cs),
(403,325,o),
(427,380,o),
(487,380,c)
);
},
{
closed = 1;
nodes = (
(487,645,o),
(489,645,c),
(637,645,ls),
(714,645,o),
(747,591,o),
(747,532,cs),
(747,460,o),
(698,380,o),
(625,380,cs),
(489,380,l),
(487,380,o),
(487,380,o),
(487,380,c),
(425,380,o),
(402,431,o),
(402,488,cs),
(402,561,o),
(441,645,o),
(487,645,c),
(487,645,o)
);
}
);
width = 1120;
}
);
unicode = 385;
},
{
color = 6;
glyphname = C;
kernLeft = O;
kernRight = C;
lastChange = "2021-09-06 15:12:35 +0000";
layers = (
{
anchors = (
{
name = bottom;
pos = (562,0);
},
{
name = top;
pos = (562,750);
}
);
background = {
shapes = (
{
ref = O;
}
);
};
layerId = "F6D8640C-383C-48A8-B63C-DDE9F10207CE";
shapes = (
{
closed = 1;
nodes = (
(916,-30,o),
(1081,134,o),
(1110,331,c),
(685,374,l),
(685,319,o),
(630,290,o),
(560,290,cs),
(488,290,o),
(435,318,o),
(435,376,cs),
(435,432,o),
(488,460,o),
(560,460,cs),
(628,460,o),
(685,435,o),
(685,374,c),
(1110,443,l),
(1075,656,o),
(891,780,o),
(560,780,cs),
(248,780,o),
(10,652,o),
(10,374,cs),
(10,138,o),
(193,-30,o),
(560,-30,cs)
);
}
);
width = 1122;
},
{
anchors = (
{
name = bottom;
pos = (554,0);
},
{
name = top;
pos = (544,750);
}
);
background = {
shapes = (
{
ref = O;
}
);
};
layerId = "96858A69-C8A6-410B-90BB-94EA0DA45935";
name = "2050";
shapes = (
{
closed = 1;
nodes = (
(719,102,o),
(881,136,o),
(898,199,c),
(736,236,l),
(706,136,o),
(664,109,o),
(613,109,cs),
(497,109,o),
(296,272,o),
(296,458,cs),
(296,615,o),
(393,652,o),
(556,652,cs),
(709,652,o),
(719,594,o),
(715,535,c),
(896,571,l),
(860,624,o),
(722,657,o),
(564,657,cs),
(241,657,o),
(223,655,o),
(264,476,cs),
(303,308,o),
(13,102,o),
(566,102,cs)
);
}
);
width = 1107;
}
);
unicode = 67;
},
{
color = 6;
glyphname = D;
kernLeft = H;
kernRight = O;
lastChange = "2021-09-06 15:12:35 +0000";
layers = (
{
anchors = (
{
name = bottom;
pos = (524,0);
},
{
name = center;
pos = (524,375);
},
{
name = top;
pos = (524,750);
}
);
background = {
shapes = (
{
pos = (-53,0);
ref = O;
}
);
};
layerId = "F6D8640C-383C-48A8-B63C-DDE9F10207CE";
shapes = (
{
closed = 1;
nodes = (
(20,750,l),
(20,670,o),
(20,589,o),
(20,509,cs),
(20,339,o),
(20,170,o),
(20,0,c),
(616,0,ls),
(925,0,o),
(1057,189,o),
(1057,378,cs),
(1057,564,o),
(930,750,o),
(616,750,cs)
);
},
{
closed = 1;
nodes = (
(597,462,o),
(632,423,o),
(632,375,cs),
(632,329,o),
(597,288,o),
(538,288,cs),
(417,288,l),
(416,288,o),
(416,288,o),
(416,290,cs),
(416,460,l),
(416,462,o),
(416,462,o),
(417,462,c),
(536,462,ls)
);
}
);
width = 1067;
},
{
anchors = (
{
name = bottom;
pos = (500,0);
},
{
name = center;
pos = (500,375);
},
{
name = top;
pos = (500,750);
}
);
layerId = "96858A69-C8A6-410B-90BB-94EA0DA45935";
name = "2050";
shapes = (
{
closed = 1;
nodes = (
(178,645,l),
(204,594,o),
(213,537,o),
(213,479,cs),
(213,325,o),
(150,167,o),
(177,115,c),
(460,115,ls),
(649,115,o),
(794,283,o),
(895,390,cs),
(1045,549,o),
(798,645,o),
(573,645,cs)
);
},
{
closed = 1;
nodes = (
(724,645,o),
(760,575,o),
(760,474,cs),
(760,316,o),
(684,123,o),
(470,123,cs),
(463,123,ls),
(375,123,o),
(220,198,o),
(220,455,cs),
(220,459,ls),
(220,539,o),
(242,645,o),
(365,645,cs),
(571,645,ls)
);
}
);
visible = 1;
width = 1039;
}
);
unicode = 68;
},
{
color = 3;
glyphname = Eth;
kernLeft = Dcroat;
kernRight = O;
lastChange = "2021-09-06 15:12:35 +0000";
layers = (
{
layerId = "96858A69-C8A6-410B-90BB-94EA0DA45935";
shapes = (
{
closed = 1;
nodes = (
(118,385,l),
(537,385,l),
(537,391,l),
(118,391,l)
);
},
{
pos = (49,0);
ref = D;
}
);
width = 1088;
},
{
layerId = "F6D8640C-383C-48A8-B63C-DDE9F10207CE";
shapes = (
{
closed = 1;
nodes = (
(6,333,l),
(590,333,l),
(590,417,l),
(6,417,l)
);
},
{
pos = (40,0);
ref = D;
}
);
width = 1107;
}
);
metricRight = D;
unicode = 208;
},
{
color = 6;
glyphname = Dhook;
kernLeft = Bhook;
kernRight = O;
lastChange = "2021-09-06 15:12:35 +0000";
layers = (
{
anchors = (
{
name = bottom;
pos = (923,0);
},
{
name = center;
pos = (923,375);
},
{
name = top;
pos = (923,750);
}
);
layerId = "F6D8640C-383C-48A8-B63C-DDE9F10207CE";
shapes = (
{
closed = 1;
nodes = (
(1015,0,ls),
(1324,0,o),
(1456,189,o),
(1456,378,cs),
(1456,564,o),
(1329,750,o),
(1015,750,cs),
(393,750,ls),
(94,750,o),
(-17,647,o),
(18,364,c),
(325,364,l),
(308,434,o),
(329,462,o),
(419,462,c),
(419,462,o),
(419,413,o),
(419,389,cs),
(419,277,o),
(419,146,o),
(419,0,c)
);
},
{
closed = 1;
nodes = (
(815,288,o),
(815,288,o),
(815,290,cs),
(815,460,l),
(815,462,o),
(815,462,o),
(816,462,c),
(935,462,ls),
(996,462,o),
(1031,423,o),
(1031,375,cs),
(1031,329,o),
(996,288,o),
(937,288,cs),
(816,288,l)
);
}
);
width = 1466;
},
{
anchors = (
{
name = bottom;
pos = (580,0);
},
{
name = center;
pos = (580,375);
},
{
name = top;
pos = (580,750);
}
);
layerId = "96858A69-C8A6-410B-90BB-94EA0DA45935";
shapes = (
{
closed = 1;
nodes = (
(540,115,ls),
(729,115,o),
(874,283,o),
(975,390,cs),
(1125,549,o),
(878,645,o),
(653,645,cs),
(258,645,ls),
(129,645,o),
(64,627,o),
(64,549,c),
(171,549,l),
(171,596,o),
(189,643,o),
(237,643,cs),
(273,643,o),
(294,608,o),
(294,496,cs),
(294,330,o),
(231,165,o),
(257,115,c)
);
},
{
closed = 1;
nodes = (
(455,123,o),
(300,198,o),
(300,455,cs),
(300,459,ls),
(300,539,o),
(322,645,o),
(445,645,cs),
(651,645,ls),
(804,645,o),
(840,575,o),
(840,474,cs),
(840,316,o),
(764,123,o),
(550,123,cs),
(543,123,ls)
);
}
);
width = 1119;
}
);
unicode = 394;
},
{
color = 6;
glyphname = E;
kernLeft = H;
kernRight = E;
lastChange = "2021-09-06 15:12:35 +0000";
layers = (
{
anchors = (
{
name = bottom;
pos = (472,0);
},
{
name = ogonek;
pos = (811,115);
},
{
name = top;
pos = (472,750);
},
{
name = topleft;
pos = (52,750);
}
);
background = {
shapes = (
{
closed = 1;
nodes = (
(344,521,l),
(344,551,o),
(356,581,o),
(378,602,c),
(399,623,o),
(429,636,o),
(459,636,c),
(776,636,l),
(776,645,l),
(159,645,l),
(159,125,l),
(776,125,l),
(776,134,l),
(459,134,l),
(429,134,o),
(399,146,o),
(378,167,c),
(356,189,o),
(344,218,o),
(344,249,c),
(344,299,l),
(344,329,o),
(356,359,o),
(378,380,c),
(379,382,o),
(381,383,o),
(383,385,c),
(381,386,o),
(379,388,o),
(378,389,c),
(356,411,o),
(344,440,o),
(344,471,c)
);
}
);
};
layerId = "96858A69-C8A6-410B-90BB-94EA0DA45935";
shapes = (
{
closed = 1;
nodes = (
(693,645,l),
(258,645,l),
(268,621,o),
(273,596,o),
(273,568,cs),
(273,409,o),
(124,200,o),
(144,115,c),
(811,115,l),
(811,120,l),
(529,120,ls),
(339,120,o),
(315,244,o),
(315,294,cs),
(315,296,ls),
(315,360,o),
(368,382,o),
(416,382,c),
(659,382,l),
(659,382,l),
(416,382,l),
(401,382,o),
(315,383,o),
(315,482,cs),
(315,485,ls),
(315,605,o),
(384,645,o),
(492,645,c),
(693,645,l)
);
}
);
width = 871;
},
{
anchors = (
{
name = bottom;
pos = (440,0);
},
{
name = ogonek;
pos = (854,0);
},
{
name = top;
pos = (440,750);
},
{
name = topleft;
pos = (20,750);
}
);
layerId = "F6D8640C-383C-48A8-B63C-DDE9F10207CE";
name = Regular;
shapes = (
{
closed = 1;
nodes = (
(861,750,l),
(20,750,l),
(20,698,o),
(20,645,o),
(20,593,cs),
(20,395,o),
(20,198,o),
(20,0,c),
(867,0,l),
(867,242,l),
(426,242,l),
(425,242,o),
(425,242,o),
(425,242,c),
(425,298,l),
(425,300,o),
(425,300,o),
(426,300,c),
(846,300,l),
(846,441,l),
(426,441,l),
(425,441,o),
(425,441,o),
(425,443,c),
(425,498,l),
(425,498,o),
(425,498,o),
(426,498,c),
(861,498,l)
);
}
);
width = 885;
}
);
unicode = 69;
},
{
color = 6;
glyphname = Eogonek;
kernLeft = H;
kernRight = E;
lastChange = "2021-09-06 15:12:35 +0000";
layers = (
{
layerId = "96858A69-C8A6-410B-90BB-94EA0DA45935";
shapes = (
{
closed = 1;
nodes = (
(722,-105,o),
(768,-77,o),
(796,-34,c),
(796,-33,l),
(791,-34,o),
(787,-34,o),
(783,-34,cs),
(748,-34,o),
(721,-7,o),
(721,29,cs),
(721,64,o),
(734,95,o),
(811,115,c),
(811,120,l),
(529,120,l),
(339,120,o),
(315,244,o),
(315,294,cs),
(315,296,ls),
(315,360,o),
(368,382,o),
(416,382,c),
(659,382,l),
(659,382,l),
(416,382,l),
(401,382,o),
(315,383,o),
(315,482,cs),
(315,485,ls),
(315,605,o),
(384,645,o),
(492,645,c),
(693,645,l),
(693,645,l),
(258,645,l),
(268,621,o),
(273,596,o),
(273,568,cs),
(273,409,o),
(124,200,o),
(144,115,c),
(655,115,l),
(902,115,o),
(582,53,o),
(582,-45,cs),
(582,-77,o),
(611,-105,o),
(667,-105,cs)
);
}
);
width = 871;
},
{
background = {
shapes = (
{
ref = E;
}
);
};
layerId = "F6D8640C-383C-48A8-B63C-DDE9F10207CE";
name = Regular;
shapes = (
{
closed = 1;
nodes = (
(765,-308,o),
(806,-300,o),
(861,-285,c),
(861,-89,l),
(831,-101,o),
(810,-105,o),
(782,-105,cs),
(748,-105,o),
(728,-92,o),
(728,-70,cs),
(728,-43,o),
(756,-5,o),
(867,0,c),
(867,242,l),
(426,242,l),
(425,242,o),
(425,242,o),
(425,242,c),
(425,298,l),
(425,300,o),
(425,300,o),
(426,300,c),
(846,300,l),
(846,441,l),
(426,441,l),
(425,441,o),
(425,441,o),
(425,443,c),
(425,498,l),
(425,498,o),
(425,498,o),
(426,498,c),
(861,498,l),
(861,750,l),
(20,750,l),
(20,697,o),
(20,645,o),
(20,593,cs),
(20,395,o),
(20,197,o),
(20,0,c),
(527,0,l),
(482,-37,o),
(459,-85,o),
(459,-140,cs),
(459,-247,o),
(540,-308,o),
(703,-308,cs)
);
}
);
width = 885;
}
);
metricLeft = E;
metricRight = E;
unicode = 280;
},
{
color = 6;
glyphname = F;
kernLeft = H;
kernRight = F;
lastChange = "2021-09-06 15:12:35 +0000";
layers = (
{
anchors = (
{
name = bottom;
pos = (375,0);
},
{
name = top;
pos = (375,750);
}
);
layerId = "96858A69-C8A6-410B-90BB-94EA0DA45935";
shapes = (
{
closed = 1;
nodes = (
(693,645,l),
(225,645,l),
(231,619,o),
(233,594,o),
(233,569,cs),
(233,398,o),
(121,235,o),
(137,115,c),
(358,115,l),
(328,132,o),
(303,160,o),
(303,211,cs),
(303,268,o),
(345,289,o),
(387,289,c),
(641,289,l),
(641,289,l),
(387,289,l),
(310,289,o),
(264,325,o),
(264,401,cs),
(264,410,ls),
(264,500,o),
(308,640,o),
(519,640,c),
(693,640,l)
);
}
);
width = 868;
},
{
anchors = (
{
name = bottom;
pos = (437,0);
},
{
name = top;
pos = (437,750);
}
);
layerId = "F6D8640C-383C-48A8-B63C-DDE9F10207CE";
name = Regular;
shapes = (
{
closed = 1;
nodes = (
(861,750,l),
(20,750,l),
(20,689,o),
(20,628,o),
(20,567,cs),
(20,378,o),
(20,189,o),
(20,0,c),
(436,0,l),
(436,68,o),
(436,89,o),
(436,157,c),
(436,158,o),
(436,158,o),
(436,158,c),
(846,158,l),
(846,396,l),
(436,396,l),
(436,396,o),
(436,396,o),
(436,397,c),
(436,455,l),
(436,456,o),
(436,456,o),
(436,456,c),
(861,456,l)
);
}
);
width = 877;
}
);
unicode = 70;
},
{
color = 6;
glyphname = G;
kernLeft = O;
kernRight = G;
lastChange = "2021-09-06 15:12:35 +0000";
layers = (
{
anchors = (
{
name = bottom;
pos = (566,0);
},
{
name = top;
pos = (566,750);
}
);
background = {
shapes = (
{
ref = C;
}
);
};
layerId = "F6D8640C-383C-48A8-B63C-DDE9F10207CE";
name = Regular;
shapes = (
{
closed = 1;
nodes = (
(164,780,o),
(10,587,o),
(10,374,cs),
(10,148,o),
(166,-25,o),
(469,-25,cs),
(516,-25,o),
(546,-22,o),
(582,-15,c),
(614,103,o),
(647,226,o),
(679,344,c),
(663,316,o),
(628,300,o),
(560,300,cs),
(471,300,o),
(435,341,o),
(435,383,cs),
(435,426,o),
(465,470,o),
(560,470,cs),
(660,470,o),
(701,419,o),
(679,344,c),
(1111,446,l),
(1079,636,o),
(916,780,o),
(561,780,cs)
);
},
{
closed = 1;
nodes = (
(1103,0,l),
(1103,344,l),
(962,344,o),
(820,344,o),
(679,344,c),
(679,229,o),
(679,115,o),
(679,0,c)
);
}
);
width = 1129;
},
{
anchors = (
{
name = bottom;
pos = (569,0);
},
{
name = top;
pos = (569,750);
}
);
background = {
shapes = (
{
ref = C;
}
);
};
layerId = "96858A69-C8A6-410B-90BB-94EA0DA45935";
name = "2050";
shapes = (
{
closed = 1;
nodes = (
(-38,661,o),
(147,513,o),
(223,431,cs),
(323,323,o),
(198,95,o),
(434,88,cs),
(438,88,o),
(442,88,o),
(446,88,c),
(478,146,o),
(539,225,o),
(558,255,c),
(533,243,o),
(504,239,o),
(478,239,cs),
(390,239,o),
(254,273,o),
(254,441,cs),
(254,590,o),
(325,656,o),
(504,656,cs),
(674,656,o),
(773,621,o),
(764,491,c),
(943,521,l),
(879,620,o),
(706,661,o),
(503,661,cs)
);
},
{
closed = 1;
nodes = (
(941,115,l),
(941,169,l),
(846,179,o),
(737,228,o),
(707,287,c),
(707,284,o),
(707,201,o),
(707,115,c)
);
}
);
width = 1097;
}
);
unicode = 71;
},
{
color = 6;
glyphname = H;
kernLeft = H;
kernRight = H;
lastChange = "2021-09-06 15:12:35 +0000";
layers = (
{
anchors = (
{
name = bottom;
pos = (505,0);
},
{
name = center;
pos = (502,375);
},
{
name = top;
pos = (505,750);
},
{
name = topleft;
pos = (12,750);
}
);
layerId = "F6D8640C-383C-48A8-B63C-DDE9F10207CE";
shapes = (
{
closed = 1;
nodes = (
(575,653,o),
(575,555,o),
(575,458,cs),
(575,457,o),
(574,456,o),
(573,456,cs),
(436,456,ls),
(435,456,o),
(435,457,o),
(435,458,cs),
(435,555,o),
(435,653,o),
(435,750,c),
(20,750,l),
(20,700,o),
(20,650,o),
(20,600,cs),
(20,400,o),
(20,200,o),
(20,0,c),
(435,0,l),
(435,81,o),
(435,163,o),
(435,244,cs),
(435,245,o),
(435,246,o),
(436,246,cs),
(573,246,ls),
(574,246,o),
(575,245,o),
(575,244,cs),
(575,163,o),
(575,81,o),
(575,0,c),
(990,0,l),
(990,124,o),
(990,248,o),
(990,371,cs),
(990,498,o),
(990,624,o),
(990,750,c),
(575,750,l)
);
}
);
width = 1010;
},
{
anchors = (
{
name = bottom;
pos = (514,0);
},
{
name = center;
pos = (514,375);
},
{
name = top;
pos = (514,750);
},
{
name = topleft;
pos = (36,750);
}
);
background = {
shapes = (
{
closed = 1;
nodes = (
(296,634,l),
(111,635,l),
(111,115,l),
(296,115,l),
(296,246,l),
(296,276,o),
(308,306,o),
(329,328,c),
(339,338,o),
(351,346,o),
(364,351,c),
(351,357,o),
(339,365,o),
(329,375,c),
(308,396,o),
(296,426,o),
(296,456,c)
);
},
{
closed = 1;
nodes = (
(656,426,o),
(643,396,o),
(622,375,c),
(612,365,o),
(600,357,o),
(587,351,c),
(600,346,o),
(612,338,o),
(622,328,c),
(643,306,o),
(656,276,o),
(656,246,c),
(656,115,l),
(841,115,l),
(841,635,l),
(656,635,l),
(656,456,l)
);
}
);
};
layerId = "96858A69-C8A6-410B-90BB-94EA0DA45935";
shapes = (
{
closed = 1;
nodes = (
(681,615,o),
(702,551,o),
(702,483,cs),
(702,405,o),
(662,351,o),
(581,351,cs),
(395,351,ls),
(334,351,o),
(309,391,o),
(309,443,cs),
(309,508,o),
(348,594,o),
(403,645,c),
(261,645,l),
(268,628,o),
(271,608,o),
(271,587,cs),
(271,440,o),
(126,207,o),
(126,115,c),
(338,115,l),
(319,149,o),
(308,192,o),
(308,231,cs),
(308,295,o),
(336,351,o),
(395,351,cs),
(581,351,ls),
(660,351,o),
(704,298,o),
(704,224,cs),
(704,191,o),
(695,153,o),
(677,115,c),
(855,115,l),
(818,179,o),
(810,262,o),
(810,346,cs),
(810,456,o),
(824,569,o),
(807,645,c),
(639,645,l)
);
}
);
width = 989;
}
);
unicode = 72;
},
{
color = 3;
glyphname = Hbar;
kernLeft = H;
kernRight = H;
lastChange = "2021-09-06 15:12:35 +0000";
layers = (
{
layerId = "F6D8640C-383C-48A8-B63C-DDE9F10207CE";
shapes = (
{
closed = 1;
nodes = (
(1084,559,l),
(1084,647,l),
(6,647,l),
(6,559,l)
);
},
{
pos = (40,0);
ref = H;
}
);
width = 1090;
},
{
layerId = "96858A69-C8A6-410B-90BB-94EA0DA45935";
shapes = (
{
closed = 1;
nodes = (
(924,540,l),
(924,546,l),
(210,546,l),
(210,540,l)
);
},
{
pos = (31,0);
ref = H;
}
);
width = 1088;
}
);
unicode = 294;
},
{
color = 6;
glyphname = I;
kernLeft = H;
kernRight = H;
lastChange = "2021-09-06 15:12:35 +0000";
layers = (
{
anchors = (
{
name = bottom;
pos = (228,0);
},
{
name = ogonek;
pos = (370,0);
},
{
name = top;
pos = (228,750);
},
{
name = topleft;
pos = (20,750);
}
);
layerId = "F6D8640C-383C-48A8-B63C-DDE9F10207CE";
shapes = (
{
closed = 1;
nodes = (
(435,0,l),
(435,121,o),
(435,242,o),
(435,363,cs),
(435,492,o),
(435,621,o),
(435,750,c),
(20,750,l),
(20,692,o),
(20,634,o),
(20,576,cs),
(20,384,o),
(20,192,o),
(20,0,c)
);
}
);
width = 455;
},
{
anchors = (
{
name = bottom;
pos = (231,0);
},
{
name = ogonek;
pos = (339,115);
},
{
name = top;
pos = (231,750);
},
{
name = topleft;
pos = (35,750);
}
);
layerId = "96858A69-C8A6-410B-90BB-94EA0DA45935";
shapes = (
{
closed = 1;
nodes = (
(349,115,l),
(315,144,o),
(268,202,o),
(268,352,cs),
(268,424,o),
(276,522,o),
(299,645,c),
(161,645,l),
(166,614,o),
(169,581,o),
(169,549,cs),
(169,382,o),
(111,209,o),
(129,115,c)
);
}
);
width = 442;
}
);
unicode = 73;
},
{
color = 6;
glyphname = IJ;
kernLeft = H;
kernRight = J;
lastChange = "2021-09-06 15:12:35 +0000";
layers = (
{
layerId = "96858A69-C8A6-410B-90BB-94EA0DA45935";
name = "2050";
shapes = (
{
closed = 1;
nodes = (
(163,148,l),
(248,124,o),
(389,108,o),
(498,108,cs),
(661,108,o),
(794,115,o),
(794,180,cs),
(794,252,o),
(708,330,o),
(708,459,cs),
(708,512,o),
(722,573,o),
(762,645,c),
(610,645,l),
(630,569,o),
(661,438,o),
(661,326,cs),
(661,211,o),
(628,113,o),
(517,113,cs),
(368,113,o),
(303,167,o),
(206,262,c)
);
},
{
closed = 1;
nodes = (
(366,403,l),
(321,433,o),
(290,472,o),
(290,527,cs),
(290,560,o),
(302,599,o),
(330,645,c),
(211,645,l),
(228,621,o),
(234,600,o),
(234,580,cs),
(234,512,o),
(171,464,o),
(183,403,c)
);
}
);
width = 958;
},
{
layerId = "F6D8640C-383C-48A8-B63C-DDE9F10207CE";
name = Regular;
shapes = (
{
closed = 1;
nodes = (
(20,41,l),
(102,0,o),
(254,-26,o),
(390,-26,cs),
(699,-26,o),
(926,94,o),
(926,293,cs),
(926,325,o),
(926,401,o),
(926,482,cs),
(926,580,o),
(926,688,o),
(926,750,c),
(511,750,l),
(511,717,o),
(511,471,o),
(511,396,cs),
(511,326,o),
(434,295,o),
(287,295,cs),
(173,295,o),
(70,319,o),
(20,363,c)
);
},
{
closed = 1;
nodes = (
(435,366,l),
(435,423,o),
(435,495,o),
(435,550,cs),
(435,624,o),
(435,682,o),
(435,750,c),
(20,750,l),
(20,702,o),
(20,651,o),
(20,598,cs),
(20,532,o),
(20,443,o),
(20,366,c)
);
}
);
width = 945;
}
);
unicode = 306;
},
{
color = 6;
glyphname = Iogonek;
kernLeft = H;
kernRight = H;
lastChange = "2021-09-06 15:12:35 +0000";
layers = (
{
layerId = "96858A69-C8A6-410B-90BB-94EA0DA45935";
shapes = (
{
closed = 1;
nodes = (
(273,-105,o),
(319,-77,o),
(347,-34,c),
(347,-33,l),
(342,-34,o),
(338,-34,o),
(333,-34,cs),
(296,-34,o),
(266,-10,o),
(266,22,cs),
(266,50,o),
(285,83,o),
(349,115,c),
(312,147,o),
(268,202,o),
(268,359,cs),
(268,429,o),
(276,522,o),
(299,645,c),
(161,645,l),
(166,614,o),
(169,581,o),
(169,549,cs),
(169,382,o),
(111,209,o),
(129,115,c),
(486,98,o),
(133,54,o),
(133,-45,cs),
(133,-77,o),
(162,-105,o),
(218,-105,cs)
);
}
);
width = 442;
},
{
layerId = "F6D8640C-383C-48A8-B63C-DDE9F10207CE";
name = Regular;
shapes = (
{
closed = 1;
nodes = (
(297,-308,o),
(338,-300,o),
(390,-285,c),
(390,-89,l),
(364,-101,o),
(343,-105,o),
(317,-105,cs),
(278,-105,o),
(255,-94,o),
(255,-70,cs),
(255,-42,o),
(284,-5,o),
(435,0,c),
(435,121,o),
(435,242,o),
(435,363,cs),
(435,492,o),
(435,621,o),
(435,750,c),
(20,750,l),
(20,693,o),
(20,633,o),
(20,576,cs),
(20,383,o),
(20,193,o),
(20,0,c),
(0,-44,o),
(-8,-85,o),
(-8,-126,cs),
(-8,-247,o),
(74,-308,o),
(238,-308,cs)
);
}
);
visible = 1;
width = 455;
}
);
metricRight = I;
unicode = 302;
},
{
color = 6;
glyphname = J;
kernLeft = J;
kernRight = J;
lastChange = "2021-09-06 15:12:35 +0000";
layers = (
{
anchors = (
{
name = bottom;
pos = (306,0);
},
{
name = top;
pos = (360,750);
}
);
layerId = "96858A69-C8A6-410B-90BB-94EA0DA45935";
shapes = (
{
closed = 1;
nodes = (
(54,98,l),
(101,106,o),
(173,111,o),
(274,111,cs),
(416,111,o),
(533,82,o),
(533,180,cs),
(533,260,o),
(395,355,o),
(395,508,cs),
(395,549,o),
(405,595,o),
(430,645,c),
(278,645,l),
(303,547,o),
(386,359,o),
(386,236,cs),
(386,166,o),
(359,116,o),
(280,116,cs),
(200,116,o),
(157,168,o),
(94,246,c)
);
}
);
width = 647;
},
{
anchors = (
{
name = bottom;
pos = (388,0);
},
{
name = top;
pos = (388,750);
}
);
background = {
shapes = (
{
pos = (-408,0);
ref = U;
}
);
};
layerId = "F6D8640C-383C-48A8-B63C-DDE9F10207CE";
name = Regular;
shapes = (
{
closed = 1;
nodes = (
(14,34,l),
(79,-5,o),
(160,-19,o),
(251,-19,cs),
(422,-19,o),
(593,60,o),
(593,291,cs),
(593,308,o),
(593,411,o),
(593,519,cs),
(593,607,o),
(593,698,o),
(593,750,c),
(178,750,l),
(178,717,o),
(178,412,o),
(178,382,cs),
(178,339,o),
(145,320,o),
(104,320,cs),
(75,320,o),
(41,330,o),
(14,347,c)
);
}
);
visible = 1;
width = 613;
}
);
unicode = 74;
},
{
color = 6;
glyphname = K;
kernLeft = H;
kernRight = K;
lastChange = "2021-09-06 15:12:35 +0000";
layers = (
{
anchors = (
{
name = bottom;
pos = (496,0);
},
{
name = top;
pos = (496,750);
}
);
background = {
shapes = (
{
closed = 1;
nodes = (
(747,361,l),
(732,392,o),
(733,429,o),
(748,460,c),
(840,645,l),
(653,645,l),
(545,384,l),
(645,125,l),
(856,125,l)
);
},
{
closed = 1;
nodes = (
(306,645,l),
(121,645,l),
(121,125,l),
(306,125,l)
);
}
);
};
layerId = "96858A69-C8A6-410B-90BB-94EA0DA45935";
shapes = (
{
closed = 1;
nodes = (
(854,115,l),
(854,188,o),
(677,315,o),
(677,403,cs),
(677,457,o),
(727,523,o),
(823,645,c),
(686,645,l),
(730,548,o),
(744,476,o),
(578,384,c),
(682,115,l)
);
},
{
closed = 1;
nodes = (
(376,115,l),
(327,191,o),
(316,268,o),
(316,304,cs),
(316,332,o),
(327,381,o),
(374,381,c),
(324,381,o),
(315,412,o),
(315,447,cs),
(315,496,o),
(376,596,o),
(376,645,c),
(246,645,l),
(253,624,o),
(256,601,o),
(256,576,cs),
(256,430,o),
(151,232,o),
(151,115,c)
);
}
);
width = 1033;
},
{
anchors = (
{
name = bottom;
pos = (515,0);
},
{
name = top;
pos = (525,750);
}
);
layerId = "F6D8640C-383C-48A8-B63C-DDE9F10207CE";
shapes = (
{
closed = 1;
nodes = (
(1050,0,l),
(988,133,o),
(865,399,o),
(865,400,cs),
(865,400,o),
(982,633,o),
(1040,750,c),
(590,750,l),
(538,625,o),
(487,500,o),
(435,375,c),
(580,0,l)
);
},
{
closed = 1;
nodes = (
(435,0,l),
(435,123,o),
(435,245,o),
(435,368,cs),
(435,370,o),
(435,373,o),
(435,375,c),
(435,377,o),
(435,380,o),
(435,382,cs),
(435,505,o),
(435,627,o),
(435,750,c),
(20,750,l),
(20,695,o),
(20,641,o),
(20,586,cs),
(20,391,o),
(20,195,o),
(20,0,c)
);
}
);
width = 1049;
}
);
unicode = 75;
},
{
color = 6;
glyphname = Khook;
kernLeft = H;
kernRight = Khook;
lastChange = "2021-09-06 15:12:35 +0000";
layers = (
{
anchors = (
{
name = bottom;
pos = (496,0);
},
{
name = top;
pos = (496,750);
}
);
layerId = "96858A69-C8A6-410B-90BB-94EA0DA45935";
shapes = (
{
closed = 1;
nodes = (
(854,115,l),
(854,188,o),
(677,325,o),
(677,438,cs),
(677,491,o),
(690,540,o),
(714,566,cs),
(750,604,o),
(815,571,o),
(851,571,cs),
(854,571,o),
(857,571,o),
(860,571,c),
(860,645,l),
(858,645,o),
(856,645,o),
(854,645,cs),
(811,645,o),
(737,618,o),
(682,539,cs),
(652,495,o),
(616,447,o),
(578,384,c),
(682,115,l)
);
},
{
closed = 1;
nodes = (
(376,115,l),
(327,191,o),
(316,268,o),
(316,304,cs),
(316,332,o),
(327,381,o),
(374,381,c),
(324,381,o),
(315,412,o),
(315,447,cs),
(315,496,o),
(376,596,o),
(376,645,c),
(246,645,l),
(253,624,o),
(256,601,o),
(256,576,cs),
(256,430,o),
(151,232,o),
(151,115,c)
);
}
);
width = 1033;
},
{
anchors = (
{
name = bottom;
pos = (515,0);
},
{
name = top;
pos = (525,750);
}
);
layerId = "F6D8640C-383C-48A8-B63C-DDE9F10207CE";
name = Regular;
shapes = (
{
closed = 1;
nodes = (
(1050,0,l),
(988,133,o),
(865,399,o),
(865,400,c),
(879,428,o),
(893,456,o),
(904,478,cs),
(920,510,o),
(942,523,o),
(977,523,cs),
(1004,523,o),
(1035,515,o),
(1041,507,c),
(1042,751,l),
(1002,765,o),
(913,777,o),
(833,777,cs),
(702,777,o),
(586,740,o),
(535,617,cs),
(507,551,o),
(471,463,o),
(435,375,c),
(580,0,l)
);
},
{
closed = 1;
nodes = (
(435,0,l),
(435,123,o),
(435,245,o),
(435,368,cs),
(435,370,o),
(435,373,o),
(435,375,c),
(435,377,o),
(435,380,o),
(435,382,cs),
(435,505,o),
(435,627,o),
(435,750,c),
(20,750,l),
(20,695,o),
(20,641,o),
(20,586,cs),
(20,391,o),
(20,195,o),
(20,0,c)
);
}
);
width = 1049;
}
);
unicode = 408;
},
{
color = 6;
glyphname = L;
kernLeft = H;
kernRight = L;
lastChange = "2021-09-06 15:12:35 +0000";
layers = (
{
anchors = (
{
name = bottom;
pos = (420,0);
},
{
name = center;
pos = (420,375);
},
{
name = top;
pos = (182,750);
},
{
name = topright;
pos = (477,620);
}
);
layerId = "F6D8640C-383C-48A8-B63C-DDE9F10207CE";
shapes = (
{
closed = 1;
nodes = (
(435,447,o),
(435,599,o),
(435,750,c),
(20,750,l),
(20,666,o),
(20,581,o),
(20,497,cs),
(20,331,o),
(20,166,o),
(20,0,c),
(827,0,l),
(827,294,l),
(437,294,ls),
(436,294,o),
(435,295,o),
(435,296,cs)
);
}
);
width = 840;
},
{
anchors = (
{
name = bottom;
pos = (408,0);
},
{
name = center;
pos = (394,375);
},
{
name = top;
pos = (259,750);
},
{
name = topright;
pos = (530,620);
}
);
layerId = "96858A69-C8A6-410B-90BB-94EA0DA45935";
shapes = (
{
closed = 1;
nodes = (
(299,346,o),
(351,535,o),
(351,645,c),
(178,645,l),
(221,590,o),
(237,533,o),
(237,476,cs),
(237,324,o),
(123,180,o),
(120,115,c),
(693,115,l),
(693,120,l),
(448,120,ls),
(354,120,o),
(299,150,o),
(299,236,cs)
);
}
);
width = 837;
}
);
unicode = 76;
},
{
color = 3;
glyphname = Ldot;
kernLeft = H;
kernRight = L;
lastChange = "2021-09-04 07:33:57 +0000";
layers = (
{
layerId = "F6D8640C-383C-48A8-B63C-DDE9F10207CE";
shapes = (
{
closed = 1;
nodes = (
(788,354,l),
(788,578,l),
(517,578,l),
(517,354,l)
);
},
{
ref = L;
}
);
width = 839;
},
{
layerId = "96858A69-C8A6-410B-90BB-94EA0DA45935";
shapes = (
{
closed = 1;
nodes = (
(688,407,l),
(688,458,l),
(599,458,l),
(599,407,l)
);
},
{
ref = L;
}
);
width = 837;
}
);
metricLeft = L;
unicode = 319;
},
{
color = 3;
glyphname = Lslash;
kernLeft = Lslash;
kernRight = L;
lastChange = "2021-09-06 15:12:35 +0000";
layers = (
{
layerId = "96858A69-C8A6-410B-90BB-94EA0DA45935";
shapes = (
{
closed = 1;
nodes = (
(577,482,l),
(577,489,l),
(174,332,l),
(174,325,l)
);
},
{
pos = (76,0);
ref = L;
}
);
width = 897;
},
{
layerId = "F6D8640C-383C-48A8-B63C-DDE9F10207CE";
shapes = (
{
closed = 1;
nodes = (
(645,478,l),
(645,575,l),
(8,313,l),
(8,216,l)
);
},
{
pos = (56,0);
ref = L;
}
);
width = 895;
}
);
unicode = 321;
},
{
color = 6;
glyphname = M;
kernLeft = H;
kernRight = H;
lastChange = "2021-09-06 15:12:35 +0000";
layers = (
{
anchors = (
{
name = bottom;
pos = (649,0);
},
{
name = top;
pos = (649,750);
}
);
background = {
shapes = (
{
closed = 1;
nodes = (
(494,635,l),
(122,635,l),
(122,115,l),
(243,115,l),
(243,460,l),
(243,519,o),
(287,568,o),
(345,575,c),
(404,581,o),
(457,542,o),
(470,485,c),
(550,115,l),
(620,115,l),
(666,330,l),
(660,329,o),
(653,328,o),
(646,328,c),
(592,329,o),
(545,368,o),
(535,422,c)
);
},
{
closed = 1;
nodes = (
(883,571,o),
(928,522,o),
(928,463,c),
(928,115,l),
(1110,115,l),
(1110,635,l),
(805,635,l),
(793,577,l),
(803,578,o),
(814,579,o),
(825,578,c)
);
}
);
};
layerId = "96858A69-C8A6-410B-90BB-94EA0DA45935";
name = "2050";
shapes = (
{
closed = 1;
nodes = (
(811,645,l),
(708,337,ls),
(693,292,o),
(618,302,o),
(581,355,cs),
(517,446,o),
(508,561,o),
(536,645,c),
(228,645,l),
(232,626,o),
(233,606,o),
(233,586,cs),
(233,434,o),
(148,238,o),
(153,115,c),
(347,115,l),
(301,197,o),
(268,306,o),
(268,396,cs),
(268,639,o),
(536,630,o),
(536,370,cs),
(536,255,o),
(517,184,o),
(497,115,c),
(634,115,l),
(776,540,ls),
(796,601,o),
(968,582,o),
(968,288,cs),
(968,228,o),
(960,167,o),
(942,115,c),
(1124,115,l),
(1124,292,o),
(972,448,o),
(982,645,c)
);
}
);
width = 1246;
},
{
anchors = (
{
name = bottom;
pos = (623,0);
},
{
name = top;
pos = (623,750);
}
);
layerId = "F6D8640C-383C-48A8-B63C-DDE9F10207CE";
name = Regular;
shapes = (
{
closed = 1;
nodes = (
(721,750,l),
(641,379,ls),
(641,377,o),
(639,377,o),
(639,379,c),
(610,503,o),
(582,626,o),
(553,750,c),
(20,750,l),
(20,701,o),
(20,652,o),
(20,603,cs),
(20,402,o),
(20,201,o),
(20,0,c),
(385,0,l),
(385,138,o),
(385,275,o),
(385,413,c),
(385,414,o),
(387,414,o),
(387,413,c),
(420,275,o),
(452,138,o),
(485,0,c),
(740,0,l),
(838,416,ls),
(838,417,o),
(840,417,o),
(840,416,c),
(840,277,o),
(840,139,o),
(840,0,c),
(1225,0,l),
(1225,250,o),
(1225,500,o),
(1225,750,c)
);
}
);
width = 1245;
}
);
unicode = 77;
},
{
color = 6;
glyphname = N;
kernLeft = H;
kernRight = H;
lastChange = "2021-09-06 15:12:35 +0000";
layers = (
{
anchors = (
{
name = bottom;
pos = (524,0);
},
{
name = top;
pos = (524,750);
}
);
background = {
shapes = (
{
closed = 1;
nodes = (
(143,115,l),
(313,115,l),
(313,367,l),
(313,423,o),
(354,472,o),
(409,480,c),
(425,483,o),
(441,482,o),
(455,479,c),
(405,645,l),
(143,645,l)
);
},
{
closed = 1;
nodes = (
(628,115,l),
(900,115,l),
(900,645,l),
(730,645,l),
(730,348,l),
(730,291,o),
(688,242,o),
(631,234,c),
(618,232,o),
(605,233,o),
(592,235,c)
);
}
);
};
layerId = "96858A69-C8A6-410B-90BB-94EA0DA45935";
shapes = (
{
closed = 1;
nodes = (
(727,296,ls),
(727,171,o),
(579,188,o),
(558,245,cs),
(413,645,l),
(292,645,l),
(302,388,o),
(140,211,o),
(140,115,c),
(350,115,l),
(307,194,o),
(291,283,o),
(291,332,cs),
(291,501,o),
(469,491,o),
(487,441,cs),
(605,115,l),
(843,115,l),
(761,219,o),
(733,298,o),
(733,362,cs),
(733,507,o),
(878,571,o),
(864,645,c),
(727,645,l)
);
}
);
width = 1015;
},
{
anchors = (
{
name = bottom;
pos = (499,0);
},
{
name = top;
pos = (499,750);
}
);
background = {
shapes = (
{
closed = 1;
nodes = (
(611,336,ls),
(611,335,o),
(609,334,o),
(609,335,cs),
(468,750,l),
(20,750,l),
(20,500,o),
(20,250,o),
(20,0,c),
(405,0,l),
(405,117,o),
(405,243,o),
(405,360,c),
(405,361,o),
(407,361,o),
(407,360,cs),
(555,0,l),
(996,0,l),
(996,125,o),
(996,250,o),
(996,375,cs),
(996,500,o),
(996,625,o),
(996,750,c),
(611,750,l)
);
}
);
};
layerId = "F6D8640C-383C-48A8-B63C-DDE9F10207CE";
name = Regular;
shapes = (
{
closed = 1;
nodes = (
(611,336,ls),
(611,335,o),
(609,334,o),
(609,335,cs),
(468,750,l),
(20,750,l),
(20,500,o),
(20,250,o),
(20,0,c),
(405,0,l),
(405,117,o),
(405,243,o),
(405,360,c),
(405,361,o),
(407,361,o),
(407,360,cs),
(533,0,l),
(996,0,l),
(996,125,o),
(996,250,o),
(996,375,cs),
(996,500,o),
(996,625,o),
(996,750,c),
(611,750,l)
);
}
);
width = 1016;
}
);
unicode = 78;
},
{
color = 6;
glyphname = Nhookleft;
kernLeft = Nhookleft;
kernRight = H;
lastChange = "2021-09-06 15:12:35 +0000";
layers = (
{
background = {
shapes = (
{
pos = (-451,0);
ref = Eng;
}
);
};
guides = (
{
pos = (105,-172);
}
);
layerId = "F6D8640C-383C-48A8-B63C-DDE9F10207CE";
shapes = (
{
closed = 1;
nodes = (
(314,-188,o),
(485,-100,o),
(485,80,cs),
(485,155,o),
(485,243,o),
(485,360,c),
(485,361,o),
(487,361,o),
(487,360,cs),
(613,0,l),
(1076,0,l),
(1076,126,o),
(1076,249,o),
(1076,375,cs),
(1076,499,o),
(1076,626,o),
(1076,750,c),
(691,750,l),
(691,336,ls),
(691,335,o),
(689,334,o),
(689,335,cs),
(548,750,l),
(105,750,l),
(105,500,o),
(105,383,o),
(105,166,cs),
(105,115,o),
(70,101,o),
(10,118,c),
(10,-148,l)
);
}
);
width = 1091;
},
{
layerId = "96858A69-C8A6-410B-90BB-94EA0DA45935";
shapes = (
{
closed = 1;
nodes = (
(314,24,o),
(331,55,o),
(331,90,cs),
(331,157,o),
(292,241,o),
(292,342,cs),
(292,500,o),
(456,491,o),
(474,441,cs),
(592,115,l),
(830,115,l),
(748,219,o),
(720,298,o),
(720,362,cs),
(720,507,o),
(865,571,o),
(851,645,c),
(714,645,l),
(714,296,ls),
(714,171,o),
(566,188,o),
(545,245,cs),
(400,645,l),
(273,645,l),
(282,553,o),
(286,447,o),
(286,345,cs),
(286,218,o),
(232,98,o),
(147,61,c),
(263,0,l)
);
}
);
width = 1016;
}
);
unicode = 413;
},
{
color = 6;
glyphname = Eng;
kernLeft = H;
kernRight = H;
lastChange = "2021-09-06 15:12:35 +0000";
layers = (
{
layerId = "96858A69-C8A6-410B-90BB-94EA0DA45935";
name = "2050";
shapes = (
{
closed = 1;
nodes = (
(762,17,o),
(801,94,o),
(801,243,cs),
(801,440,ls),
(801,579,o),
(734,634,o),
(663,634,cs),
(637,634,o),
(608,627,o),
(578,612,c),
(578,611,l),
(638,616,o),
(691,546,o),
(691,370,cs),
(691,307,ls),
(691,183,o),
(671,82,o),
(557,42,c),
(691,-19,l)
);
},
{
closed = 1;
nodes = (
(322,115,l),
(301,167,o),
(283,257,o),
(283,365,cs),
(283,420,o),
(294,462,o),
(324,462,c),
(282,470,o),
(267,597,o),
(272,642,c),
(268,642,o),
(175,642,o),
(134,642,c),
(165,585,o),
(175,529,o),
(175,476,cs),
(175,355,o),
(123,207,o),
(147,115,c)
);
}
);
width = 905;
},
{
layerId = "F6D8640C-383C-48A8-B63C-DDE9F10207CE";
name = Regular;
shapes = (
{
closed = 1;
nodes = (
(802,-192,o),
(986,-104,o),
(986,97,cs),
(986,560,ls),
(986,716,o),
(865,776,o),
(730,776,cs),
(665,776,o),
(597,763,o),
(531,738,c),
(435,427,l),
(448,447,o),
(571,469,o),
(571,376,cs),
(571,188,ls),
(571,113,o),
(530,101,o),
(463,118,c),
(463,-148,l)
);
},
{
closed = 1;
nodes = (
(435,0,l),
(435,121,o),
(435,259,o),
(435,383,cs),
(435,398,o),
(435,412,o),
(435,427,c),
(435,542,o),
(435,635,o),
(435,750,c),
(296,750,o),
(159,750,o),
(20,750,c),
(20,660,o),
(20,571,o),
(20,481,cs),
(20,320,o),
(20,160,o),
(20,0,c)
);
}
);
width = 1006;
}
);
unicode = 330;
},
{
color = 6;
glyphname = O;
kernLeft = O;
kernRight = O;
lastChange = "2021-09-06 15:12:35 +0000";
layers = (
{
anchors = (
{
name = bottom;
pos = (560,0);
},
{
name = center;
pos = (560,375);
},
{
name = ogonek;
pos = (788,0);
},
{
name = top;
pos = (560,750);
},
{
name = topleft;
pos = (20,750);
},
{
name = topright;
pos = (1100,750);
}
);
layerId = "F6D8640C-383C-48A8-B63C-DDE9F10207CE";
shapes = (
{
closed = 1;
nodes = (
(927,780,o),
(1110,612,o),
(1110,376,cs),
(1110,164,o),
(957,-30,o),
(560,-30,cs),
(162,-30,o),
(10,164,o),
(10,376,cs),
(10,612,o),
(193,780,o),
(560,780,cs)
);
},
{
closed = 1;
nodes = (
(467,462,o),
(435,417,o),
(435,375,cs),
(435,332,o),
(468,288,o),
(561,288,cs),
(652,288,o),
(685,333,o),
(685,376,cs),
(685,415,o),
(654,462,o),
(561,462,cs)
);
}
);
width = 1120;
},
{
anchors = (
{
name = bottom;
pos = (550,0);
},
{
name = center;
pos = (550,375);
},
{
name = ogonek;
pos = (791,125);
},
{
name = top;
pos = (550,750);
},
{
name = topleft;
pos = (2,750);
},
{
name = topright;
pos = (1082,750);
}
);
layerId = "96858A69-C8A6-410B-90BB-94EA0DA45935";
shapes = (
{
closed = 1;
nodes = (
(791,652,o),
(944,489,o),
(944,272,cs),
(944,173,o),
(918,108,o),
(548,108,cs),
(-9,108,o),
(255,204,o),
(255,475,cs),
(255,649,o),
(125,652,o),
(530,652,cs)
);
},
{
closed = 1;
nodes = (
(335,647,o),
(321,606,o),
(321,471,cs),
(321,261,o),
(436,113,o),
(577,113,cs),
(753,113,o),
(812,313,o),
(812,422,cs),
(812,603,o),
(669,647,o),
(530,647,cs)
);
}
);
width = 1118;
}
);
unicode = 79;
},
{
color = 6;
glyphname = Oogonek;
kernLeft = O;
kernRight = O;
lastChange = "2021-09-06 15:12:35 +0000";
layers = (
{
layerId = "96858A69-C8A6-410B-90BB-94EA0DA45935";
shapes = (
{
closed = 1;
nodes = (
(567,-111,o),
(613,-83,o),
(641,-40,c),
(641,-39,l),
(636,-40,o),
(631,-40,o),
(626,-40,cs),
(588,-40,o),
(558,-16,o),
(558,19,cs),
(558,64,o),
(577,101,o),
(680,111,cs),
(875,130,o),
(946,162,o),
(946,273,cs),
(946,482,o),
(788,652,o),
(532,652,cs),
(127,652,o),
(257,648,o),
(257,476,cs),
(257,205,o),
(-8,109,o),
(535,109,c),
(538,109,l),
(702,109,o),
(427,51,o),
(427,-51,cs),
(427,-83,o),
(456,-111,o),
(512,-111,cs)
);
},
{
closed = 1;
nodes = (
(438,113,o),
(323,261,o),
(323,472,cs),
(323,605,o),
(337,647,o),
(532,647,cs),
(673,647,o),
(814,602,o),
(814,423,cs),
(814,314,o),
(755,113,o),
(579,113,cs)
);
}
);
width = 1120;
},
{
background = {
shapes = (
{
ref = O;
}
);
};
layerId = "F6D8640C-383C-48A8-B63C-DDE9F10207CE";
name = Regular;
shapes = (
{
closed = 1;
nodes = (
(706,-307,o),
(750,-299,o),
(805,-284,c),
(805,-88,l),
(775,-100,o),
(752,-104,o),
(722,-104,cs),
(680,-104,o),
(656,-92,o),
(656,-73,cs),
(656,-48,o),
(680,-30,o),
(767,-13,cs),
(971,27,o),
(1110,176,o),
(1110,376,cs),
(1110,612,o),
(927,780,o),
(560,780,cs),
(193,780,o),
(10,612,o),
(10,376,cs),
(10,185,o),
(130,9,o),
(435,-28,c),
(435,-21,l),
(403,-52,o),
(387,-93,o),
(387,-139,cs),
(387,-246,o),
(472,-307,o),
(643,-307,cs)
);
},
{
closed = 1;
nodes = (
(468,288,o),
(435,332,o),
(435,375,cs),
(435,417,o),
(467,462,o),
(561,462,cs),
(654,462,o),
(685,415,o),
(685,376,cs),
(685,333,o),
(652,288,o),
(561,288,cs)
);
}
);
width = 1120;
}
);
metricLeft = O;
metricRight = O;
unicode = 490;
},
{
color = 3;
glyphname = Oslash;
kernLeft = O;
kernRight = O;
lastChange = "2021-09-06 15:12:35 +0000";
layers = (
{
anchors = (
{
name = bottom;
pos = (560,0);
},
{
name = top;
pos = (560,750);
}
);
layerId = "F6D8640C-383C-48A8-B63C-DDE9F10207CE";
shapes = (
{
closed = 1;
nodes = (
(976,838,l),
(1037,774,l),
(144,-86,l),
(83,-22,l)
);
},
{
ref = O;
}
);
width = 1120;
},
{
anchors = (
{
name = bottom;
pos = (559,0);
},
{
name = top;
pos = (559,750);
}
);
layerId = "96858A69-C8A6-410B-90BB-94EA0DA45935";
shapes = (
{
closed = 1;
nodes = (
(854,667,l),
(859,661,l),
(220,39,l),
(215,45,l)
);
},
{
ref = O;
}
);
width = 1118;
}
);
metricLeft = O;
metricRight = O;
unicode = 216;
},
{
color = 6;
glyphname = OE;
kernLeft = O;
kernRight = E;
lastChange = "2021-09-06 15:12:35 +0000";
layers = (
{
anchors = (
{
name = bottom;
pos = (742,0);
},
{
name = top;
pos = (742,750);
}
);
background = {
shapes = (
{
pos = (605,0);
ref = E;
}
);
};
layerId = "F6D8640C-383C-48A8-B63C-DDE9F10207CE";
shapes = (
{
closed = 1;
nodes = (
(637,-25,o),
(704,-16,o),
(763,0,c),
(797,0,o),
(832,0,o),
(866,0,c),
(1472,0,l),
(1472,242,l),
(1061,242,ls),
(1060,242,o),
(1060,242,o),
(1060,243,cs),
(1060,299,ls),
(1060,300,o),
(1060,300,o),
(1061,300,cs),
(1451,300,l),
(1451,441,l),
(1061,441,ls),
(1060,441,o),
(1060,441,o),
(1060,442,cs),
(1060,497,ls),
(1060,498,o),
(1060,498,o),
(1061,498,cs),
(1466,498,l),
(1466,750,l),
(765,750,l),
(706,766,o),
(638,775,o),
(560,775,cs),
(163,775,o),
(10,585,o),
(10,374,cs),
(10,141,o),
(193,-25,o),
(560,-25,cs)
);
},
{
closed = 1;
nodes = (
(467,294,o),
(435,335,o),
(435,374,cs),
(435,415,o),
(468,456,o),
(561,456,cs),
(605,456,o),
(635,446,o),
(655,432,c),
(655,318,l),
(635,304,o),
(605,294,o),
(561,294,cs)
);
}
);
width = 1484;
},
{
anchors = (
{
name = bottom;
pos = (783,0);
},
{
name = top;
pos = (783,750);
}
);
layerId = "96858A69-C8A6-410B-90BB-94EA0DA45935";
shapes = (
{
closed = 1;
nodes = (
(713,107,o),
(767,158,o),
(846,158,c),
(881,158,o),
(900,115,o),
(933,115,cs),
(1371,115,l),
(1371,120,l),
(1179,120,ls),
(989,120,o),
(965,244,o),
(965,294,cs),
(965,296,ls),
(965,360,o),
(1018,382,o),
(1066,382,cs),
(1327,382,l),
(1327,382,l),
(1066,382,ls),
(1044,382,o),
(965,387,o),
(965,482,cs),
(965,485,ls),
(965,597,o),
(1025,644,o),
(1121,644,cs),
(1275,644,l),
(1275,644,l),
(912,644,ls),
(820,644,o),
(685,651,o),
(602,651,cs),
(259,651,o),
(258,649,o),
(258,472,cs),
(258,201,o),
(-6,107,o),
(551,107,cs)
);
},
{
closed = 1;
nodes = (
(439,113,o),
(324,258,o),
(324,468,cs),
(324,601,o),
(458,646,o),
(602,646,cs),
(749,646,o),
(815,598,o),
(815,429,c),
(815,425,l),
(815,315,o),
(754,113,o),
(577,113,cs)
);
}
);
width = 1473;
}
);
unicode = 338;
},
{
color = 6;
glyphname = P;
kernLeft = H;
kernRight = P;
lastChange = "2021-09-06 15:12:35 +0000";
layers = (
{
anchors = (
{
name = bottom;
pos = (539,0);
},
{
name = top;
pos = (539,750);
}
);
background = {
shapes = (
{
pos = (-56,0);
ref = O;
}
);
};
layerId = "96858A69-C8A6-410B-90BB-94EA0DA45935";
shapes = (
{
closed = 1;
nodes = (
(204,645,l),
(215,601,o),
(219,559,o),
(219,520,cs),
(219,340,o),
(126,214,o),
(138,115,c),
(313,115,l),
(297,170,ls),
(272,255,o),
(326,287,o),
(409,287,cs),
(660,287,ls),
(813,287,o),
(893,379,o),
(893,469,cs),
(893,558,o),
(817,645,o),
(660,645,cs)
);
},
{
closed = 1;
nodes = (
(409,287,ls),
(359,287,o),
(280,344,o),
(280,464,cs),
(280,478,ls),
(280,575,o),
(320,645,o),
(416,645,cs),
(580,645,ls),
(699,645,o),
(749,557,o),
(749,468,cs),
(749,378,o),
(697,287,o),
(614,287,cs)
);
}
);
width = 1002;
},
{
anchors = (
{
name = bottom;
pos = (505,0);
},
{
name = top;
pos = (505,750);
}
);
background = {
shapes = (
{
ref = E;
}
);
};
layerId = "F6D8640C-383C-48A8-B63C-DDE9F10207CE";
name = Regular;
shapes = (
{
closed = 1;
nodes = (
(20,750,l),
(20,679,o),
(20,608,o),
(20,536,cs),
(20,358,o),
(20,179,o),
(20,0,c),
(436,0,l),
(436,126,ls),
(436,127,o),
(437,128,o),
(438,128,cs),
(653,128,ls),
(896,128,o),
(1022,276,o),
(1022,443,cs),
(1022,601,o),
(901,750,o),
(653,750,cs)
);
},
{
closed = 1;
nodes = (
(438,345,ls),
(437,345,o),
(436,346,o),
(436,346,cs),
(436,483,ls),
(436,484,o),
(437,485,o),
(438,485,cs),
(530,485,ls),
(591,485,o),
(621,451,o),
(621,416,cs),
(621,381,o),
(590,345,o),
(530,345,cs)
);
}
);
visible = 1;
width = 1030;
}
);
unicode = 80;
},
{
color = 6;
glyphname = Thorn;
kernLeft = H;
kernRight = Thorn;
lastChange = "2021-09-06 15:12:35 +0000";
layers = (
{
background = {
anchors = (
{
name = bottom;
pos = (504,-64);
},
{
name = top;
pos = (504,686);
}
);
};
layerId = "F6D8640C-383C-48A8-B63C-DDE9F10207CE";
name = Regular;
shapes = (
{
closed = 1;
nodes = (
(436,0,l),
(436,82,l),
(436,83,o),
(437,84,o),
(438,84,cs),
(654,84,ls),
(894,84,o),
(1021,220,o),
(1021,383,cs),
(1021,549,o),
(894,686,o),
(654,686,cs),
(566,686,o),
(506,686,o),
(438,686,cs),
(438,686,o),
(438,707,o),
(438,719,cs),
(438,729,o),
(438,740,o),
(438,750,c),
(20,750,l),
(20,660,o),
(20,571,o),
(20,483,cs),
(20,304,o),
(20,136,o),
(20,0,c)
);
},
{
closed = 1;
nodes = (
(436,287,o),
(435,288,o),
(435,289,cs),
(435,427,ls),
(435,428,o),
(436,429,o),
(437,429,cs),
(530,429,ls),
(591,429,o),
(620,397,o),
(620,360,cs),
(620,321,o),
(590,287,o),
(530,287,cs),
(437,287,ls)
);
}
);
width = 1029;
},
{
background = {
shapes = (
{
pos = (-13,-67);
ref = P;
}
);
};
layerId = "96858A69-C8A6-410B-90BB-94EA0DA45935";
name = "2050";
shapes = (
{
closed = 1;
nodes = (
(306,115,l),
(300,136,ls),
(281,202,o),
(317,224,o),
(396,224,cs),
(647,224,ls),
(800,224,o),
(880,316,o),
(880,402,cs),
(880,487,o),
(804,574,o),
(647,574,cs),
(567,574,o),
(492,574,o),
(408,574,cs),
(345,574,o),
(314,587,o),
(314,616,cs),
(314,624,o),
(318,634,o),
(327,645,c),
(183,645,l),
(199,582,o),
(205,527,o),
(205,479,cs),
(205,298,o),
(120,210,o),
(131,115,c)
);
},
{
closed = 1;
nodes = (
(349,224,o),
(268,286,o),
(268,410,cs),
(268,420,ls),
(268,521,o),
(311,574,o),
(403,574,cs),
(567,574,ls),
(686,574,o),
(736,486,o),
(736,401,cs),
(736,315,o),
(684,224,o),
(601,224,cs),
(396,224,ls)
);
}
);
width = 989;
}
);
metricRight = P;
unicode = 222;
},
{
color = 6;
glyphname = Q;
kernLeft = O;
kernRight = Q;
lastChange = "2021-09-06 15:12:36 +0000";
layers = (
{
anchors = (
{
name = bottom;
pos = (559,0);
},
{
name = top;
pos = (559,750);
}
);
layerId = "F6D8640C-383C-48A8-B63C-DDE9F10207CE";
shapes = (
{
closed = 1;
nodes = (
(927,115,o),
(1103,210,o),
(1103,406,cs),
(1103,652,o),
(868,780,o),
(557,780,cs),
(193,780,o),
(10,612,o),
(10,376,cs),
(10,144,o),
(171,16,o),
(421,-15,c),
(422,-15,o),
(422,-16,o),
(422,-17,c),
(413,-54,o),
(405,-79,o),
(397,-110,c),
(1028,-140,l),
(1091,129,l),
(695,84,l),
(695,84,o),
(695,86,o),
(695,87,cs),
(695,88,o),
(695,89,o),
(695,89,c)
);
},
{
closed = 1;
nodes = (
(652,462,o),
(685,417,o),
(685,374,cs),
(685,336,o),
(654,290,o),
(561,290,cs),
(467,290,o),
(435,333,o),
(435,375,cs),
(435,418,o),
(468,462,o),
(561,462,cs)
);
}
);
width = 1113;
},
{
anchors = (
{
name = bottom;
pos = (567,0);
},
{
name = top;
pos = (567,750);
}
);
layerId = "96858A69-C8A6-410B-90BB-94EA0DA45935";
name = "2050";
shapes = (
{
closed = 1;
nodes = (
(852,241,o),
(957,285,o),
(957,400,cs),
(957,553,o),
(819,664,o),
(578,664,cs),
(308,664,o),
(53,534,o),
(181,427,cs),
(343,291,o),
(358,105,o),
(530,105,cs),
(561,105,o),
(574,102,o),
(574,87,cs),
(574,64,o),
(555,18,o),
(543,-1,c),
(874,-11,l),
(875,-6,l),
(749,0,ls),
(655,4,o),
(618,53,o),
(618,95,cs),
(618,139,o),
(639,173,o),
(711,196,cs)
);
},
{
closed = 1;
nodes = (
(671,659,o),
(813,634,o),
(813,418,cs),
(813,314,o),
(778,182,o),
(614,182,cs),
(483,182,o),
(288,291,o),
(288,495,cs),
(288,619,o),
(418,659,o),
(578,659,cs)
);
}
);
width = 1110;
}
);
unicode = 81;
},
{
color = 6;
glyphname = R;
kernLeft = H;
kernRight = R;
lastChange = "2021-09-06 15:12:36 +0000";
layers = (
{
anchors = (
{
name = bottom;
pos = (526,0);
},
{
name = top;
pos = (526,750);
}
);
layerId = "F6D8640C-383C-48A8-B63C-DDE9F10207CE";
shapes = (
{
closed = 1;
nodes = (
(20,671,o),
(20,593,o),
(20,514,cs),
(20,343,o),
(20,171,o),
(20,0,c),
(435,0,l),
(435,65,o),
(435,159,o),
(435,225,cs),
(435,271,o),
(435,304,o),
(435,305,c),
(435,300,o),
(435,313,o),
(435,444,c),
(435,445,o),
(436,446,o),
(437,446,cs),
(551,446,ls),
(605,446,o),
(632,411,o),
(632,376,cs),
(632,341,o),
(605,306,o),
(551,306,cs),
(435,306,l),
(474,204,o),
(513,102,o),
(552,0,c),
(1027,0,l),
(873,297,l),
(646,297,ls),
(646,297,o),
(646,299,o),
(646,299,c),
(646,299,o),
(646,301,o),
(646,301,cs),
(656,301,o),
(712,301,o),
(720,301,cs),
(910,301,o),
(1005,418,o),
(1005,533,cs),
(1005,643,o),
(918,750,o),
(743,750,cs),
(20,750,l)
);
}
);
width = 1030;
},
{
anchors = (
{
name = bottom;
pos = (515,0);
},
{
name = top;
pos = (515,750);
}
);
layerId = "96858A69-C8A6-410B-90BB-94EA0DA45935";
shapes = (
{
closed = 1;
nodes = (
(187,606,o),
(195,557,o),
(195,505,cs),
(195,355,o),
(133,176,o),
(147,115,c),
(284,115,l),
(271,151,o),
(265,181,o),
(265,205,cs),
(265,287,o),
(331,306,o),
(393,306,c),
(295,306,o),
(245,406,o),
(245,482,cs),
(245,562,o),
(301,645,o),
(414,645,cs),
(613,645,ls),
(686,645,o),
(776,584,o),
(776,475,cs),
(776,365,o),
(690,306,o),
(651,306,cs),
(473,306,l),
(577,287,o),
(592,204,o),
(597,115,c),
(889,115,l),
(848,203,l),
(677,203,ls),
(623,203,o),
(559,220,o),
(559,278,cs),
(559,301,o),
(579,306,o),
(591,306,cs),
(602,306,o),
(652,306,o),
(658,306,cs),
(805,306,o),
(890,388,o),
(890,490,cs),
(890,569,o),
(820,645,o),
(700,645,cs),
(167,645,l)
);
}
);
width = 1039;
}
);
unicode = 82;
},
{
color = 6;
glyphname = S;
kernLeft = S;
kernRight = S;
lastChange = "2021-09-06 15:12:36 +0000";
layers = (
{
anchors = (
{
name = bottom;
pos = (541,0);
},
{
name = top;
pos = (541,750);
}
);
layerId = "F6D8640C-383C-48A8-B63C-DDE9F10207CE";
name = Regular;
shapes = (
{
closed = 1;
nodes = (
(533,452,o),
(525,452,o),
(517,452,cs),
(463,452,o),
(441,460,o),
(441,485,cs),
(441,512,o),
(476,533,o),
(529,533,cs),
(593,533,o),
(646,508,o),
(625,450,c),
(1038,469,l),
(1078,658,o),
(871,780,o),
(544,780,cs),
(254,780,o),
(12,689,o),
(12,519,cs),
(12,392,o),
(123,308,o),
(518,307,cs),
(525,307,o),
(536,307,o),
(543,307,cs),
(605,307,o),
(639,301,o),
(639,269,cs),
(639,236,o),
(598,220,o),
(546,220,cs),
(479,220,o),
(426,250,o),
(442,310,c),
(15,281,l),
(-5,62,o),
(213,-30,o),
(539,-30,cs),
(832,-30,o),
(1066,59,o),
(1066,228,cs),
(1066,383,o),
(941,452,o),
(542,452,cs)
);
}
);
width = 1078;
},
{
anchors = (
{
name = bottom;
pos = (537,0);
},
{
name = top;
pos = (517,750);
}
);
background = {
shapes = (
{
ref = C;
}
);
};
layerId = "96858A69-C8A6-410B-90BB-94EA0DA45935";
name = "2050";
shapes = (
{
closed = 1;
nodes = (
(654,358,o),
(403,358,o),
(395,358,cs),
(320,358,o),
(290,417,o),
(290,456,cs),
(290,579,o),
(470,644,o),
(579,644,cs),
(666,644,o),
(677,589,o),
(674,517,c),
(857,553,l),
(744,621,o),
(614,681,o),
(446,659,cs),
(369,649,o),
(430,567,o),
(154,479,cs),
(91,459,o),
(189,358,o),
(384,358,cs),
(434,358,o),
(647,358,o),
(654,358,cs),
(724,358,o),
(753,324,o),
(753,260,cs),
(753,211,o),
(695,107,o),
(546,107,cs),
(434,107,o),
(373,177,o),
(353,206,c),
(150,158,l),
(196,118,o),
(389,102,o),
(545,102,cs),
(722,102,o),
(923,138,o),
(923,234,cs),
(923,305,o),
(831,358,o),
(664,358,cs)
);
}
);
width = 1028;
}
);
unicode = 83;
},
{
color = 6;
glyphname = Germandbls;
kernLeft = Germandbls;
kernRight = Germandbls;
lastChange = "2021-09-06 15:12:36 +0000";
layers = (
{
layerId = "F6D8640C-383C-48A8-B63C-DDE9F10207CE";
name = Regular;
shapes = (
{
closed = 1;
nodes = (
(918,-16,o),
(1058,109,o),
(1058,252,cs),
(1058,358,o),
(1004,432,o),
(882,474,cs),
(882,474,o),
(992,652,o),
(1051,750,c),
(438,750,l),
(159,750,o),
(20,620,o),
(20,429,cs),
(20,387,o),
(20,350,o),
(20,306,cs),
(20,238,o),
(20,151,o),
(20,0,c),
(418,0,l),
(418,145,o),
(418,261,o),
(418,405,cs),
(418,486,o),
(465,512,o),
(556,512,cs),
(592,512,l),
(560,459,o),
(529,405,o),
(497,352,c),
(588,352,ls),
(646,352,o),
(676,336,o),
(676,307,cs),
(676,278,o),
(643,259,o),
(594,259,cs),
(532,259,o),
(491,276,o),
(476,314,c),
(476,21,l),
(517,-1,o),
(566,-16,o),
(667,-16,cs)
);
}
);
width = 1068;
},
{
layerId = "96858A69-C8A6-410B-90BB-94EA0DA45935";
name = "2050";
shapes = (
{
closed = 1;
nodes = (
(891,103,o),
(993,147,o),
(993,238,cs),
(993,373,o),
(780,317,o),
(780,446,cs),
(780,499,o),
(848,606,o),
(934,645,c),
(494,645,l),
(294,645,o),
(203,607,o),
(203,505,cs),
(203,435,o),
(280,388,o),
(280,312,cs),
(280,257,o),
(161,213,o),
(161,115,c),
(356,115,l),
(331,198,o),
(324,322,o),
(324,420,cs),
(324,553,o),
(369,645,o),
(515,645,cs),
(752,645,l),
(876,538,o),
(735,417,o),
(661,393,c),
(673,393,ls),
(769,393,o),
(850,356,o),
(850,267,cs),
(850,204,o),
(814,108,o),
(752,108,cs),
(705,108,o),
(683,141,o),
(652,193,c),
(552,124,l),
(603,110,o),
(688,103,o),
(752,103,cs)
);
}
);
width = 1144;
}
);
unicode = 7838;
},
{
color = 6;
glyphname = Schwa;
kernLeft = O;
kernRight = O;
lastChange = "2021-09-06 15:12:36 +0000";
layers = (
{
background = {
shapes = (
{
angle = 180;
pos = (1094,750);
ref = C;
}
);
};
layerId = "F6D8640C-383C-48A8-B63C-DDE9F10207CE";
name = Regular;
shapes = (
{
closed = 1;
nodes = (
(602,463,o),
(659,441,o),
(660,397,cs),
(660,396,o),
(660,396,o),
(659,396,cs),
(5,396,l),
(5,107,o),
(226,-30,o),
(522,-30,cs),
(829,-30,o),
(1076,105,o),
(1076,375,cs),
(1076,646,o),
(830,780,o),
(522,780,cs),
(279,780,o),
(58,663,o),
(16,513,c),
(384,396,l),
(387,443,o),
(441,463,o),
(520,463,cs)
);
},
{
closed = 1;
nodes = (
(451,279,o),
(387,302,o),
(387,344,cs),
(387,345,o),
(387,346,o),
(388,346,cs),
(657,346,ls),
(659,346,o),
(659,346,o),
(659,344,cs),
(659,302,o),
(594,279,o),
(522,279,cs)
);
}
);
width = 1086;
},
{
layerId = "96858A69-C8A6-410B-90BB-94EA0DA45935";
name = "2050";
shapes = (
{
closed = 1;
nodes = (
(627,654,o),
(702,591,o),
(702,469,cs),
(702,424,o),
(701,380,o),
(598,380,cs),
(171,380,l),
(175,283,o),
(256,95,o),
(528,95,cs),
(718,95,o),
(799,148,o),
(842,308,cs),
(903,508,o),
(734,660,o),
(542,660,cs),
(436,660,o),
(333,608,o),
(304,587,c),
(310,581,l),
(350,612,o),
(444,654,o),
(538,654,cs)
);
},
{
closed = 1;
nodes = (
(338,100,o),
(323,249,o),
(323,301,cs),
(323,341,o),
(344,380,o),
(359,380,cs),
(597,380,ls),
(612,380,o),
(732,371,o),
(732,277,cs),
(732,152,o),
(665,100,o),
(545,100,cs)
);
}
);
width = 1034;
}
);
unicode = 399;
},
{
color = 6;
glyphname = T;
kernLeft = T;
kernRight = T;
lastChange = "2021-09-04 09:14:54 +0000";
layers = (
{
anchors = (
{
name = bottom;
pos = (464,0);
},
{
name = center;
pos = (464,375);
},
{
name = top;
pos = (464,750);
}
);
layerId = "F6D8640C-383C-48A8-B63C-DDE9F10207CE";
shapes = (
{
closed = 1;
nodes = (
(13,750,l),
(13,446,l),
(254,446,ls),
(255,446,o),
(256,445,o),
(256,444,cs),
(256,296,o),
(256,148,o),
(256,0,c),
(671,0,l),
(671,148,o),
(671,296,o),
(671,444,cs),
(671,445,o),
(672,446,o),
(673,446,cs),
(914,446,l),
(914,750,l)
);
}
);
width = 927;
},
{
anchors = (
{
name = bottom;
pos = (440,0);
},
{
name = center;
pos = (440,375);
},
{
name = top;
pos = (440,750);
}
);
background = {
shapes = (
{
closed = 1;
nodes = (
(242,571,l),
(250,571,o),
(258,570,o),
(265,569,c),
(273,567,o),
(279,565,o),
(285,563,c),
(298,558,o),
(308,551,o),
(316,544,c),
(322,539,o),
(328,534,o),
(332,528,c),
(339,520,o),
(344,512,o),
(349,501,c),
(352,495,o),
(354,488,o),
(356,481,c),
(358,473,o),
(359,464,o),
(359,454,c),
(359,125,l),
(544,125,l),
(544,454,l),
(544,463,o),
(545,470,o),
(546,478,c),
(548,485,o),
(550,492,o),
(552,498,c),
(557,510,o),
(564,520,o),
(571,529,c),
(576,535,o),
(581,540,o),
(587,545,c),
(595,551,o),
(603,557,o),
(614,561,c),
(620,564,o),
(627,566,o),
(634,568,c),
(642,570,o),
(651,571,o),
(661,571,c),
(787,571,l),
(787,645,l),
(116,645,l),
(116,571,l)
);
}
);
};
layerId = "96858A69-C8A6-410B-90BB-94EA0DA45935";
shapes = (
{
closed = 1;
nodes = (
(142,645,l),
(142,640,l),
(282,640,ls),
(419,640,o),
(426,500,o),
(426,375,cs),
(426,279,o),
(385,167,o),
(315,115,c),
(520,115,l),
(537,160,o),
(479,367,o),
(479,488,cs),
(479,567,o),
(501,640,o),
(653,640,cs),
(788,640,l),
(788,645,l)
);
}
);
width = 909;
}
);
unicode = 84;
},
{
color = 3;
glyphname = Tbar;
kernLeft = T;
kernRight = T;
lastChange = "2021-09-06 15:12:36 +0000";
layers = (
{
background = {
anchors = (
{
name = bottom;
pos = (461,0);
},
{
name = center;
pos = (461,375);
},
{
name = top;
pos = (461,750);
}
);
};
layerId = "F6D8640C-383C-48A8-B63C-DDE9F10207CE";
shapes = (
{
closed = 1;
nodes = (
(785,229,l),
(785,317,l),
(140,317,l),
(140,229,l)
);
},
{
ref = T;
}
);
width = 925;
},
{
layerId = "96858A69-C8A6-410B-90BB-94EA0DA45935";
shapes = (
{
closed = 1;
nodes = (
(637,327,l),
(637,333,l),
(277,333,l),
(277,327,l)
);
},
{
ref = T;
}
);
width = 909;
}
);
unicode = 358;
},
{
color = 6;
glyphname = U;
kernLeft = U;
kernRight = U;
lastChange = "2021-09-06 15:12:36 +0000";
layers = (
{
anchors = (
{
name = bottom;
pos = (504,0);
},
{
name = ogonek;
pos = (732,0);
},
{
name = top;
pos = (504,750);
},
{
name = topright;
pos = (981,750);
}
);
background = {
shapes = (
{
pos = (-46,0);
ref = O;
}
);
};
layerId = "F6D8640C-383C-48A8-B63C-DDE9F10207CE";
shapes = (
{
closed = 1;
nodes = (
(435,750,l),
(435,604,o),
(435,482,o),
(435,356,cs),
(435,316,o),
(473,296,o),
(510,296,cs),
(548,296,o),
(585,316,o),
(585,355,cs),
(585,482,o),
(585,603,o),
(585,750,c),
(1000,750,l),
(1000,598,o),
(1000,429,o),
(1000,277,cs),
(1000,72,o),
(755,-30,o),
(510,-30,cs),
(265,-30,o),
(20,72,o),
(20,277,cs),
(20,328,o),
(20,382,o),
(20,436,cs),
(20,541,o),
(20,649,o),
(20,750,c)
);
}
);
width = 1020;
},
{
anchors = (
{
name = bottom;
pos = (491,0);
},
{
name = ogonek;
pos = (672,115);
},
{
name = top;
pos = (491,750);
},
{
name = topright;
pos = (930,750);
}
);
layerId = "96858A69-C8A6-410B-90BB-94EA0DA45935";
name = "2050";
shapes = (
{
closed = 1;
nodes = (
(279,645,l),
(264,596,o),
(255,539,o),
(255,496,cs),
(255,237,o),
(438,151,o),
(617,151,cs),
(721,151,o),
(779,195,o),
(779,295,cs),
(779,402,o),
(667,549,o),
(652,645,c),
(825,645,l),
(800,545,o),
(799,485,o),
(805,376,cs),
(816,170,o),
(659,95,o),
(496,95,cs),
(323,95,o),
(107,166,o),
(222,323,cs),
(245,355,o),
(254,389,o),
(254,423,cs),
(254,511,o),
(197,599,o),
(197,645,c)
);
}
);
width = 979;
}
);
unicode = 85;
},
{
color = 6;
glyphname = Uogonek;
kernLeft = U;
kernRight = U;
lastChange = "2021-09-06 15:12:36 +0000";
layers = (
{
background = {
shapes = (
{
ref = U;
}
);
};
layerId = "F6D8640C-383C-48A8-B63C-DDE9F10207CE";
name = Regular;
shapes = (
{
closed = 1;
nodes = (
(663,-302,o),
(707,-294,o),
(762,-279,c),
(762,-83,l),
(732,-95,o),
(709,-99,o),
(679,-99,cs),
(637,-99,o),
(613,-86,o),
(613,-64,cs),
(613,-35,o),
(654,-22,o),
(752,7,cs),
(841,33,o),
(1000,110,o),
(1000,277,cs),
(1000,429,o),
(1000,598,o),
(1000,750,c),
(585,750,l),
(585,603,o),
(585,482,o),
(585,355,cs),
(585,316,o),
(548,296,o),
(510,296,cs),
(473,296,o),
(435,316,o),
(435,356,cs),
(435,482,o),
(435,604,o),
(435,750,c),
(20,750,l),
(20,661,o),
(20,567,o),
(20,473,cs),
(20,407,o),
(20,340,o),
(20,277,cs),
(20,105,o),
(191,7,o),
(391,-22,c),
(360,-52,o),
(344,-90,o),
(344,-134,cs),
(344,-241,o),
(429,-302,o),
(600,-302,cs)
);
}
);
width = 1020;
},
{
background = {
shapes = (
{
pos = (10,0);
ref = U;
}
);
};
layerId = "96858A69-C8A6-410B-90BB-94EA0DA45935";
name = "2050";
shapes = (
{
closed = 1;
nodes = (
(600,-104,o),
(646,-76,o),
(674,-33,c),
(674,-32,l),
(669,-33,o),
(664,-33,o),
(659,-33,cs),
(621,-33,o),
(591,-9,o),
(591,32,cs),
(591,66,o),
(603,104,o),
(683,138,cs),
(784,181,o),
(837,231,o),
(829,376,cs),
(823,485,o),
(824,545,o),
(849,645,c),
(676,645,l),
(691,549,o),
(803,407,o),
(803,300,cs),
(803,200,o),
(752,156,o),
(641,156,cs),
(462,156,o),
(281,247,o),
(281,506,cs),
(281,549,o),
(288,596,o),
(303,645,c),
(195,645,l),
(249,569,o),
(277,514,o),
(277,460,cs),
(277,416,o),
(258,375,o),
(220,323,cs),
(105,166,o),
(347,102,o),
(511,102,c),
(737,102,o),
(460,55,o),
(460,-44,cs),
(460,-76,o),
(489,-104,o),
(545,-104,cs)
);
}
);
width = 1003;
}
);
metricLeft = U;
metricRight = U;
unicode = 370;
},
{
color = 6;
glyphname = V;
kernLeft = V;
kernRight = V;
lastChange = "2021-09-06 15:12:36 +0000";
layers = (
{
anchors = (
{
name = bottom;
pos = (518,0);
},
{
name = top;
pos = (518,750);
}
);
layerId = "F6D8640C-383C-48A8-B63C-DDE9F10207CE";
shapes = (
{
closed = 1;
nodes = (
(596,750,l),
(571,595,o),
(547,439,o),
(522,284,c),
(521,284,o),
(521,284,o),
(520,284,c),
(495,439,o),
(471,595,o),
(446,750,c),
(0,750,l),
(75,500,o),
(149,250,o),
(224,0,c),
(803,0,l),
(878,250,o),
(953,500,o),
(1028,750,c)
);
}
);
width = 1028;
},
{
anchors = (
{
name = bottom;
pos = (592,0);
},
{
name = top;
pos = (592,750);
}
);
background = {
shapes = (
{
closed = 1;
nodes = (
(702,245,o),
(700,239,o),
(698,233,c),
(694,221,o),
(688,210,o),
(682,201,c),
(677,195,o),
(673,190,o),
(668,186,c),
(662,180,o),
(657,176,o),
(651,172,c),
(644,167,o),
(637,164,o),
(631,162,c),
(623,158,o),
(616,156,o),
(609,155,c),
(601,153,o),
(593,153,o),
(585,153,c),
(579,153,o),
(574,153,o),
(567,154,c),
(561,155,o),
(555,156,o),
(547,159,c),
(542,160,o),
(537,163,o),
(531,166,c),
(523,170,o),
(514,175,o),
(504,184,c),
(499,189,o),
(493,195,o),
(488,202,c),
(482,210,o),
(477,220,o),
(473,231,c),
(471,237,o),
(469,244,o),
(468,251,c),
(402,635,l),
(157,635,l),
(161,621,o),
(166,606,o),
(171,591,c),
(206,481,o),
(250,344,o),
(285,233,c),
(299,188,o),
(312,147,o),
(323,115,c),
(829,115,l),
(839,145,o),
(851,182,o),
(864,223,c),
(898,331,o),
(941,466,o),
(976,577,c),
(982,597,o),
(988,617,o),
(994,635,c),
(768,635,l),
(703,252,l)
);
}
);
};
layerId = "96858A69-C8A6-410B-90BB-94EA0DA45935";
shapes = (
{
closed = 1;
nodes = (
(864,645,l),
(870,566,o),
(862,115,o),
(636,115,cs),
(607,115,o),
(623,115,o),
(610,115,cs),
(365,115,o),
(336,520,o),
(336,645,c),
(173,645,l),
(251,488,o),
(335,278,o),
(350,115,c),
(823,115,l),
(794,382,o),
(983,609,o),
(993,645,c)
);
}
);
width = 1143;
}
);
unicode = 86;
},
{
color = 6;
glyphname = W;
kernLeft = W;
kernRight = W;
lastChange = "2021-09-06 15:12:36 +0000";
layers = (
{
anchors = (
{
name = bottom;
pos = (687,0);
},
{
name = top;
pos = (687,750);
}
);
layerId = "96858A69-C8A6-410B-90BB-94EA0DA45935";
shapes = (
{
closed = 1;
nodes = (
(1088,579,o),
(1118,496,o),
(1122,394,cs),
(1132,140,o),
(844,196,o),
(833,261,cs),
(767,645,l),
(618,645,l),
(539,250,ls),
(531,212,o),
(409,159,o),
(344,271,cs),
(299,348,o),
(266,522,o),
(305,645,c),
(202,645,l),
(212,555,o),
(360,314,o),
(335,115,c),
(512,115,l),
(585,480,ls),
(607,589,o),
(778,580,o),
(795,482,cs),
(858,115,l),
(1138,115,l),
(1138,349,o),
(1239,471,o),
(1260,645,c),
(1056,645,l)
);
}
);
width = 1407;
},
{
anchors = (
{
name = bottom;
pos = (692,0);
},
{
name = top;
pos = (692,750);
}
);
background = {
anchors = (
{
name = bottom;
pos = (657.759,0);
},
{
name = top;
pos = (657.759,750);
}
);
};
layerId = "F6D8640C-383C-48A8-B63C-DDE9F10207CE";
name = Regular;
shapes = (
{
closed = 1;
nodes = (
(955,613,o),
(934,477,o),
(914,340,c),
(914,340,o),
(912,340,o),
(912,340,cs),
(853,750,l),
(552,750,l),
(496,340,ls),
(496,340,o),
(492,340,o),
(491,340,c),
(471,477,o),
(450,613,o),
(430,750,c),
(4,750,l),
(65,500,o),
(126,250,o),
(186,0,c),
(620,0,l),
(679,376,ls),
(679,379,o),
(682,378,o),
(682,376,cs),
(742,0,l),
(1207,0,l),
(1264,250,o),
(1322,500,o),
(1380,750,c),
(975,750,l)
);
}
);
width = 1384;
}
);
unicode = 87;
},
{
color = 6;
glyphname = X;
kernLeft = X;
kernRight = X;
lastChange = "2021-09-06 15:12:36 +0000";
layers = (
{
anchors = (
{
name = bottom;
pos = (504,0);
},
{
name = top;
pos = (504,750);
}
);
layerId = "F6D8640C-383C-48A8-B63C-DDE9F10207CE";
shapes = (
{
closed = 1;
nodes = (
(524,377,o),
(523,378,o),
(523,380,cs),
(454,750,l),
(4,750,l),
(56,628,o),
(98,506,o),
(150,384,c),
(150,383,o),
(150,383,o),
(150,382,c),
(98,255,o),
(56,127,o),
(4,0,c),
(439,0,l),
(523,371,ls),
(523,372,o),
(524,374,o),
(524,375,c)
);
},
{
closed = 1;
nodes = (
(492,321,o),
(493,319,o),
(493,318,c),
(564,0,l),
(1016,0,l),
(965,122,o),
(923,244,o),
(872,366,c),
(872,367,o),
(872,367,o),
(872,368,c),
(922,495,o),
(963,623,o),
(1013,750,c),
(579,750,l),
(550,609,o),
(522,467,o),
(493,326,c),
(493,325,o),
(492,323,o),
(492,322,c)
);
}
);
width = 1020;
},
{
anchors = (
{
name = bottom;
pos = (561,0);
},
{
name = top;
pos = (561,750);
}
);
background = {
shapes = (
{
closed = 1;
nodes = (
(938,645,l),
(703,645,l),
(656,420,l),
(653,401,o),
(644,384,o),
(633,370,c),
(645,358,o),
(654,342,o),
(659,324,c),
(719,125,l),
(938,125,l),
(842,328,l),
(828,358,o),
(827,393,o),
(841,424,c)
);
},
{
closed = 1;
nodes = (
(183,645,l),
(266,438,l),
(277,410,o),
(277,379,o),
(265,351,c),
(171,125,l),
(392,125,l),
(437,318,l),
(441,335,o),
(449,351,o),
(460,365,c),
(446,380,o),
(436,399,o),
(431,421,c),
(386,645,l)
);
}
);
};
guides = (
{
locked = 1;
pos = (818,372);
}
);
layerId = "96858A69-C8A6-410B-90BB-94EA0DA45935";
shapes = (
{
closed = 1;
nodes = (
(444,372,o),
(413,396,o),
(408,444,cs),
(386,645,l),
(213,645,l),
(274,584,o),
(308,551,o),
(348,506,cs),
(446,394,o),
(368,324,o),
(321,269,cs),
(253,188,o),
(223,153,o),
(177,115,c),
(371,115,l),
(383,180,ls),
(402,281,o),
(420,372,o),
(479,372,c)
);
},
{
closed = 1;
nodes = (
(680,372,o),
(684,340,o),
(695,218,cs),
(704,115,l),
(950,115,l),
(929,123,o),
(817,243,o),
(793,266,cs),
(736,320,o),
(706,372,o),
(758,444,cs),
(798,499,o),
(847,568,o),
(896,645,c),
(711,645,l),
(711,553,o),
(725,502,o),
(710,454,cs),
(692,396,o),
(630,372,o),
(597,372,c)
);
}
);
width = 1122;
}
);
unicode = 88;
},
{
color = 6;
glyphname = Y;
kernLeft = Y;
kernRight = Y;
lastChange = "2021-09-06 15:12:36 +0000";
layers = (
{
anchors = (
{
name = bottom;
pos = (557,0);
},
{
name = top;
pos = (557,750);
},
{
name = topleft;
pos = (18,750);
}
);
layerId = "F6D8640C-383C-48A8-B63C-DDE9F10207CE";
shapes = (
{
closed = 1;
nodes = (
(610,654,o),
(583,558,o),
(556,462,c),
(556,461,o),
(554,461,o),
(554,462,c),
(529,558,o),
(503,654,o),
(478,750,c),
(-2,750,l),
(114,550,o),
(229,351,o),
(345,151,c),
(345,151,o),
(345,151,o),
(345,151,cs),
(345,0,l),
(760,0,l),
(760,150,ls),
(760,150,o),
(760,150,o),
(760,150,c),
(870,350,o),
(981,550,o),
(1091,750,c),
(637,750,l)
);
}
);
width = 1089;
},
{
anchors = (
{
name = bottom;
pos = (540,0);
},
{
name = top;
pos = (540,750);
},
{
name = topleft;
pos = (13,750);
}
);
background = {
shapes = (
{
closed = 1;
nodes = (
(519,244,o),
(484,262,o),
(462,291,c),
(452,305,o),
(444,321,o),
(441,339,c),
(375,645,l),
(193,645,l),
(429,216,l),
(438,199,o),
(443,179,o),
(443,159,c),
(442,125,l),
(661,125,l),
(661,161,l),
(661,179,o),
(665,198,o),
(674,214,c),
(900,645,l),
(739,645,l),
(669,338,l),
(658,285,o),
(611,244,o),
(555,244,c)
);
}
);
};
layerId = "96858A69-C8A6-410B-90BB-94EA0DA45935";
shapes = (
{
closed = 1;
nodes = (
(755,525,o),
(726,364,o),
(682,310,cs),
(609,221,o),
(490,248,o),
(452,344,cs),
(415,438,o),
(438,557,o),
(438,645,c),
(256,645,l),
(316,516,o),
(347,511,o),
(419,320,cs),
(439,267,o),
(445,222,o),
(445,186,cs),
(445,115,l),
(654,115,l),
(654,126,ls),
(654,183,o),
(655,242,o),
(686,301,cs),
(752,426,o),
(827,520,o),
(853,645,c),
(702,645,l)
);
}
);
width = 1083;
}
);
unicode = 89;
},
{
color = 6;
glyphname = Yhook;
kernLeft = Y;
kernRight = Yhook;
lastChange = "2021-09-06 15:12:36 +0000";
layers = (
{
anchors = (
{
name = bottom;
pos = (540,0);
},
{
name = top;
pos = (540,750);
},
{
name = topleft;
pos = (13,750);
}
);
layerId = "96858A69-C8A6-410B-90BB-94EA0DA45935";
shapes = (
{
closed = 1;
nodes = (
(654,115,l),
(654,126,ls),
(654,183,o),
(655,242,o),
(686,301,cs),
(752,426,o),
(796,508,o),
(815,535,cs),
(839,569,o),
(869,577,o),
(895,571,c),
(895,666,l),
(891,666,o),
(888,666,o),
(884,666,cs),
(758,659,o),
(731,590,o),
(731,497,cs),
(731,417,o),
(709,343,o),
(682,310,cs),
(609,221,o),
(490,248,o),
(452,344,cs),
(415,438,o),
(438,557,o),
(438,645,c),
(256,645,l),
(316,516,o),
(347,511,o),
(419,320,cs),
(439,267,o),
(445,222,o),
(445,186,cs),
(445,115,l)
);
}
);
width = 1083;
},
{
anchors = (
{
name = bottom;
pos = (557,0);
},
{
name = top;
pos = (557,750);
},
{
name = topleft;
pos = (18,750);
}
);
layerId = "F6D8640C-383C-48A8-B63C-DDE9F10207CE";
name = Regular;
shapes = (
{
closed = 1;
nodes = (
(760,0,l),
(760,150,ls),
(760,150,o),
(760,150,o),
(760,150,c),
(826,270,o),
(894,388,o),
(926,449,cs),
(954,503,o),
(985,536,o),
(1060,512,c),
(1060,750,l),
(1017,763,o),
(949,776,o),
(856,776,cs),
(740,776,o),
(646,733,o),
(613,637,cs),
(595,583,o),
(576,523,o),
(556,462,c),
(556,461,o),
(554,461,o),
(554,462,c),
(529,558,o),
(503,654,o),
(478,750,c),
(-2,750,l),
(114,550,o),
(229,351,o),
(345,151,c),
(345,151,o),
(345,151,o),
(345,151,cs),
(345,0,l)
);
}
);
width = 1089;
}
);
unicode = 435;
},
{
color = 6;
glyphname = Z;
kernLeft = Z;
kernRight = Z;
lastChange = "2021-09-06 15:12:36 +0000";
layers = (
{
anchors = (
{
name = bottom;
pos = (447,0);
},
{
name = center;
pos = (447,375);
},
{
name = top;
pos = (447,750);
}
);
background = {
anchors = (
{
name = bottom;
pos = (446.048,0);
},
{
name = center;
pos = (446.048,375);
},
{
name = top;
pos = (446.048,750);
}
);
};
layerId = "F6D8640C-383C-48A8-B63C-DDE9F10207CE";
shapes = (
{
closed = 1;
nodes = (
(16,750,l),
(16,452,l),
(333,452,ls),
(334,452,o),
(334,451,o),
(334,451,c),
(-13,0,l),
(886,0,l),
(886,299,l),
(595,299,ls),
(594,299,o),
(593,299,o),
(594,300,c),
(910,750,l)
);
}
);
width = 902;
},
{
anchors = (
{
name = bottom;
pos = (452,0);
},
{
name = center;
pos = (452,375);
},
{
name = top;
pos = (452,750);
}
);
background = {
shapes = (
{
closed = 1;
nodes = (
(328,575,l),
(372,575,o),
(412,550,o),
(431,511,c),
(451,471,o),
(446,424,o),
(419,390,c),
(214,125,l),
(747,125,l),
(747,196,l),
(586,196,l),
(543,196,o),
(504,220,o),
(484,258,c),
(464,296,o),
(467,342,o),
(492,377,c),
(681,645,l),
(130,645,l),
(130,575,l)
);
}
);
};
layerId = "96858A69-C8A6-410B-90BB-94EA0DA45935";
shapes = (
{
closed = 1;
nodes = (
(142,645,l),
(142,575,l),
(451,575,ls),
(507,575,o),
(551,507,o),
(504,449,c),
(247,115,l),
(759,115,l),
(759,196,l),
(444,196,ls),
(368,196,o),
(353,257,o),
(397,310,c),
(655,645,l)
);
}
);
width = 902;
}
);
unicode = 90;
},
{
color = 6;
glyphname = a;
kernLeft = a;
kernRight = a;
lastChange = "2021-09-06 15:12:36 +0000";
layers = (
{
anchors = (
{
name = bottom;
pos = (422,0);
},
{
name = ogonek;
pos = (678,115);
},
{
name = top;
pos = (422,620);
}
);
layerId = "96858A69-C8A6-410B-90BB-94EA0DA45935";
name = "2050";
shapes = (
{
closed = 1;
nodes = (
(436,515,o),
(437,515,o),
(438,515,cs),
(609,514,o),
(683,440,o),
(683,342,cs),
(683,213,o),
(685,144,o),
(704,115,c),
(607,115,o),
(663,115,o),
(546,115,c),
(554,123,o),
(570,141,o),
(570,162,cs),
(570,236,o),
(456,284,o),
(327,284,cs),
(233,284,o),
(192,249,o),
(192,186,cs),
(192,149,o),
(209,123,o),
(225,110,cs),
(234,103,o),
(250,94,o),
(261,94,c),
(259,93,o),
(256,92,o),
(252,91,cs),
(235,87,o),
(218,85,o),
(204,85,cs),
(82,85,o),
(52,217,o),
(140,240,cs),
(310,284,o),
(283,332,o),
(372,332,cs),
(430,332,o),
(496,236,o),
(552,236,cs),
(602,236,o),
(625,288,o),
(625,332,cs),
(625,407,o),
(556,511,o),
(439,511,cs),
(438,511,o),
(437,511,o),
(435,511,c),
(435,515,l)
);
}
);
width = 838;
},
{
anchors = (
{
name = bottom;
pos = (427,0);
},
{
name = ogonek;
pos = (758,10);
},
{
name = top;
pos = (427,620);
}
);
layerId = "F6D8640C-383C-48A8-B63C-DDE9F10207CE";
name = Regular;
shapes = (
{
closed = 1;
nodes = (
(166,628,o),
(284,650,o),
(399,650,cs),
(624,650,o),
(834,564,o),
(834,388,cs),
(834,259,o),
(834,129,o),
(834,0,c),
(717,0,o),
(601,0,o),
(484,0,c),
(484,70,o),
(484,140,o),
(484,210,cs),
(484,246,o),
(442,259,o),
(409,259,cs),
(358,259,o),
(332,235,o),
(332,210,cs),
(332,185,o),
(359,160,o),
(409,160,cs),
(433,160,o),
(469,164,o),
(485,203,c),
(457,138,o),
(428,72,o),
(400,7,c),
(352,-17,o),
(298,-26,o),
(246,-26,cs),
(120,-26,o),
(3,40,o),
(3,167,cs),
(3,264,o),
(83,361,o),
(262,361,cs),
(354,361,o),
(445,330,o),
(484,276,cs),
(484,279,o),
(484,282,o),
(484,285,cs),
(484,368,o),
(395,404,o),
(293,404,cs),
(214,404,o),
(129,383,o),
(69,345,c),
(69,584,l)
);
}
);
width = 853;
}
);
metricRight = n;
unicode = 97;
},
{
color = 6;
glyphname = aogonek;
kernLeft = a;
kernRight = a;
lastChange = "2021-09-06 15:12:36 +0000";
layers = (
{
layerId = "96858A69-C8A6-410B-90BB-94EA0DA45935";
shapes = (
{
closed = 1;
nodes = (
(650,-105,o),
(696,-77,o),
(724,-34,c),
(724,-33,l),
(719,-34,o),
(714,-34,o),
(709,-34,cs),
(664,-34,o),
(614,-4,o),
(614,35,cs),
(614,74,o),
(650,109,o),
(704,115,c),
(685,144,o),
(683,213,o),
(683,342,cs),
(683,440,o),
(609,514,o),
(438,515,cs),
(437,515,o),
(436,515,o),
(435,515,c),
(435,511,l),
(442,511,o),
(438,511,o),
(439,511,cs),
(556,511,o),
(625,407,o),
(625,332,cs),
(625,288,o),
(602,236,o),
(552,236,cs),
(501,236,o),
(430,332,o),
(372,332,cs),
(283,332,o),
(310,284,o),
(140,240,cs),
(52,217,o),
(82,85,o),
(204,85,cs),
(218,85,o),
(235,87,o),
(252,91,cs),
(256,92,o),
(259,93,o),
(261,94,c),
(250,94,o),
(234,103,o),
(225,110,cs),
(209,123,o),
(192,149,o),
(192,186,cs),
(192,249,o),
(233,284,o),
(327,284,cs),
(456,284,o),
(570,236,o),
(570,162,cs),
(570,141,o),
(554,123,o),
(546,115,c),
(743,95,o),
(510,57,o),
(510,-45,cs),
(510,-77,o),
(539,-105,o),
(595,-105,cs)
);
}
);
width = 858;
},
{
background = {
shapes = (
{
ref = a;
}
);
};
layerId = "F6D8640C-383C-48A8-B63C-DDE9F10207CE";
name = Regular;
shapes = (
{
closed = 1;
nodes = (
(735,-308,o),
(779,-300,o),
(834,-285,c),
(834,-89,l),
(804,-101,o),
(781,-105,o),
(751,-105,cs),
(709,-105,o),
(685,-92,o),
(685,-70,cs),
(685,-43,o),
(715,-5,o),
(834,0,c),
(834,129,o),
(834,259,o),
(834,388,cs),
(834,564,o),
(624,650,o),
(399,650,cs),
(284,650,o),
(166,628,o),
(69,584,c),
(69,345,l),
(129,383,o),
(214,404,o),
(293,404,cs),
(395,404,o),
(484,368,o),
(484,285,cs),
(484,282,o),
(484,279,o),
(484,276,cs),
(445,330,o),
(354,361,o),
(262,361,cs),
(83,361,o),
(3,264,o),
(3,167,cs),
(3,40,o),
(120,-26,o),
(246,-26,cs),
(298,-26,o),
(352,-17,o),
(400,7,c),
(428,72,o),
(457,138,o),
(485,203,c),
(469,164,o),
(433,160,o),
(409,160,cs),
(359,160,o),
(332,185,o),
(332,210,cs),
(332,235,o),
(358,259,o),
(409,259,cs),
(442,259,o),
(484,246,o),
(484,210,cs),
(484,140,o),
(484,70,o),
(484,0,c),
(439,-37,o),
(416,-85,o),
(416,-140,cs),
(416,-247,o),
(501,-308,o),
(672,-308,cs)
);
}
);
width = 853;
}
);
metricLeft = a;
metricRight = a;
unicode = 261;
},
{
color = 6;
glyphname = ae;
kernLeft = a;
kernRight = e;
lastChange = "2021-09-06 15:12:36 +0000";
layers = (
{
anchors = (
{
name = bottom;
pos = (682,0);
},
{
name = top;
pos = (682,620);
}
);
background = {
shapes = (
{
closed = 1;
nodes = (
(483,275,l),
(449,200,o),
(326,231,o),
(326,266,cs),
(326,294,o),
(351,307,o),
(426,307,cs),
(512,307,l),
(493,336,l),
(274,336,ls),
(123,336,o),
(3,283,o),
(3,158,cs),
(3,-35,o),
(364,-61,o),
(483,23,c)
);
},
{
pos = (-4,0);
ref = a;
}
);
};
guides = (
{
pos = (928,-30);
}
);
layerId = "F6D8640C-383C-48A8-B63C-DDE9F10207CE";
shapes = (
{
closed = 1;
nodes = (
(1123,-30,o),
(1316,69,o),
(1351,196,c),
(1042,297,l),
(1040,258,o),
(995,233,o),
(930,233,cs),
(862,233,o),
(815,260,o),
(814,296,cs),
(814,297,o),
(814,297,o),
(815,297,cs),
(1360,297,l),
(1360,535,o),
(1179,650,o),
(928,650,cs),
(829,650,o),
(732,630,o),
(653,581,c),
(580,628,o),
(480,650,o),
(375,650,cs),
(270,650,o),
(160,628,o),
(65,584,c),
(65,331,l),
(132,377,o),
(221,401,o),
(299,401,cs),
(398,401,o),
(466,363,o),
(478,310,c),
(478,83,o),
(678,-30,o),
(928,-30,cs)
);
},
{
closed = 1;
nodes = (
(483,275,l),
(449,200,o),
(326,214,o),
(326,266,cs),
(326,294,o),
(351,307,o),
(413,307,cs),
(512,307,l),
(493,338,l),
(274,338,ls),
(123,338,o),
(3,283,o),
(3,158,cs),
(3,32,o),
(126,-25,o),
(294,-25,cs),
(369,-25,o),
(441,-8,o),
(483,23,c)
);
},
{
closed = 1;
nodes = (
(815,328,o),
(815,328,o),
(815,330,cs),
(815,367,o),
(868,390,o),
(928,390,cs),
(987,390,o),
(1040,367,o),
(1040,330,cs),
(1040,329,o),
(1040,328,o),
(1039,328,cs),
(816,328,ls)
);
}
);
width = 1368;
},
{
anchors = (
{
name = bottom;
pos = (646,0);
},
{
name = top;
pos = (646,620);
}
);
layerId = "96858A69-C8A6-410B-90BB-94EA0DA45935";
shapes = (
{
closed = 1;
nodes = (
(989,85,o),
(1058,128,o),
(1085,146,c),
(1080,151,l),
(1042,126,o),
(982,93,o),
(894,93,cs),
(795,93,o),
(716,155,o),
(713,232,cs),
(712,255,o),
(712,311,o),
(810,311,cs),
(1210,311,l),
(1206,388,o),
(1130,535,o),
(876,535,cs),
(786,535,o),
(694,523,o),
(629,473,c),
(605,513,o),
(541,533,o),
(469,533,cs),
(426,533,o),
(380,526,o),
(338,511,c),
(338,510,l),
(406,524,o),
(572,485,o),
(572,345,cs),
(572,264,o),
(512,206,o),
(550,153,cs),
(584,105,o),
(714,85,o),
(890,85,cs)
);
},
{
closed = 1;
nodes = (
(251,98,l),
(241,96,o),
(210,121,o),
(210,204,cs),
(210,263,o),
(273,300,o),
(336,301,c),
(338,301,l),
(338,302,l),
(329,302,l),
(214,300,o),
(89,264,o),
(89,173,cs),
(89,119,o),
(156,93,o),
(213,93,cs),
(227,93,o),
(240,94,o),
(251,97,c)
);
},
{
closed = 1;
nodes = (
(797,311,o),
(690,319,o),
(685,398,cs),
(679,485,o),
(748,528,o),
(860,528,cs),
(1054,528,o),
(1067,410,o),
(1068,378,cs),
(1069,344,o),
(1048,311,o),
(1034,311,cs),
(811,311,ls)
);
}
);
width = 1350;
}
);
metricLeft = a;
unicode = 230;
},
{
color = 6;
glyphname = b;
kernLeft = h;
kernRight = o;
lastChange = "2021-09-06 15:12:36 +0000";
layers = (
{
anchors = (
{
name = bottom;
pos = (487,0);
},
{
name = top;
pos = (487,750);
}
);
layerId = "96858A69-C8A6-410B-90BB-94EA0DA45935";
shapes = (
{
closed = 1;
nodes = (
(162,606,o),
(170,560,o),
(170,513,cs),
(170,359,o),
(92,185,o),
(103,115,c),
(213,115,l),
(211,125,ls),
(199,184,o),
(248,209,o),
(307,209,cs),
(399,209,o),
(477,107,o),
(598,107,cs),
(746,107,o),
(818,203,o),
(818,298,cs),
(818,387,o),
(758,481,o),
(641,482,cs),
(641,482,o),
(640,482,o),
(640,482,c),
(640,481,l),
(640,481,o),
(641,481,o),
(641,481,cs),
(658,481,o),
(717,431,o),
(717,348,cs),
(717,232,o),
(648,167,o),
(529,167,cs),
(351,167,o),
(211,280,o),
(211,427,cs),
(211,487,o),
(233,553,o),
(283,645,c),
(143,645,l)
);
}
);
width = 942;
},
{
anchors = (
{
name = bottom;
pos = (483,0);
},
{
name = top;
pos = (483,750);
}
);
layerId = "F6D8640C-383C-48A8-B63C-DDE9F10207CE";
shapes = (
{
closed = 1;
nodes = (
(20,680,o),
(20,610,o),
(20,541,cs),
(20,360,o),
(20,180,o),
(20,0,c),
(366,0,l),
(366,66,ls),
(366,67,o),
(367,68,o),
(368,67,c),
(430,2,o),
(518,-15,o),
(596,-15,cs),
(776,-15,o),
(950,113,o),
(950,311,cs),
(950,516,o),
(780,635,o),
(575,635,cs),
(533,635,o),
(490,630,o),
(446,620,c),
(367,321,l),
(381,366,o),
(429,385,o),
(485,385,cs),
(563,385,o),
(600,351,o),
(600,309,cs),
(600,272,o),
(563,235,o),
(485,235,cs),
(425,235,o),
(366,259,o),
(366,309,cs),
(366,416,o),
(366,643,o),
(366,750,c),
(20,750,l)
);
}
);
width = 960;
}
);
metricLeft = n;
unicode = 98;
},
{
color = 6;
glyphname = bhook;
kernLeft = h;
kernRight = o;
lastChange = "2021-09-06 15:12:36 +0000";
layers = (
{
anchors = (
{
name = bottom;
pos = (483,0);
},
{
name = top;
pos = (483,750);
}
);
background = {
anchors = (
{
name = top;
pos = (275,947);
}
);
shapes = (
{
ref = khook;
}
);
};
layerId = "F6D8640C-383C-48A8-B63C-DDE9F10207CE";
shapes = (
{
closed = 1;
nodes = (
(822,-15,o),
(950,118,o),
(950,276,cs),
(950,480,o),
(780,553,o),
(575,553,cs),
(533,553,o),
(472,544,o),
(428,530,c),
(367,286,l),
(381,331,o),
(429,350,o),
(485,350,cs),
(563,350,o),
(600,316,o),
(600,274,cs),
(600,237,o),
(563,200,o),
(485,200,cs),
(425,200,o),
(366,224,o),
(366,274,cs),
(366,384,o),
(366,427,o),
(366,507,cs),
(366,552,o),
(383,574,o),
(435,574,cs),
(456,574,o),
(473,572,o),
(486,566,c),
(486,760,l),
(453,771,o),
(381,780,o),
(321,780,cs),
(138,780,o),
(20,712,o),
(20,515,cs),
(20,452,o),
(20,163,o),
(20,0,c),
(366,0,l),
(366,66,ls),
(366,67,o),
(367,68,o),
(368,67,c),
(430,2,o),
(518,-15,o),
(596,-15,cs)
);
}
);
width = 960;
},
{
anchors = (
{
name = bottom;
pos = (487,0);
},
{
name = top;
pos = (487,750);
}
);
layerId = "96858A69-C8A6-410B-90BB-94EA0DA45935";
shapes = (
{
closed = 1;
nodes = (
(746,107,o),
(818,203,o),
(818,258,cs),
(818,347,o),
(758,441,o),
(641,442,cs),
(641,442,o),
(640,442,o),
(640,442,c),
(640,441,l),
(640,441,o),
(641,441,o),
(641,441,cs),
(658,441,o),
(717,391,o),
(717,308,cs),
(717,232,o),
(648,167,o),
(529,167,cs),
(351,167,o),
(211,280,o),
(211,398,cs),
(211,405,o),
(211,412,o),
(211,418,cs),
(211,568,o),
(239,645,o),
(390,645,cs),
(392,645,o),
(396,645,o),
(398,645,c),
(398,647,l),
(395,647,o),
(393,647,o),
(390,647,cs),
(217,643,o),
(131,585,o),
(131,466,cs),
(131,358,o),
(92,185,o),
(103,115,c),
(213,115,l),
(211,125,ls),
(199,184,o),
(248,209,o),
(307,209,cs),
(399,209,o),
(477,107,o),
(598,107,cs)
);
}
);
width = 942;
}
);
metricRight = b;
unicode = 595;
},
{
color = 6;
glyphname = c;
kernLeft = o;
kernRight = c;
lastChange = "2021-09-06 15:12:36 +0000";
layers = (
{
anchors = (
{
name = bottom;
pos = (455,0);
},
{
name = top;
pos = (455,620);
}
);
background = {
shapes = (
{
ref = o;
}
);
};
layerId = "F6D8640C-383C-48A8-B63C-DDE9F10207CE";
shapes = (
{
closed = 1;
nodes = (
(693,-30,o),
(873,72,o),
(897,267,c),
(785,281,o),
(687,295,o),
(575,309,c),
(575,255,o),
(516,235,o),
(460,235,cs),
(395,235,o),
(345,260,o),
(345,310,cs),
(345,360,o),
(395,385,o),
(460,385,cs),
(517,385,o),
(575,363,o),
(575,309,c),
(896,366,l),
(865,555,o),
(689,650,o),
(460,650,cs),
(339,650,o),
(229,623,o),
(148,570,cs),
(63,513,o),
(10,427,o),
(10,310,cs),
(10,83,o),
(210,-30,o),
(460,-30,cs)
);
}
);
width = 910;
},
{
anchors = (
{
name = bottom;
pos = (439,0);
},
{
name = top;
pos = (439,620);
}
);
background = {
shapes = (
{
ref = o;
}
);
};
layerId = "96858A69-C8A6-410B-90BB-94EA0DA45935";
name = "2050";
shapes = (
{
closed = 1;
nodes = (
(572,87,o),
(616,110,o),
(675,145,c),
(675,145,o),
(673,148,o),
(673,148,c),
(607,111,o),
(561,104,o),
(535,104,cs),
(428,104,o),
(279,164,o),
(279,307,cs),
(279,403,o),
(379,479,o),
(483,479,cs),
(562,479,o),
(628,457,o),
(670,404,c),
(767,423,l),
(754,464,o),
(672,535,o),
(563,535,cs),
(459,535,o),
(383,471,o),
(317,415,cs),
(226,336,o),
(119,338,o),
(119,253,cs),
(119,177,o),
(263,87,o),
(431,87,cs)
);
}
);
visible = 1;
width = 895;
}
);
unicode = 99;
},
{
color = 6;
glyphname = d;
kernLeft = o;
kernRight = l;
lastChange = "2021-09-06 15:12:36 +0000";
layers = (
{
anchors = (
{
name = bottom;
pos = (479,0);
},
{
name = center;
pos = (479,310);
},
{
name = top;
pos = (479,750);
},
{
name = topright;
pos = (924,620);
}
);
layerId = "F6D8640C-383C-48A8-B63C-DDE9F10207CE";
name = Regular;
shapes = (
{
closed = 1;
nodes = (
(940,0,l),
(940,122,o),
(940,243,o),
(940,365,cs),
(940,493,o),
(940,622,o),
(940,750,c),
(594,750,l),
(594,697,o),
(594,630,o),
(594,577,cs),
(594,576,o),
(593,575,o),
(592,576,cs),
(550,620,o),
(463,635,o),
(386,635,cs),
(200,635,o),
(10,530,o),
(10,309,cs),
(10,104,o),
(180,-15,o),
(385,-15,cs),
(436,-15,o),
(470,-11,o),
(513,0,c),
(593,309,l),
(579,264,o),
(531,245,o),
(475,245,cs),
(397,245,o),
(360,279,o),
(360,321,cs),
(360,358,o),
(397,395,o),
(475,395,cs),
(535,395,o),
(594,371,o),
(594,321,cs),
(594,214,o),
(594,107,o),
(594,0,c)
);
}
);
width = 960;
},
{
anchors = (
{
name = bottom;
pos = (477,0);
},
{
name = center;
pos = (477,310);
},
{
name = top;
pos = (477,750);
},
{
name = topright;
pos = (966,620);
}
);
layerId = "96858A69-C8A6-410B-90BB-94EA0DA45935";
name = "2050";
shapes = (
{
closed = 1;
nodes = (
(858,115,l),
(810,201,o),
(799,306,o),
(799,405,cs),
(799,498,o),
(809,586,o),
(804,645,c),
(728,645,l),
(732,599,o),
(741,537,o),
(741,496,cs),
(741,451,o),
(730,418,o),
(688,418,cs),
(584,418,o),
(555,563,o),
(473,563,cs),
(376,563,o),
(222,385,o),
(137,285,cs),
(58,193,o),
(156,97,o),
(287,97,cs),
(313,97,o),
(341,101,o),
(368,109,c),
(368,110,l),
(367,110,o),
(365,110,o),
(364,110,cs),
(301,117,o),
(221,198,o),
(221,302,cs),
(221,422,o),
(307,475,o),
(443,475,cs),
(578,475,o),
(746,401,o),
(746,268,cs),
(746,209,o),
(726,174,o),
(732,115,c)
);
}
);
width = 972;
}
);
metricLeft = o;
metricRight = i;
unicode = 100;
},
{
color = 6;
glyphname = eth;
kernLeft = eth;
kernRight = eth;
lastChange = "2021-09-06 15:12:36 +0000";
layers = (
{
background = {
shapes = (
{
pos = (-26,0);
ref = d;
}
);
};
layerId = "F6D8640C-383C-48A8-B63C-DDE9F10207CE";
shapes = (
{
closed = 1;
nodes = (
(697,-20,o),
(914,77,o),
(914,339,cs),
(914,579,o),
(713,742,o),
(392,768,c),
(195,535,l),
(397,559,o),
(575,482,o),
(575,327,cs),
(575,243,o),
(527,215,o),
(457,215,cs),
(404,215,o),
(351,238,o),
(351,284,cs),
(351,332,o),
(404,356,o),
(457,356,cs),
(511,356,o),
(542,340,o),
(571,305,c),
(439,465,l),
(301,527,o),
(10,482,o),
(10,258,cs),
(10,77,o),
(188,-20,o),
(435,-20,cs)
);
},
{
closed = 1;
nodes = (
(912,657,l),
(727,796,l),
(570,662,l),
(729,511,l)
);
}
);
width = 928;
},
{
layerId = "96858A69-C8A6-410B-90BB-94EA0DA45935";
name = "2050";
shapes = (
{
closed = 1;
nodes = (
(643,88,o),
(747,200,o),
(747,352,cs),
(747,525,o),
(573,672,o),
(417,652,c),
(301,561,l),
(616,703,o),
(643,473,o),
(643,352,cs),
(643,220,o),
(580,93,o),
(442,93,cs),
(310,93,o),
(246,152,o),
(246,247,cs),
(246,319,o),
(284,387,o),
(363,387,cs),
(374,387,o),
(378,387,o),
(387,386,c),
(387,387,l),
(287,400,o),
(132,359,o),
(132,247,cs),
(132,129,o),
(301,88,o),
(442,88,cs)
);
},
{
closed = 1;
nodes = (
(677,661,l),
(672,665,l),
(494,533,l),
(498,529,l)
);
}
);
visible = 1;
width = 900;
}
);
unicode = 240;
},
{
color = 3;
glyphname = dcroat;
kernLeft = o;
lastChange = "2021-09-06 15:12:36 +0000";
layers = (
{
background = {
shapes = (
{
ref = d;
}
);
};
layerId = "F6D8640C-383C-48A8-B63C-DDE9F10207CE";
shapes = (
{
closed = 1;
nodes = (
(987,639,l),
(987,718,l),
(515,718,l),
(515,639,l)
);
},
{
ref = d;
}
);
width = 977;
},
{
layerId = "96858A69-C8A6-410B-90BB-94EA0DA45935";
shapes = (
{
closed = 1;
nodes = (
(878,555,l),
(878,561,l),
(613,561,l),
(613,555,l)
);
},
{
ref = d;
}
);
width = 972;
}
);
unicode = 273;
},
{
color = 6;
glyphname = dhook;
kernLeft = o;
kernRight = dhook;
lastChange = "2021-09-06 15:12:36 +0000";
layers = (
{
anchors = (
{
name = bottom;
pos = (479,0);
},
{
name = center;
pos = (479,310);
},
{
name = top;
pos = (479,750);
},
{
name = topright;
pos = (924,620);
}
);
background = {
shapes = (
{
pos = (574,0);
ref = khook;
}
);
};
layerId = "F6D8640C-383C-48A8-B63C-DDE9F10207CE";
shapes = (
{
closed = 1;
nodes = (
(940,0,l),
(940,128,o),
(940,391,o),
(940,519,cs),
(940,555,o),
(965,570,o),
(988,570,cs),
(1010,570,o),
(1021,567,o),
(1032,559,c),
(1032,767,l),
(1000,773,o),
(935,780,o),
(891,780,cs),
(707,780,o),
(594,699,o),
(594,567,cs),
(594,566,o),
(593,565,o),
(592,566,cs),
(546,625,o),
(463,635,o),
(386,635,cs),
(200,635,o),
(10,530,o),
(10,309,cs),
(10,104,o),
(180,-15,o),
(385,-15,cs),
(436,-15,o),
(470,-11,o),
(513,0,c),
(593,309,l),
(579,264,o),
(531,245,o),
(475,245,cs),
(397,245,o),
(360,279,o),
(360,321,cs),
(360,358,o),
(397,395,o),
(475,395,cs),
(535,395,o),
(594,371,o),
(594,321,cs),
(594,214,o),
(594,107,o),
(594,0,c)
);
}
);
width = 1047;
},
{
anchors = (
{
name = bottom;
pos = (477,0);
},
{
name = center;
pos = (477,310);
},
{
name = top;
pos = (477,750);
},
{
name = topright;
pos = (966,620);
}
);
layerId = "96858A69-C8A6-410B-90BB-94EA0DA45935";
shapes = (
{
closed = 1;
nodes = (
(858,115,l),
(810,201,o),
(799,306,o),
(799,405,cs),
(799,451,o),
(787,572,o),
(861,572,cs),
(862,572,o),
(864,572,o),
(866,572,c),
(859,649,l),
(853,649,o),
(824,649,o),
(820,649,cs),
(749,649,o),
(741,535,o),
(741,496,cs),
(741,451,o),
(730,418,o),
(688,418,cs),
(584,418,o),
(555,563,o),
(473,563,cs),
(376,563,o),
(222,385,o),
(137,285,cs),
(58,193,o),
(156,97,o),
(287,97,cs),
(313,97,o),
(341,101,o),
(368,109,c),
(368,110,l),
(367,110,o),
(365,110,o),
(364,110,cs),
(301,117,o),
(221,198,o),
(221,302,cs),
(221,422,o),
(307,475,o),
(443,475,cs),
(578,475,o),
(746,401,o),
(746,268,cs),
(746,209,o),
(726,174,o),
(732,115,c)
);
}
);
width = 972;
}
);
unicode = 599;
},
{
color = 6;
glyphname = e;
kernLeft = o;
kernRight = e;
lastChange = "2021-09-06 15:12:36 +0000";
layers = (
{
anchors = (
{
name = bottom;
pos = (450,0);
},
{
name = ogonek;
pos = (790,10);
},
{
name = top;
pos = (450,620);
}
);
background = {
shapes = (
{
ref = c;
}
);
};
layerId = "F6D8640C-383C-48A8-B63C-DDE9F10207CE";
name = Regular;
shapes = (
{
closed = 1;
nodes = (
(388,226,o),
(347,255,o),
(346,296,cs),
(346,297,o),
(346,297,o),
(347,297,cs),
(892,297,l),
(892,540,o),
(714,650,o),
(460,650,cs),
(211,650,o),
(10,537,o),
(10,310,cs),
(10,83,o),
(210,-30,o),
(460,-30,cs),
(680,-30,o),
(846,69,o),
(883,196,c),
(574,297,l),
(572,253,o),
(533,226,o),
(462,226,cs)
);
},
{
closed = 1;
nodes = (
(525,397,o),
(572,372,o),
(572,330,cs),
(572,329,o),
(572,328,o),
(571,328,cs),
(348,328,ls),
(347,328,o),
(347,328,o),
(347,330,cs),
(347,372,o),
(394,397,o),
(460,397,cs)
);
}
);
width = 900;
},
{
anchors = (
{
name = bottom;
pos = (442,0);
},
{
name = ogonek;
pos = (586,115);
},
{
name = top;
pos = (442,620);
}
);
layerId = "96858A69-C8A6-410B-90BB-94EA0DA45935";
name = "2050";
shapes = (
{
closed = 1;
nodes = (
(387,90,o),
(278,149,o),
(278,237,cs),
(278,258,o),
(279,311,o),
(375,311,cs),
(775,311,l),
(771,388,o),
(695,535,o),
(441,535,cs),
(263,535,o),
(71,488,o),
(115,362,cs),
(159,238,o),
(275,85,o),
(455,85,cs),
(554,85,o),
(623,128,o),
(650,146,c),
(648,150,l),
(610,125,o),
(545,90,o),
(457,90,cs)
);
},
{
closed = 1;
nodes = (
(619,530,o),
(633,410,o),
(633,374,cs),
(633,341,o),
(613,311,o),
(599,311,cs),
(376,311,ls),
(359,311,o),
(250,319,o),
(250,405,cs),
(250,485,o),
(312,530,o),
(425,530,cs)
);
}
);
width = 885;
}
);
metricLeft = o;
unicode = 101;
},
{
color = 6;
glyphname = eogonek;
kernLeft = o;
kernRight = e;
lastChange = "2021-09-06 15:12:36 +0000";
layers = (
{
background = {
anchors = (
{
name = bottom;
pos = (442,0);
},
{
name = ogonek;
pos = (586,115);
},
{
name = top;
pos = (442,620);
}
);
shapes = (
{
closed = 1;
nodes = (
(387,90,o),
(278,149,o),
(278,237,cs),
(278,258,o),
(279,311,o),
(375,311,cs),
(775,311,l),
(771,388,o),
(695,535,o),
(441,535,cs),
(263,535,o),
(71,488,o),
(115,362,cs),
(159,238,o),
(275,85,o),
(455,85,cs),
(554,85,o),
(623,128,o),
(650,146,c),
(648,150,l),
(610,125,o),
(545,90,o),
(457,90,cs)
);
},
{
closed = 1;
nodes = (
(619,530,o),
(633,410,o),
(633,374,cs),
(633,341,o),
(613,311,o),
(599,311,cs),
(376,311,ls),
(359,311,o),
(250,319,o),
(250,405,cs),
(250,485,o),
(312,530,o),
(425,530,cs)
);
}
);
};
layerId = "96858A69-C8A6-410B-90BB-94EA0DA45935";
shapes = (
{
closed = 1;
nodes = (
(575,-105,o),
(621,-77,o),
(649,-34,c),
(649,-33,l),
(644,-34,o),
(639,-34,o),
(634,-34,cs),
(589,-34,o),
(539,-4,o),
(539,25,cs),
(539,52,o),
(565,75,o),
(591,98,cs),
(607,112,o),
(625,124,o),
(650,146,c),
(645,151,l),
(607,125,o),
(547,91,o),
(459,91,cs),
(387,91,o),
(278,149,o),
(278,237,cs),
(278,258,o),
(279,311,o),
(375,311,cs),
(775,311,l),
(771,388,o),
(695,535,o),
(441,535,cs),
(263,535,o),
(71,488,o),
(115,362,cs),
(159,238,o),
(275,85,o),
(455,85,cs),
(481,85,o),
(505,88,o),
(527,93,c),
(527,93,l),
(631,93,o),
(435,52,o),
(435,-45,cs),
(435,-77,o),
(464,-105,o),
(520,-105,cs)
);
},
{
closed = 1;
nodes = (
(362,311,o),
(250,319,o),
(250,405,cs),
(250,485,o),
(313,530,o),
(425,530,cs),
(619,530,o),
(633,410,o),
(633,375,cs),
(633,341,o),
(613,311,o),
(599,311,cs),
(376,311,ls)
);
}
);
width = 885;
},
{
background = {
shapes = (
{
ref = e;
}
);
};
guides = (
{
angle = 90;
pos = (866,15);
}
);
layerId = "F6D8640C-383C-48A8-B63C-DDE9F10207CE";
name = Regular;
shapes = (
{
closed = 1;
nodes = (
(764,-308,o),
(805,-300,o),
(860,-285,c),
(860,-89,l),
(833,-101,o),
(814,-105,o),
(783,-105,cs),
(745,-105,o),
(720,-89,o),
(720,-57,cs),
(720,-27,o),
(740,12,o),
(805,79,cs),
(847,123,o),
(872,157,o),
(883,196,c),
(574,297,l),
(572,253,o),
(533,226,o),
(462,226,cs),
(388,226,o),
(347,255,o),
(346,296,cs),
(346,297,o),
(346,297,o),
(347,297,cs),
(892,297,l),
(892,540,o),
(714,650,o),
(460,650,cs),
(211,650,o),
(10,537,o),
(10,310,cs),
(10,83,o),
(210,-30,o),
(460,-30,cs),
(481,-30,o),
(503,-29,o),
(526,-27,c),
(526,0,l),
(481,-37,o),
(458,-85,o),
(458,-140,cs),
(458,-247,o),
(539,-308,o),
(702,-308,cs)
);
},
{
closed = 1;
nodes = (
(347,328,o),
(347,328,o),
(347,330,cs),
(347,373,o),
(394,397,o),
(460,397,cs),
(525,397,o),
(572,373,o),
(572,330,cs),
(572,329,o),
(572,328,o),
(571,328,cs),
(348,328,ls)
);
}
);
width = 900;
}
);
metricLeft = e;
metricRight = e;
unicode = 281;
},
{
color = 6;
glyphname = schwa;
kernLeft = o;
kernRight = o;
lastChange = "2021-09-06 15:12:36 +0000";
layers = (
{
layerId = "F6D8640C-383C-48A8-B63C-DDE9F10207CE";
shapes = (
{
closed = 1;
nodes = (
(506,387,o),
(553,360,o),
(554,324,cs),
(554,323,o),
(554,323,o),
(553,323,cs),
(8,323,l),
(8,87,o),
(194,-30,o),
(440,-30,cs),
(689,-30,o),
(890,83,o),
(890,310,cs),
(890,537,o),
(690,650,o),
(440,650,cs),
(222,650,o),
(55,551,o),
(17,424,c),
(326,323,l),
(328,362,o),
(373,387,o),
(438,387,cs)
);
},
{
closed = 1;
nodes = (
(381,230,o),
(328,253,o),
(328,292,cs),
(328,293,o),
(328,294,o),
(329,294,cs),
(552,294,ls),
(553,294,o),
(553,294,o),
(553,292,cs),
(553,253,o),
(500,230,o),
(440,230,cs)
);
}
);
width = 900;
},
{
background = {
anchors = (
{
name = bottom;
pos = (442,0);
},
{
name = ogonek;
pos = (298,505);
},
{
name = top;
pos = (442,620);
}
);
};
layerId = "96858A69-C8A6-410B-90BB-94EA0DA45935";
shapes = (
{
closed = 1;
nodes = (
(497,530,o),
(606,471,o),
(606,383,cs),
(606,362,o),
(605,309,o),
(509,309,cs),
(109,309,l),
(113,232,o),
(189,85,o),
(443,85,cs),
(621,85,o),
(813,132,o),
(769,258,cs),
(725,382,o),
(609,535,o),
(429,535,cs),
(330,535,o),
(261,492,o),
(234,474,c),
(236,470,l),
(274,495,o),
(339,530,o),
(427,530,cs)
);
},
{
closed = 1;
nodes = (
(265,90,o),
(251,210,o),
(251,246,cs),
(251,279,o),
(271,309,o),
(285,309,cs),
(508,309,ls),
(525,309,o),
(634,301,o),
(634,215,cs),
(634,135,o),
(572,90,o),
(459,90,cs)
);
}
);
width = 900;
}
);
unicode = 601;
},
{
color = 6;
glyphname = f;
kernLeft = f;
kernRight = f;
lastChange = "2021-09-06 15:12:36 +0000";
layers = (
{
anchors = (
{
name = bottom;
pos = (357,0);
},
{
name = top;
pos = (357,750);
}
);
layerId = "96858A69-C8A6-410B-90BB-94EA0DA45935";
shapes = (
{
closed = 1;
nodes = (
(447,648,o),
(462,644,o),
(472,641,c),
(472,640,l),
(466,643,o),
(452,645,o),
(441,645,cs),
(291,645,o),
(303,472,o),
(303,431,cs),
(303,364,o),
(358,358,o),
(393,358,cs),
(477,358,l),
(476,358,l),
(393,358,l),
(363,358,o),
(323,334,o),
(323,276,cs),
(323,225,o),
(333,162,o),
(358,115,c),
(222,115,l),
(227,139,o),
(232,183,o),
(232,234,cs),
(232,283,o),
(214,319,o),
(171,319,cs),
(152,319,l),
(182,319,o),
(217,330,o),
(217,393,cs),
(217,438,ls),
(217,565,o),
(305,648,o),
(418,648,cs)
);
}
);
width = 653;
},
{
anchors = (
{
name = bottom;
pos = (330,0);
},
{
name = top;
pos = (330,750);
}
);
guides = (
{
angle = 72.6661;
pos = (697,727);
}
);
layerId = "F6D8640C-383C-48A8-B63C-DDE9F10207CE";
name = Regular;
shapes = (
{
closed = 1;
nodes = (
(544,780,o),
(650,755,o),
(697,727,c),
(607,440,l),
(607,490,o),
(559,515,o),
(512,515,cs),
(457,515,o),
(423,492,o),
(423,441,cs),
(423,440,o),
(423,440,o),
(424,440,cs),
(607,440,l),
(535,208,l),
(424,208,ls),
(423,208,o),
(423,208,o),
(423,207,cs),
(423,127,o),
(423,80,o),
(423,0,c),
(74,0,l),
(74,80,o),
(74,127,o),
(74,207,cs),
(74,208,o),
(74,208,o),
(73,208,cs),
(-3,208,l),
(23,285,o),
(48,363,o),
(74,440,c),
(74,450,ls),
(74,648,o),
(223,780,o),
(457,780,cs)
);
}
);
visible = 1;
width = 659;
}
);
unicode = 102;
},
{
color = 6;
glyphname = g;
kernLeft = g;
kernRight = g;
lastChange = "2021-09-06 15:12:36 +0000";
layers = (
{
anchors = (
{
name = bottom;
pos = (453,-120);
},
{
name = top;
pos = (453,620);
}
);
layerId = "F6D8640C-383C-48A8-B63C-DDE9F10207CE";
shapes = (
{
closed = 1;
nodes = (
(893,458,o),
(893,295,o),
(893,133,cs),
(893,-47,o),
(667,-142,o),
(436,-142,cs),
(318,-142,o),
(199,-117,o),
(108,-66,c),
(108,93,l),
(166,55,o),
(268,25,o),
(360,25,cs),
(460,25,o),
(547,61,o),
(547,162,cs),
(547,347,ls),
(547,394,o),
(506,417,o),
(448,417,cs),
(387,417,o),
(345,394,o),
(345,350,cs),
(345,304,o),
(388,278,o),
(448,278,cs),
(501,278,o),
(534,296,o),
(547,336,c),
(487,101,l),
(431,68,o),
(377,66,o),
(321,66,cs),
(158,66,o),
(10,172,o),
(10,350,cs),
(10,528,o),
(164,635,o),
(338,635,cs),
(404,635,o),
(503,617,o),
(545,554,cs),
(547,550,o),
(547,553,o),
(547,555,cs),
(547,570,o),
(547,605,o),
(547,620,c),
(893,620,l)
);
}
);
width = 912;
},
{
anchors = (
{
name = bottom;
pos = (459,-120);
},
{
name = top;
pos = (459,620);
}
);
layerId = "96858A69-C8A6-410B-90BB-94EA0DA45935";
name = "2050";
shapes = (
{
closed = 1;
nodes = (
(763,360,o),
(761,272,o),
(761,177,cs),
(761,-2,o),
(508,-40,o),
(446,-40,cs),
(440,-40,o),
(436,-40,o),
(434,-39,c),
(435,-35,l),
(438,-35,o),
(441,-35,o),
(445,-35,cs),
(512,-35,o),
(649,72,o),
(649,231,cs),
(649,241,ls),
(649,452,o),
(507,505,o),
(377,505,cs),
(283,505,o),
(201,480,o),
(201,375,cs),
(201,232,o),
(266,201,o),
(322,201,cs),
(350,201,o),
(374,206,o),
(391,214,c),
(392,211,l),
(369,200,o),
(342,196,o),
(313,196,cs),
(212,196,o),
(92,257,o),
(92,345,cs),
(92,435,o),
(389,553,o),
(458,553,cs),
(524,553,o),
(549,425,o),
(633,425,cs),
(659,425,o),
(725,432,o),
(725,486,cs),
(725,490,o),
(725,486,o),
(725,489,c),
(785,489,l)
);
}
);
width = 919;
}
);
metricRight = h;
unicode = 103;
},
{
color = 6;
glyphname = h;
kernLeft = h;
kernRight = n;
lastChange = "2021-09-06 15:12:36 +0000";
layers = (
{
anchors = (
{
name = bottom;
pos = (422,0);
},
{
name = center;
pos = (422,375);
},
{
name = top;
pos = (194,750);
}
);
layerId = "F6D8640C-383C-48A8-B63C-DDE9F10207CE";
shapes = (
{
closed = 1;
nodes = (
(366,0,l),
(366,64,o),
(366,211,o),
(366,298,cs),
(366,331,o),
(366,356,o),
(366,363,c),
(366,369,o),
(366,429,o),
(366,504,cs),
(366,587,o),
(366,688,o),
(366,750,c),
(20,750,l),
(20,685,o),
(20,620,o),
(20,554,cs),
(20,370,o),
(20,185,o),
(20,0,c)
);
},
{
closed = 1;
nodes = (
(818,0,l),
(818,154,o),
(818,309,o),
(818,463,cs),
(818,592,o),
(715,642,o),
(604,642,cs),
(550,642,o),
(494,631,o),
(446,610,c),
(366,353,l),
(376,370,o),
(472,388,o),
(472,311,cs),
(472,207,o),
(472,104,o),
(472,0,c)
);
}
);
width = 837;
},
{
anchors = (
{
name = bottom;
pos = (407,0);
},
{
name = center;
pos = (407,375);
},
{
name = top;
pos = (170,750);
}
);
background = {
shapes = (
{
pos = (-64,0);
ref = p;
}
);
};
layerId = "96858A69-C8A6-410B-90BB-94EA0DA45935";
name = "2050";
shapes = (
{
closed = 1;
nodes = (
(272,115,l),
(249,162,o),
(233,230,o),
(233,284,cs),
(233,323,o),
(241,355,o),
(260,369,c),
(223,376,o),
(209,435,o),
(209,501,cs),
(209,554,o),
(218,610,o),
(232,645,c),
(112,645,l),
(120,601,o),
(123,553,o),
(123,501,cs),
(123,366,o),
(102,218,o),
(102,115,c)
);
},
{
closed = 1;
nodes = (
(679,115,l),
(661,160,o),
(656,255,o),
(656,337,cs),
(656,465,o),
(589,501,o),
(528,501,cs),
(517,501,o),
(506,500,o),
(496,498,c),
(495,496,l),
(560,496,o),
(580,407,o),
(580,344,cs),
(580,272,o),
(540,149,o),
(510,115,c)
);
}
);
visible = 1;
width = 813;
}
);
metricLeft = n;
metricRight = n;
unicode = 104;
},
{
color = 3;
glyphname = hbar;
kernLeft = h;
kernRight = n;
lastChange = "2021-09-06 15:12:36 +0000";
layers = (
{
layerId = "96858A69-C8A6-410B-90BB-94EA0DA45935";
shapes = (
{
closed = 1;
nodes = (
(334,555,l),
(334,561,l),
(59,561,l),
(59,555,l)
);
},
{
ref = h;
}
);
width = 813;
},
{
layerId = "F6D8640C-383C-48A8-B63C-DDE9F10207CE";
name = Regular;
shapes = (
{
closed = 1;
nodes = (
(447,639,l),
(447,718,l),
(-32,718,l),
(-32,639,l)
);
},
{
ref = h;
}
);
width = 837;
}
);
metricRight = n;
unicode = 295;
},
{
color = 6;
glyphname = i;
kernLeft = i;
kernRight = i;
lastChange = "2021-09-06 15:12:36 +0000";
layers = (
{
anchors = (
{
name = bottom;
pos = (193,0);
}
);
guides = (
{
pos = (90,320);
}
);
layerId = "F6D8640C-383C-48A8-B63C-DDE9F10207CE";
shapes = (
{
closed = 1;
nodes = (
(366,0,l),
(366,116,o),
(366,233,o),
(366,349,c),
(251,349,o),
(135,349,o),
(20,349,c),
(20,324,o),
(20,298,o),
(20,273,cs),
(20,182,o),
(20,91,o),
(20,0,c)
);
},
{
closed = 1;
nodes = (
(135,373,o),
(250,397,o),
(365,421,c),
(365,421,o),
(366,422,o),
(366,422,cs),
(366,488,o),
(366,554,o),
(366,620,c),
(20,620,l),
(20,530,o),
(20,439,o),
(20,349,c)
);
}
);
width = 386;
},
{
anchors = (
{
name = bottom;
pos = (179,0);
}
);
guides = (
{
pos = (60,320);
}
);
layerId = "96858A69-C8A6-410B-90BB-94EA0DA45935";
shapes = (
{
closed = 1;
nodes = (
(257,115,l),
(212,133,o),
(206,218,o),
(206,304,c),
(202,304,o),
(146,304,o),
(142,304,c),
(148,294,o),
(150,282,o),
(150,269,cs),
(150,218,o),
(115,146,o),
(112,115,c)
);
},
{
closed = 1;
nodes = (
(131,469,o),
(143,476,o),
(176,487,cs),
(206,497,o),
(233,508,o),
(233,528,cs),
(233,551,o),
(233,528,o),
(233,551,c),
(117,551,l),
(117,520,o),
(117,489,o),
(117,458,c)
);
}
);
width = 371;
}
);
unicode = 105;
},
{
color = 6;
glyphname = idotless;
kernLeft = i;
kernRight = i;
lastChange = "2021-09-06 15:12:36 +0000";
layers = (
{
anchors = (
{
name = bottom;
pos = (193,0);
},
{
name = ogonek;
pos = (316,0);
},
{
name = top;
pos = (193,620);
}
);
layerId = "F6D8640C-383C-48A8-B63C-DDE9F10207CE";
shapes = (
{
closed = 1;
nodes = (
(366,0,l),
(366,206,o),
(366,414,o),
(366,620,c),
(251,620,o),
(135,620,o),
(20,620,c),
(20,564,o),
(20,507,o),
(20,451,cs),
(20,300,o),
(20,150,o),
(20,0,c)
);
}
);
width = 386;
},
{
anchors = (
{
name = bottom;
pos = (163,0);
},
{
name = ogonek;
pos = (227,115);
},
{
name = top;
pos = (163,620);
}
);
layerId = "96858A69-C8A6-410B-90BB-94EA0DA45935";
shapes = (
{
closed = 1;
nodes = (
(247,115,l),
(202,152,o),
(196,327,o),
(196,505,c),
(192,505,o),
(136,505,o),
(132,505,c),
(138,485,o),
(140,461,o),
(140,433,cs),
(140,327,o),
(105,179,o),
(102,115,c)
);
}
);
width = 351;
}
);
unicode = 305;
},
{
color = 6;
glyphname = iogonek;
kernLeft = i;
kernRight = i;
lastChange = "2021-09-06 15:12:36 +0000";
layers = (
{
layerId = "96858A69-C8A6-410B-90BB-94EA0DA45935";
shapes = (
{
closed = 1;
nodes = (
(200,-105,o),
(246,-77,o),
(274,-34,c),
(274,-33,l),
(269,-34,o),
(264,-34,o),
(259,-34,cs),
(214,-34,o),
(164,-4,o),
(164,37,cs),
(164,67,o),
(181,100,o),
(257,115,c),
(212,133,o),
(206,218,o),
(206,304,c),
(202,304,o),
(146,304,o),
(142,304,c),
(148,294,o),
(150,282,o),
(150,269,cs),
(150,218,o),
(115,146,o),
(112,115,c),
(279,93,o),
(60,44,o),
(60,-45,cs),
(60,-77,o),
(89,-105,o),
(145,-105,cs)
);
},
{
closed = 1;
nodes = (
(131,469,o),
(143,476,o),
(176,487,cs),
(206,497,o),
(233,508,o),
(233,528,cs),
(233,551,o),
(233,528,o),
(233,551,c),
(117,551,l),
(117,520,o),
(117,489,o),
(117,458,c)
);
}
);
width = 371;
},
{
layerId = "F6D8640C-383C-48A8-B63C-DDE9F10207CE";
name = Regular;
shapes = (
{
closed = 1;
nodes = (
(287,-308,o),
(318,-300,o),
(366,-285,c),
(366,-89,l),
(343,-99,o),
(323,-105,o),
(299,-105,cs),
(261,-105,o),
(237,-94,o),
(237,-70,cs),
(237,-43,o),
(270,-5,o),
(366,0,c),
(366,116,o),
(366,233,o),
(366,349,c),
(251,349,o),
(135,349,o),
(20,349,c),
(20,324,o),
(20,298,o),
(20,273,cs),
(20,182,o),
(20,91,o),
(20,0,c),
(1,-42,o),
(-8,-85,o),
(-8,-131,cs),
(-8,-251,o),
(81,-308,o),
(224,-308,cs)
);
},
{
closed = 1;
nodes = (
(135,373,o),
(250,397,o),
(365,421,c),
(365,421,o),
(366,422,o),
(366,422,cs),
(366,488,o),
(366,554,o),
(366,620,c),
(20,620,l),
(20,530,o),
(20,439,o),
(20,349,c)
);
}
);
width = 386;
}
);
unicode = 303;
},
{
color = 6;
glyphname = j;
kernLeft = j;
kernRight = j;
lastChange = "2021-09-06 15:12:36 +0000";
layers = (
{
layerId = "F6D8640C-383C-48A8-B63C-DDE9F10207CE";
shapes = (
{
closed = 1;
nodes = (
(366,-56,l),
(366,81,o),
(366,212,o),
(366,349,c),
(20,349,l),
(20,189,o),
(20,34,o),
(20,-126,c)
);
},
{
closed = 1;
nodes = (
(135,373,o),
(250,397,o),
(365,421,c),
(365,421,o),
(366,422,o),
(366,422,cs),
(366,488,o),
(366,554,o),
(366,620,c),
(20,620,l),
(20,530,o),
(20,439,o),
(20,349,c)
);
}
);
width = 386;
},
{
layerId = "96858A69-C8A6-410B-90BB-94EA0DA45935";
shapes = (
{
closed = 1;
nodes = (
(239,34,l),
(229,91,o),
(229,172,o),
(229,239,c),
(139,239,l),
(139,198,o),
(139,65,o),
(109,-9,c)
);
},
{
closed = 1;
nodes = (
(138,469,o),
(150,476,o),
(183,487,cs),
(213,497,o),
(240,508,o),
(240,528,cs),
(240,551,o),
(240,528,o),
(240,551,c),
(124,551,l),
(124,520,o),
(124,489,o),
(124,458,c)
);
}
);
width = 380;
}
);
unicode = 106;
},
{
color = 6;
glyphname = jdotless;
kernLeft = j;
kernRight = j;
lastChange = "2021-09-06 15:12:36 +0000";
layers = (
{
anchors = (
{
name = bottom;
pos = (193,-120);
},
{
name = top;
pos = (193,620);
}
);
layerId = "F6D8640C-383C-48A8-B63C-DDE9F10207CE";
shapes = (
{
closed = 1;
nodes = (
(366,-56,l),
(366,54,o),
(366,160,o),
(366,270,cs),
(366,386,o),
(366,503,o),
(366,620,c),
(20,620,l),
(20,519,o),
(20,419,o),
(20,318,cs),
(20,169,o),
(20,23,o),
(20,-126,c)
);
}
);
width = 386;
},
{
anchors = (
{
name = bottom;
pos = (178,-120);
},
{
name = top;
pos = (178,620);
}
);
layerId = "96858A69-C8A6-410B-90BB-94EA0DA45935";
shapes = (
{
closed = 1;
nodes = (
(242,34,l),
(230,97,o),
(227,163,o),
(227,228,cs),
(227,329,o),
(233,426,o),
(233,505,c),
(130,505,l),
(146,458,o),
(153,388,o),
(153,312,cs),
(153,200,o),
(137,74,o),
(112,-9,c)
);
}
);
width = 378;
}
);
metricLeft = i;
unicode = 567;
},
{
color = 6;
glyphname = k;
kernLeft = h;
kernRight = k;
lastChange = "2021-09-06 15:12:36 +0000";
layers = (
{
anchors = (
{
name = bottom;
pos = (423,0);
},
{
name = top;
pos = (423,750);
}
);
background = {
shapes = (
{
closed = 1;
nodes = (
(325,373,l),
(338,460,l),
(338,750,l),
(-30,750,l),
(-30,0,l),
(338,0,l),
(336,187,l),
(323,242,l),
(333,243,l),
(455,-2,l),
(849,-2,l),
(648,345,l),
(641,303,l),
(839,620,l),
(463,620,l),
(335,370,l)
);
}
);
};
layerId = "96858A69-C8A6-410B-90BB-94EA0DA45935";
name = "2050";
shapes = (
{
closed = 1;
nodes = (
(309,115,l),
(280,143,o),
(265,186,o),
(265,226,cs),
(265,277,o),
(289,323,o),
(339,323,c),
(298,327,o),
(249,339,o),
(249,418,cs),
(249,511,o),
(309,592,o),
(289,645,c),
(163,645,l),
(178,590,o),
(183,534,o),
(183,478,cs),
(183,357,o),
(160,233,o),
(163,115,c)
);
},
{
closed = 1;
nodes = (
(697,505,l),
(601,505,l),
(574,399,ls),
(557,333,o),
(518,325,o),
(480,321,c),
(501,314,o),
(527,271,o),
(536,248,cs),
(567,169,o),
(549,129,o),
(535,115,c),
(713,115,l),
(591,254,ls),
(549,302,o),
(536,328,o),
(569,364,cs)
);
}
);
width = 893;
},
{
anchors = (
{
name = bottom;
pos = (428,0);
},
{
name = top;
pos = (428,750);
}
);
layerId = "F6D8640C-383C-48A8-B63C-DDE9F10207CE";
metricLeft = "=n";
name = Regular;
shapes = (
{
closed = 1;
nodes = (
(366,0,l),
(366,67,o),
(366,176,o),
(366,246,cs),
(366,279,o),
(366,303,o),
(366,311,c),
(366,313,o),
(366,314,o),
(366,314,cs),
(366,460,o),
(366,604,o),
(366,750,c),
(20,750,l),
(20,662,o),
(20,574,o),
(20,486,cs),
(20,324,o),
(20,162,o),
(20,0,c)
);
},
{
closed = 1;
nodes = (
(899,620,l),
(507,620,l),
(367,312,l),
(367,312,o),
(366,310,o),
(366,310,c),
(366,310,o),
(367,308,o),
(367,308,c),
(412,205,o),
(457,103,o),
(502,0,c),
(905,0,l),
(713,325,ls),
(712,326,o),
(712,327,o),
(713,328,cs)
);
}
);
width = 894;
}
);
unicode = 107;
},
{
color = 6;
glyphname = kgreenlandic;
kernLeft = h;
kernRight = k;
lastChange = "2021-09-06 15:12:36 +0000";
layers = (
{
background = {
shapes = (
{
pos = (-20,0);
ref = k;
}
);
};
layerId = "F6D8640C-383C-48A8-B63C-DDE9F10207CE";
shapes = (
{
closed = 1;
nodes = (
(366,0,l),
(366,67,o),
(366,176,o),
(366,246,cs),
(366,279,o),
(366,303,o),
(366,311,c),
(366,313,o),
(366,314,o),
(366,314,cs),
(366,384,o),
(366,474,o),
(366,620,c),
(20,620,l),
(20,532,o),
(20,498,o),
(20,410,cs),
(20,248,o),
(20,162,o),
(20,0,c)
);
},
{
closed = 1;
nodes = (
(899,620,l),
(507,620,l),
(367,312,l),
(367,312,o),
(366,310,o),
(366,310,c),
(366,310,o),
(367,308,o),
(367,308,c),
(412,205,o),
(457,103,o),
(502,0,c),
(905,0,l),
(713,325,ls),
(712,326,o),
(712,327,o),
(713,328,cs)
);
}
);
width = 894;
},
{
layerId = "96858A69-C8A6-410B-90BB-94EA0DA45935";
shapes = (
{
closed = 1;
nodes = (
(309,115,l),
(280,143,o),
(265,186,o),
(265,226,cs),
(265,277,o),
(289,323,o),
(339,323,c),
(298,325,o),
(249,337,o),
(249,381,cs),
(249,425,o),
(302,456,o),
(289,505,c),
(163,505,l),
(178,473,o),
(188,440,o),
(188,385,cs),
(188,280,o),
(160,220,o),
(163,115,c)
);
},
{
closed = 1;
nodes = (
(697,505,l),
(601,505,l),
(574,399,ls),
(557,333,o),
(518,325,o),
(480,321,c),
(501,314,o),
(527,271,o),
(536,248,cs),
(567,169,o),
(549,129,o),
(535,115,c),
(713,115,l),
(591,254,ls),
(549,302,o),
(536,328,o),
(569,364,cs)
);
}
);
width = 893;
}
);
metricLeft = k;
metricRight = k;
unicode = 312;
},
{
color = 6;
glyphname = khook;
kernLeft = h;
kernRight = k;
lastChange = "2021-09-06 15:12:36 +0000";
layers = (
{
anchors = (
{
name = bottom;
pos = (423,0);
},
{
name = top;
pos = (423,750);
}
);
layerId = "96858A69-C8A6-410B-90BB-94EA0DA45935";
shapes = (
{
closed = 1;
nodes = (
(309,115,l),
(280,143,o),
(265,186,o),
(265,226,cs),
(265,277,o),
(289,323,o),
(339,323,c),
(298,327,o),
(249,339,o),
(249,418,cs),
(249,535,o),
(270,646,o),
(433,646,cs),
(437,646,o),
(441,646,o),
(445,646,c),
(445,647,l),
(442,647,o),
(438,647,o),
(435,647,cs),
(225,647,o),
(183,559,o),
(183,478,cs),
(183,357,o),
(160,233,o),
(163,115,c)
);
},
{
closed = 1;
nodes = (
(713,115,l),
(591,254,ls),
(549,302,o),
(536,328,o),
(569,364,cs),
(697,505,l),
(601,505,l),
(574,399,ls),
(557,333,o),
(518,325,o),
(480,321,c),
(501,314,o),
(527,271,o),
(536,248,cs),
(567,169,o),
(549,129,o),
(535,115,c)
);
}
);
width = 893;
},
{
anchors = (
{
name = bottom;
pos = (423,0);
},
{
name = top;
pos = (423,750);
}
);
background = {
shapes = (
{
angle = 180;
pos = (455,620);
ref = nhookleft;
}
);
};
layerId = "F6D8640C-383C-48A8-B63C-DDE9F10207CE";
name = Regular;
shapes = (
{
closed = 1;
nodes = (
(366,0,l),
(366,73,o),
(366,134,o),
(366,185,cs),
(366,227,o),
(366,262,o),
(366,293,cs),
(366,413,o),
(366,446,o),
(366,507,cs),
(366,552,o),
(386,574,o),
(425,574,cs),
(442,574,o),
(454,572,o),
(463,566,c),
(463,766,l),
(425,774,o),
(369,780,o),
(322,780,cs),
(141,780,o),
(20,715,o),
(20,515,cs),
(20,452,o),
(20,163,o),
(20,0,c)
);
},
{
closed = 1;
nodes = (
(905,0,l),
(713,325,ls),
(712,326,o),
(712,327,o),
(713,328,cs),
(899,620,l),
(507,620,l),
(367,312,l),
(367,312,o),
(366,310,o),
(366,310,c),
(366,310,o),
(367,308,o),
(367,308,c),
(412,205,o),
(457,103,o),
(502,0,c)
);
}
);
width = 894;
}
);
unicode = 409;
},
{
color = 6;
glyphname = l;
kernLeft = h;
kernRight = l;
lastChange = "2021-09-06 15:12:36 +0000";
layers = (
{
anchors = (
{
name = bottom;
pos = (196,0);
},
{
name = center;
pos = (196,375);
},
{
name = top;
pos = (196,750);
},
{
name = topright;
pos = (356,620);
}
);
layerId = "F6D8640C-383C-48A8-B63C-DDE9F10207CE";
shapes = (
{
closed = 1;
nodes = (
(366,0,l),
(366,194,o),
(366,389,o),
(366,583,cs),
(366,639,o),
(366,694,o),
(366,750,c),
(20,750,l),
(20,659,o),
(20,568,o),
(20,477,cs),
(20,318,o),
(20,159,o),
(20,0,c)
);
}
);
width = 386;
},
{
anchors = (
{
name = bottom;
pos = (176,0);
},
{
name = center;
pos = (176,375);
},
{
name = top;
pos = (176,750);
},
{
name = topright;
pos = (364,620);
}
);
layerId = "96858A69-C8A6-410B-90BB-94EA0DA45935";
shapes = (
{
closed = 1;
nodes = (
(269,115,l),
(227,272,o),
(206,429,o),
(206,567,cs),
(206,594,o),
(206,620,o),
(208,645,c),
(119,645,l),
(134,591,o),
(140,533,o),
(140,474,cs),
(140,335,o),
(109,195,o),
(109,115,c)
);
}
);
width = 368;
}
);
unicode = 108;
},
{
color = 3;
glyphname = ldot;
kernLeft = h;
kernRight = l;
lastChange = "2021-09-04 07:33:57 +0000";
layers = (
{
layerId = "F6D8640C-383C-48A8-B63C-DDE9F10207CE";
shapes = (
{
closed = 1;
nodes = (
(668,273,l),
(668,497,l),
(397,497,l),
(397,273,l)
);
},
{
ref = l;
}
);
width = 688;
},
{
layerId = "96858A69-C8A6-410B-90BB-94EA0DA45935";
shapes = (
{
closed = 1;
nodes = (
(579,329,l),
(579,380,l),
(490,380,l),
(490,329,l)
);
},
{
alignment = -1;
ref = l;
}
);
width = 686;
}
);
metricLeft = l;
unicode = 320;
},
{
color = 3;
glyphname = lslash;
kernLeft = l;
kernRight = l;
lastChange = "2021-09-06 15:12:36 +0000";
layers = (
{
layerId = "96858A69-C8A6-410B-90BB-94EA0DA45935";
shapes = (
{
closed = 1;
nodes = (
(312,432,l),
(312,440,l),
(58,316,l),
(58,308,l)
);
},
{
pos = (6,0);
ref = l;
}
);
width = 383;
},
{
layerId = "F6D8640C-383C-48A8-B63C-DDE9F10207CE";
shapes = (
{
closed = 1;
nodes = (
(476,451,l),
(476,551,l),
(12,315,l),
(12,215,l)
);
},
{
pos = (53,0);
ref = l;
}
);
width = 487;
}
);
unicode = 322;
},
{
color = 6;
glyphname = m;
kernLeft = n;
kernRight = n;
lastChange = "2021-09-06 15:12:36 +0000";
layers = (
{
anchors = (
{
name = bottom;
pos = (648,0);
},
{
name = top;
pos = (648,620);
}
);
layerId = "F6D8640C-383C-48A8-B63C-DDE9F10207CE";
shapes = (
{
closed = 1;
nodes = (
(366,0,l),
(366,119,o),
(366,238,o),
(366,357,cs),
(366,445,o),
(366,532,o),
(366,620,c),
(20,620,l),
(20,556,o),
(20,492,o),
(20,427,cs),
(20,285,o),
(20,142,o),
(20,0,c)
);
},
{
closed = 1;
nodes = (
(824,0,l),
(824,86,o),
(824,173,o),
(824,259,cs),
(824,288,o),
(824,316,o),
(824,345,c),
(824,384,o),
(824,424,o),
(824,463,cs),
(824,592,o),
(721,642,o),
(610,642,cs),
(556,642,o),
(500,631,o),
(452,610,c),
(372,353,l),
(382,370,o),
(478,393,o),
(478,316,cs),
(478,212,o),
(478,104,o),
(478,0,c)
);
},
{
closed = 1;
nodes = (
(1276,0,l),
(1276,463,ls),
(1276,592,o),
(1169,642,o),
(1054,642,cs),
(999,642,o),
(942,631,o),
(894,610,c),
(824,353,l),
(834,370,o),
(930,393,o),
(930,316,cs),
(930,212,o),
(930,104,o),
(930,0,c)
);
}
);
width = 1295;
},
{
anchors = (
{
name = bottom;
pos = (633,0);
},
{
name = top;
pos = (633,620);
}
);
layerId = "96858A69-C8A6-410B-90BB-94EA0DA45935";
shapes = (
{
closed = 1;
nodes = (
(266,115,l),
(241,192,o),
(229,272,o),
(229,341,cs),
(229,410,o),
(241,468,o),
(263,505,c),
(106,505,l),
(119,481,o),
(123,441,o),
(123,395,cs),
(123,301,o),
(105,180,o),
(102,115,c)
);
},
{
closed = 1;
nodes = (
(727,115,l),
(711,141,o),
(700,201,o),
(700,258,cs),
(700,324,o),
(714,385,o),
(751,385,c),
(733,386,o),
(708,410,o),
(699,421,cs),
(682,442,o),
(638,519,o),
(556,519,cs),
(547,519,o),
(538,518,o),
(528,516,c),
(528,512,l),
(569,516,o),
(633,490,o),
(633,316,cs),
(633,212,o),
(595,142,o),
(560,115,c)
);
},
{
closed = 1;
nodes = (
(1166,115,l),
(1166,352,ls),
(1166,427,o),
(1129,495,o),
(1037,495,cs),
(1016,495,o),
(991,491,o),
(964,483,c),
(964,478,l),
(1014,500,o),
(1080,444,o),
(1080,316,cs),
(1080,242,o),
(1047,163,o),
(1016,115,c)
);
}
);
width = 1300;
}
);
metricLeft = n;
metricRight = n;
unicode = 109;
},
{
color = 6;
glyphname = n;
kernLeft = n;
kernRight = n;
lastChange = "2021-09-06 15:12:36 +0000";
layers = (
{
anchors = (
{
name = bottom;
pos = (419,0);
},
{
name = top;
pos = (419,620);
}
);
background = {
shapes = (
{
pos = (-50,0);
ref = o;
}
);
};
layerId = "F6D8640C-383C-48A8-B63C-DDE9F10207CE";
shapes = (
{
closed = 1;
nodes = (
(818,0,l),
(818,463,ls),
(818,592,o),
(715,642,o),
(604,642,cs),
(550,642,o),
(494,631,o),
(446,610,c),
(366,353,l),
(376,370,o),
(472,393,o),
(472,316,cs),
(472,212,o),
(472,104,o),
(472,0,c)
);
},
{
closed = 1;
nodes = (
(366,0,l),
(366,95,o),
(366,202,o),
(366,301,cs),
(366,319,o),
(366,336,o),
(366,353,c),
(366,448,o),
(366,525,o),
(366,620,c),
(251,620,o),
(135,620,o),
(20,620,c),
(20,542,o),
(20,464,o),
(20,386,cs),
(20,257,o),
(20,128,o),
(20,0,c)
);
}
);
width = 837;
},
{
anchors = (
{
name = bottom;
pos = (398,0);
},
{
name = top;
pos = (398,620);
}
);
layerId = "96858A69-C8A6-410B-90BB-94EA0DA45935";
shapes = (
{
closed = 1;
nodes = (
(691,115,l),
(691,408,ls),
(691,463,o),
(652,502,o),
(596,502,cs),
(575,502,o),
(552,497,o),
(527,485,c),
(527,484,l),
(575,488,o),
(617,432,o),
(617,318,cs),
(617,206,o),
(581,147,o),
(555,115,c)
);
},
{
closed = 1;
nodes = (
(252,115,l),
(235,156,o),
(221,228,o),
(221,283,cs),
(221,327,o),
(230,361,o),
(254,361,c),
(220,367,o),
(208,469,o),
(212,505,c),
(209,505,o),
(135,505,o),
(102,505,c),
(127,459,o),
(135,414,o),
(135,372,cs),
(135,275,o),
(93,188,o),
(112,115,c)
);
}
);
width = 825;
}
);
unicode = 110;
},
{
color = 3;
glyphname = napostrophe;
kernLeft = n;
kernRight = n;
lastChange = "2021-09-04 07:33:57 +0000";
layers = (
{
layerId = "F6D8640C-383C-48A8-B63C-DDE9F10207CE";
shapes = (
{
closed = 1;
nodes = (
(355,750,l),
(20,750,l),
(20,459,l),
(355,387,l)
);
},
{
pos = (375,0);
ref = n;
}
);
width = 1212;
},
{
layerId = "96858A69-C8A6-410B-90BB-94EA0DA45935";
shapes = (
{
closed = 1;
nodes = (
(207,645,l),
(102,645,l),
(102,562,l),
(207,539,l)
);
},
{
alignment = -1;
pos = (298,0);
ref = n;
}
);
width = 1123;
}
);
metricRight = n;
unicode = 329;
},
{
color = 6;
glyphname = nhookleft;
kernLeft = nhookleft;
kernRight = n;
lastChange = "2021-09-06 15:12:36 +0000";
layers = (
{
layerId = "96858A69-C8A6-410B-90BB-94EA0DA45935";
shapes = (
{
closed = 1;
nodes = (
(194,24,o),
(207,60,o),
(207,106,cs),
(207,150,o),
(192,177,o),
(192,234,cs),
(192,297,o),
(210,361,o),
(252,361,c),
(218,367,o),
(206,469,o),
(210,505,c),
(207,505,o),
(133,505,o),
(100,505,c),
(143,427,o),
(156,353,o),
(156,261,cs),
(156,162,o),
(129,103,o),
(58,59,c),
(171,7,l)
);
},
{
closed = 1;
nodes = (
(689,115,l),
(689,383,ls),
(689,431,o),
(650,471,o),
(593,471,cs),
(572,471,o),
(549,466,o),
(525,454,c),
(525,453,l),
(573,457,o),
(615,401,o),
(615,287,cs),
(615,192,o),
(579,142,o),
(553,115,c)
);
}
);
width = 823;
},
{
background = {
shapes = (
{
pos = (-383,0);
ref = eng;
}
);
};
layerId = "F6D8640C-383C-48A8-B63C-DDE9F10207CE";
name = Regular;
shapes = (
{
closed = 1;
nodes = (
(335,-195,o),
(435,-84,o),
(435,43,cs),
(435,174,o),
(435,231,o),
(435,273,cs),
(435,297,o),
(435,319,o),
(435,353,cs),
(435,442,o),
(435,531,o),
(435,620,c),
(320,620,o),
(204,620,o),
(89,620,c),
(89,437,o),
(89,315,o),
(89,132,cs),
(89,77,o),
(62,61,o),
(5,76,c),
(5,-154,l)
);
},
{
closed = 1;
nodes = (
(887,0,l),
(887,463,ls),
(887,592,o),
(784,642,o),
(673,642,cs),
(619,642,o),
(563,631,o),
(515,610,c),
(435,353,l),
(445,370,o),
(541,388,o),
(541,311,cs),
(541,207,o),
(541,104,o),
(541,0,c)
);
}
);
width = 906;
}
);
unicode = 626;
},
{
color = 6;
glyphname = eng;
kernLeft = n;
kernRight = n;
lastChange = "2021-09-06 15:12:36 +0000";
layers = (
{
layerId = "96858A69-C8A6-410B-90BB-94EA0DA45935";
shapes = (
{
closed = 1;
nodes = (
(674,37,o),
(691,99,o),
(691,178,cs),
(691,389,ls),
(691,448,o),
(652,488,o),
(595,488,cs),
(574,488,o),
(551,483,o),
(527,471,c),
(527,470,l),
(575,474,o),
(617,418,o),
(617,287,cs),
(617,269,ls),
(617,170,o),
(601,89,o),
(510,57,c),
(617,8,l)
);
},
{
closed = 1;
nodes = (
(252,115,l),
(235,156,o),
(221,228,o),
(221,283,cs),
(221,327,o),
(230,361,o),
(254,361,c),
(220,367,o),
(208,469,o),
(212,505,c),
(209,505,o),
(135,505,o),
(102,505,c),
(127,459,o),
(135,414,o),
(135,372,cs),
(135,275,o),
(93,188,o),
(112,115,c)
);
}
);
width = 825;
},
{
background = {
shapes = (
{
pos = (447,0);
ref = nhookleft;
}
);
};
layerId = "F6D8640C-383C-48A8-B63C-DDE9F10207CE";
name = Regular;
shapes = (
{
closed = 1;
nodes = (
(663,-190,o),
(818,-117,o),
(818,49,cs),
(818,463,ls),
(818,592,o),
(715,642,o),
(604,642,cs),
(550,642,o),
(494,631,o),
(446,610,c),
(366,353,l),
(376,370,o),
(472,388,o),
(472,311,cs),
(472,134,ls),
(472,72,o),
(441,62,o),
(390,76,c),
(390,-154,l)
);
},
{
closed = 1;
nodes = (
(366,0,l),
(366,100,o),
(366,214,o),
(366,317,cs),
(366,329,o),
(366,341,o),
(366,353,c),
(366,448,o),
(366,525,o),
(366,620,c),
(251,620,o),
(135,620,o),
(20,620,c),
(20,546,o),
(20,472,o),
(20,398,cs),
(20,265,o),
(20,132,o),
(20,0,c)
);
}
);
width = 837;
}
);
unicode = 331;
},
{
color = 6;
glyphname = o;
kernLeft = o;
kernRight = o;
lastChange = "2021-09-06 15:12:36 +0000";
layers = (
{
anchors = (
{
name = bottom;
pos = (460,-30);
},
{
name = center;
pos = (460,310);
},
{
name = ogonek;
pos = (641,10);
},
{
name = top;
pos = (460,620);
},
{
name = topright;
pos = (900,620);
}
);
layerId = "F6D8640C-383C-48A8-B63C-DDE9F10207CE";
shapes = (
{
closed = 1;
nodes = (
(710,-30,o),
(910,82,o),
(910,309,cs),
(910,536,o),
(710,650,o),
(460,650,cs),
(211,650,o),
(10,536,o),
(10,309,cs),
(10,78,o),
(210,-30,o),
(460,-30,cs)
);
},
{
closed = 1;
nodes = (
(376,235,o),
(345,273,o),
(345,310,cs),
(345,346,o),
(375,385,o),
(461,385,cs),
(546,385,o),
(575,345,o),
(575,311,cs),
(575,274,o),
(544,235,o),
(461,235,cs)
);
}
);
width = 920;
},
{
anchors = (
{
name = bottom;
pos = (454,0);
},
{
name = center;
pos = (454,310);
},
{
name = ogonek;
pos = (560,97);
},
{
name = top;
pos = (454,620);
},
{
name = topright;
pos = (892,620);
}
);
layerId = "96858A69-C8A6-410B-90BB-94EA0DA45935";
name = "2050";
shapes = (
{
closed = 1;
nodes = (
(663,85,o),
(687,197,o),
(767,310,cs),
(847,423,o),
(665,535,o),
(452,535,cs),
(250,535,o),
(247,453,o),
(127,310,cs),
(37,203,o),
(314,85,o),
(452,85,cs)
);
},
{
closed = 1;
nodes = (
(343,91,o),
(247,230,o),
(247,351,cs),
(247,448,o),
(254,530,o),
(452,530,cs),
(648,530,o),
(703,416,o),
(703,296,cs),
(703,176,o),
(622,91,o),
(464,91,cs)
);
}
);
width = 920;
}
);
unicode = 111;
},
{
color = 6;
glyphname = oogonek;
kernLeft = o;
kernRight = o;
lastChange = "2021-09-06 15:12:36 +0000";
layers = (
{
background = {
shapes = (
{
ref = o;
}
);
};
layerId = "96858A69-C8A6-410B-90BB-94EA0DA45935";
shapes = (
{
closed = 1;
nodes = (
(486,-120,o),
(532,-92,o),
(560,-49,c),
(560,-48,l),
(555,-49,o),
(550,-49,o),
(545,-49,cs),
(507,-49,o),
(477,-25,o),
(477,11,cs),
(477,57,o),
(525,83,o),
(584,110,cs),
(660,145,o),
(702,188,o),
(767,310,cs),
(831,430,o),
(665,535,o),
(452,535,cs),
(250,535,o),
(247,453,o),
(127,310,cs),
(37,203,o),
(310,86,o),
(460,86,cs),
(604,86,o),
(346,37,o),
(346,-60,cs),
(346,-92,o),
(375,-120,o),
(431,-120,cs)
);
},
{
closed = 1;
nodes = (
(298,92,o),
(247,230,o),
(247,351,cs),
(247,441,o),
(254,530,o),
(455,530,cs),
(655,530,o),
(703,416,o),
(703,296,cs),
(703,171,o),
(604,92,o),
(460,92,cs)
);
}
);
width = 915;
},
{
background = {
anchors = (
{
name = bottom;
pos = (460,0);
},
{
name = center;
pos = (460,310);
},
{
name = ogonek;
pos = (692,10);
},
{
name = top;
pos = (460,620);
},
{
name = topright;
pos = (900,620);
}
);
guides = (
{
angle = 269.8226;
pos = (461,232);
}
);
shapes = (
{
ref = o;
}
);
};
layerId = "F6D8640C-383C-48A8-B63C-DDE9F10207CE";
name = Regular;
shapes = (
{
closed = 1;
nodes = (
(586,-302,o),
(627,-294,o),
(679,-279,c),
(679,-83,l),
(649,-95,o),
(632,-99,o),
(606,-99,cs),
(564,-99,o),
(540,-86,o),
(540,-64,cs),
(540,-43,o),
(561,-27,o),
(629,-10,cs),
(794,32,o),
(910,136,o),
(910,307,cs),
(910,536,o),
(710,650,o),
(460,650,cs),
(211,650,o),
(10,536,o),
(10,307,cs),
(10,111,o),
(157,14,o),
(318,-17,c),
(295,-37,o),
(271,-84,o),
(271,-134,cs),
(271,-241,o),
(356,-302,o),
(527,-302,cs)
);
},
{
closed = 1;
nodes = (
(376,235,o),
(345,273,o),
(345,310,cs),
(345,346,o),
(375,385,o),
(461,385,cs),
(546,385,o),
(575,345,o),
(575,311,cs),
(575,274,o),
(544,235,o),
(461,235,cs)
);
}
);
width = 920;
}
);
metricLeft = o;
metricRight = o;
unicode = 491;
},
{
color = 3;
glyphname = oslash;
kernLeft = o;
kernRight = o;
lastChange = "2021-09-06 15:12:36 +0000";
layers = (
{
anchors = (
{
name = bottom;
pos = (460,0);
},
{
name = top;
pos = (460,620);
}
);
layerId = "F6D8640C-383C-48A8-B63C-DDE9F10207CE";
shapes = (
{
closed = 1;
nodes = (
(882,630,l),
(831,684,l),
(37,-11,l),
(89,-66,l)
);
},
{
ref = o;
}
);
width = 920;
},
{
anchors = (
{
name = bottom;
pos = (460,0);
},
{
name = top;
pos = (460,620);
}
);
layerId = "96858A69-C8A6-410B-90BB-94EA0DA45935";
shapes = (
{
closed = 1;
nodes = (
(744,561,l),
(739,567,l),
(168,66,l),
(173,60,l)
);
},
{
ref = o;
}
);
width = 920;
}
);
metricLeft = o;
metricRight = o;
unicode = 248;
},
{
color = 6;
glyphname = oe;
kernLeft = o;
kernRight = e;
lastChange = "2021-09-06 15:12:36 +0000";
layers = (
{
anchors = (
{
name = bottom;
pos = (714,0);
},
{
name = top;
pos = (714,620);
}
);
layerId = "96858A69-C8A6-410B-90BB-94EA0DA45935";
shapes = (
{
closed = 1;
nodes = (
(566,85,o),
(651,133,o),
(711,201,c),
(783,140,o),
(885,85,o),
(1006,85,cs),
(1105,85,o),
(1174,128,o),
(1201,146,c),
(1196,151,l),
(1163,127,o),
(1098,90,o),
(1006,90,cs),
(933,90,o),
(829,154,o),
(829,232,cs),
(829,259,o),
(830,311,o),
(926,311,cs),
(1326,311,l),
(1322,388,o),
(1246,535,o),
(992,535,cs),
(862,535,o),
(782,512,o),
(719,462,c),
(653,507,o),
(562,535,o),
(456,535,cs),
(250,535,o),
(247,453,o),
(127,310,cs),
(37,203,o),
(314,85,o),
(452,85,cs)
);
},
{
closed = 1;
nodes = (
(332,90,o),
(247,229,o),
(247,351,cs),
(247,444,o),
(257,530,o),
(458,530,cs),
(658,530,o),
(675,410,o),
(675,348,cs),
(675,211,o),
(617,90,o),
(462,90,cs)
);
},
{
closed = 1;
nodes = (
(913,311,o),
(801,319,o),
(801,402,cs),
(801,494,o),
(870,530,o),
(980,530,cs),
(1129,530,o),
(1184,454,o),
(1184,376,cs),
(1184,340,o),
(1164,311,o),
(1150,311,cs),
(927,311,ls)
);
}
);
width = 1436;
},
{
anchors = (
{
name = bottom;
pos = (715,0);
},
{
name = top;
pos = (715,620);
}
);
layerId = "F6D8640C-383C-48A8-B63C-DDE9F10207CE";
shapes = (
{
closed = 1;
nodes = (
(562,-30,o),
(675,5,o),
(727,42,c),
(778,5,o),
(887,-30,o),
(989,-30,cs),
(1184,-30,o),
(1377,69,o),
(1412,196,c),
(1103,297,l),
(1101,258,o),
(1056,233,o),
(991,233,cs),
(925,233,o),
(877,260,o),
(877,296,cs),
(877,297,o),
(877,297,o),
(878,297,cs),
(1421,297,l),
(1421,540,o),
(1243,650,o),
(989,650,cs),
(890,650,o),
(773,612,o),
(729,579,c),
(683,612,o),
(562,650,o),
(460,650,cs),
(211,650,o),
(10,537,o),
(10,310,cs),
(10,83,o),
(210,-30,o),
(460,-30,cs)
);
},
{
closed = 1;
nodes = (
(395,235,o),
(343,261,o),
(343,311,cs),
(343,360,o),
(395,385,o),
(458,385,cs),
(520,385,o),
(573,360,o),
(573,311,cs),
(573,261,o),
(520,235,o),
(458,235,cs)
);
},
{
closed = 1;
nodes = (
(878,326,o),
(878,326,o),
(878,328,cs),
(878,367,o),
(931,390,o),
(989,390,cs),
(1048,390,o),
(1101,367,o),
(1101,328,cs),
(1101,327,o),
(1101,326,o),
(1100,326,cs),
(879,326,ls)
);
}
);
width = 1429;
}
);
metricLeft = o;
metricRight = e;
unicode = 339;
},
{
color = 6;
glyphname = p;
kernLeft = n;
kernRight = o;
lastChange = "2021-09-06 15:12:36 +0000";
layers = (
{
anchors = (
{
name = bottom;
pos = (483,0);
},
{
name = top;
pos = (483,620);
}
);
layerId = "F6D8640C-383C-48A8-B63C-DDE9F10207CE";
shapes = (
{
closed = 1;
nodes = (
(950,516,o),
(780,635,o),
(575,635,cs),
(534,635,o),
(491,630,o),
(447,620,c),
(367,321,l),
(381,366,o),
(429,385,o),
(485,385,cs),
(563,385,o),
(600,351,o),
(600,309,cs),
(600,272,o),
(563,235,o),
(485,235,cs),
(425,235,o),
(366,259,o),
(366,309,cs),
(366,416,o),
(366,513,o),
(366,620,c),
(20,620,l),
(20,453,o),
(20,291,o),
(20,126,cs),
(20,45,o),
(20,-37,o),
(20,-120,c),
(366,-120,l),
(366,40,ls),
(366,41,o),
(367,42,o),
(368,41,c),
(423,4,o),
(507,-15,o),
(580,-15,cs),
(769,-15,o),
(950,111,o),
(950,311,cs)
);
}
);
width = 960;
},
{
anchors = (
{
name = bottom;
pos = (466,0);
},
{
name = top;
pos = (466,620);
}
);
background = {
shapes = (
{
ref = o;
}
);
};
layerId = "96858A69-C8A6-410B-90BB-94EA0DA45935";
shapes = (
{
closed = 1;
nodes = (
(896,354,o),
(767,489,o),
(644,489,cs),
(632,489,o),
(620,488,o),
(608,485,c),
(608,484,l),
(609,484,o),
(608,484,o),
(609,484,cs),
(627,484,o),
(706,419,o),
(706,290,cs),
(706,166,o),
(598,91,o),
(488,91,cs),
(374,91,o),
(233,165,o),
(233,327,cs),
(233,404,o),
(270,481,o),
(288,505,c),
(118,505,l),
(93,406,o),
(161,261,o),
(161,122,cs),
(161,78,o),
(154,26,o),
(136,-15,c),
(246,-15,l),
(245,4,ls),
(242,52,o),
(197,141,o),
(276,141,cs),
(321,141,o),
(381,86,o),
(489,86,cs),
(646,86,o),
(771,233,o),
(836,296,cs)
);
}
);
width = 942;
}
);
metricLeft = i;
unicode = 112;
},
{
color = 6;
glyphname = thorn;
kernLeft = p;
kernRight = o;
lastChange = "2021-09-06 15:12:36 +0000";
layers = (
{
layerId = "F6D8640C-383C-48A8-B63C-DDE9F10207CE";
shapes = (
{
closed = 1;
nodes = (
(366,-120,l),
(366,40,ls),
(366,41,o),
(367,42,o),
(368,41,c),
(423,4,o),
(507,-15,o),
(580,-15,cs),
(769,-15,o),
(950,111,o),
(950,311,cs),
(950,516,o),
(780,635,o),
(575,635,cs),
(534,635,o),
(491,630,o),
(447,620,c),
(367,321,l),
(381,366,o),
(429,385,o),
(485,385,cs),
(563,385,o),
(600,351,o),
(600,309,cs),
(600,272,o),
(563,235,o),
(485,235,cs),
(425,235,o),
(366,259,o),
(366,309,cs),
(366,416,o),
(366,546,o),
(366,750,c),
(20,750,l),
(20,519,o),
(20,321,o),
(20,140,cs),
(20,50,o),
(20,-36,o),
(20,-120,c)
);
}
);
width = 960;
},
{
layerId = "96858A69-C8A6-410B-90BB-94EA0DA45935";
shapes = (
{
closed = 1;
nodes = (
(247,-15,l),
(246,4,ls),
(243,52,o),
(198,141,o),
(277,141,cs),
(322,141,o),
(382,86,o),
(490,86,cs),
(647,86,o),
(772,228,o),
(837,291,cs),
(897,349,o),
(768,484,o),
(645,484,cs),
(633,484,o),
(620,483,o),
(608,480,c),
(608,479,l),
(609,479,o),
(609,479,o),
(610,479,cs),
(626,479,o),
(706,409,o),
(706,285,cs),
(706,158,o),
(599,91,o),
(489,91,cs),
(375,91,o),
(234,171,o),
(234,350,cs),
(234,471,o),
(237,533,o),
(272,645,c),
(119,645,l),
(90,488,o),
(162,267,o),
(162,122,cs),
(162,78,o),
(155,26,o),
(137,-15,c)
);
}
);
width = 943;
}
);
metricLeft = p;
metricRight = p;
unicode = 254;
},
{
color = 6;
glyphname = q;
kernLeft = o;
kernRight = q;
lastChange = "2021-09-06 15:12:36 +0000";
layers = (
{
anchors = (
{
name = bottom;
pos = (479,0);
},
{
name = top;
pos = (479,620);
}
);
layerId = "F6D8640C-383C-48A8-B63C-DDE9F10207CE";
shapes = (
{
closed = 1;
nodes = (
(940,620,l),
(940,511,o),
(940,404,o),
(940,298,cs),
(940,159,o),
(940,21,o),
(940,-120,c),
(827,-120,o),
(707,-120,o),
(594,-120,c),
(594,-13,o),
(594,204,o),
(594,311,cs),
(594,361,o),
(535,385,o),
(475,385,cs),
(397,385,o),
(360,348,o),
(360,311,cs),
(360,269,o),
(397,235,o),
(475,235,cs),
(531,235,o),
(579,254,o),
(593,299,c),
(513,0,l),
(469,-10,o),
(426,-15,o),
(385,-15,cs),
(180,-15,o),
(10,104,o),
(10,309,cs),
(10,521,o),
(192,635,o),
(368,635,cs),
(450,635,o),
(530,609,o),
(592,557,cs),
(593,556,o),
(594,557,o),
(594,558,cs),
(594,565,o),
(594,607,o),
(594,620,c)
);
}
);
width = 960;
},
{
anchors = (
{
name = bottom;
pos = (456,0);
},
{
name = top;
pos = (456,620);
}
);
background = {
shapes = (
{
closed = 1;
nodes = (
(523,305,l),
(509,267,o),
(472,241,o),
(414,241,cs),
(347,241,o),
(313,277,o),
(313,313,cs),
(313,349,o),
(347,385,o),
(414,385,cs),
(473,385,o),
(523,359,o),
(523,317,c),
(523,589,l),
(463,623,o),
(396,638,o),
(329,638,cs),
(134,638,o),
(-57,507,o),
(-57,308,cs),
(-57,101,o),
(107,-15,o),
(304,-15,cs),
(349,-15,o),
(395,-9,o),
(442,3,c)
);
}
);
};
layerId = "96858A69-C8A6-410B-90BB-94EA0DA45935";
shapes = (
{
closed = 1;
nodes = (
(797,505,l),
(771,431,o),
(764,357,o),
(764,282,cs),
(764,183,o),
(777,84,o),
(777,-15,c),
(722,-15,o),
(666,-15,o),
(611,-15,c),
(611,86,o),
(691,137,o),
(691,268,cs),
(691,418,o),
(559,517,o),
(436,517,cs),
(333,517,o),
(242,451,o),
(242,302,cs),
(242,245,o),
(256,165,o),
(275,146,cs),
(277,144,o),
(279,142,o),
(281,141,c),
(281,140,l),
(281,140,o),
(280,140,o),
(280,140,cs),
(214,141,o),
(123,223,o),
(123,329,cs),
(123,462,o),
(248,528,o),
(396,528,cs),
(575,528,o),
(596,437,o),
(675,437,cs),
(702,437,o),
(719,455,o),
(721,495,cs),
(721,498,o),
(721,502,o),
(721,505,c)
);
}
);
width = 938;
}
);
unicode = 113;
},
{
color = 6;
glyphname = r;
kernLeft = n;
kernRight = r;
lastChange = "2021-09-06 15:12:36 +0000";
layers = (
{
anchors = (
{
name = bottom;
pos = (172,0);
},
{
name = top;
pos = (363,620);
}
);
layerId = "96858A69-C8A6-410B-90BB-94EA0DA45935";
shapes = (
{
closed = 1;
nodes = (
(120,505,l),
(130,462,o),
(133,418,o),
(133,375,cs),
(133,288,o),
(120,202,o),
(120,115,c),
(286,115,l),
(242,159,o),
(227,203,o),
(227,248,cs),
(227,333,o),
(282,419,o),
(282,505,c)
);
},
{
closed = 1;
nodes = (
(521,398,o),
(564,397,o),
(576,396,c),
(602,524,l),
(563,511,o),
(529,464,o),
(514,413,cs),
(510,399,l)
);
}
);
width = 705;
},
{
anchors = (
{
name = bottom;
pos = (189,0);
},
{
name = top;
pos = (351,620);
}
);
background = {
shapes = (
{
ref = n;
}
);
};
layerId = "F6D8640C-383C-48A8-B63C-DDE9F10207CE";
name = Regular;
shapes = (
{
closed = 1;
nodes = (
(20,620,l),
(20,545,o),
(20,470,o),
(20,396,cs),
(20,264,o),
(20,132,o),
(20,0,c),
(366,0,l),
(366,86,o),
(366,171,o),
(366,257,cs),
(366,378,o),
(366,499,o),
(366,620,c)
);
},
{
closed = 1;
nodes = (
(393,289,o),
(559,307,o),
(636,244,c),
(712,616,l),
(650,665,o),
(448,651,o),
(419,507,cs),
(365,238,l)
);
}
);
visible = 1;
width = 721;
}
);
unicode = 114;
},
{
color = 6;
glyphname = s;
kernLeft = s;
kernRight = s;
lastChange = "2021-09-06 15:12:36 +0000";
layers = (
{
anchors = (
{
name = bottom;
pos = (375,0);
},
{
name = top;
pos = (375,620);
}
);
layerId = "F6D8640C-383C-48A8-B63C-DDE9F10207CE";
name = Regular;
shapes = (
{
closed = 1;
nodes = (
(10,257,o),
(207,249,o),
(325,249,cs),
(342,249,o),
(365,249,o),
(385,249,cs),
(407,249,o),
(415,247,o),
(415,238,cs),
(415,214,o),
(367,204,o),
(305,204,cs),
(209,204,o),
(79,228,o),
(30,283,c),
(30,39,l),
(114,-5,o),
(239,-28,o),
(361,-28,cs),
(565,-28,o),
(763,32,o),
(763,195,cs),
(763,349,o),
(613,375,o),
(479,375,cs),
(449,375,o),
(428,375,o),
(398,375,cs),
(370,375,o),
(357,377,o),
(357,389,cs),
(357,410,o),
(404,421,o),
(465,421,cs),
(554,421,o),
(673,396,o),
(730,354,c),
(730,586,l),
(642,623,o),
(532,648,o),
(406,648,cs),
(200,648,o),
(10,573,o),
(10,422,cs)
);
}
);
width = 773;
},
{
anchors = (
{
name = bottom;
pos = (373,-23);
},
{
name = top;
pos = (363,620);
}
);
layerId = "96858A69-C8A6-410B-90BB-94EA0DA45935";
name = "2050";
shapes = (
{
closed = 1;
nodes = (
(120,374,o),
(172,317,o),
(296,317,cs),
(346,317,o),
(395,317,o),
(445,317,cs),
(487,317,o),
(508,257,o),
(508,216,cs),
(508,157,o),
(477,100,o),
(368,93,cs),
(361,92,o),
(337,92,o),
(328,92,c),
(328,91,l),
(348,88,o),
(384,86,o),
(403,86,cs),
(519,86,o),
(617,144,o),
(617,211,cs),
(617,279,o),
(555,317,o),
(455,317,cs),
(402,317,o),
(349,317,o),
(296,317,cs),
(275,317,o),
(231,349,o),
(231,407,cs),
(231,489,o),
(303,522,o),
(379,522,cs),
(397,522,o),
(415,520,o),
(432,517,c),
(432,519,l),
(388,530,o),
(348,535,o),
(312,535,cs),
(194,535,o),
(120,482,o),
(120,423,cs)
);
}
);
width = 765;
}
);
unicode = 115;
},
{
color = 6;
glyphname = germandbls;
kernLeft = germandbls;
kernRight = germandbls;
lastChange = "2021-09-06 15:12:36 +0000";
layers = (
{
layerId = "96858A69-C8A6-410B-90BB-94EA0DA45935";
shapes = (
{
closed = 1;
nodes = (
(510,127,l),
(556,111,o),
(594,105,o),
(640,105,cs),
(714,105,o),
(864,122,o),
(864,204,cs),
(864,274,o),
(739,305,o),
(692,316,cs),
(644,327,ls),
(614,334,o),
(584,371,o),
(584,411,cs),
(584,525,o),
(748,467,o),
(748,538,cs),
(748,608,o),
(594,650,o),
(480,650,cs),
(302,650,o),
(171,586,o),
(171,472,cs),
(171,351,o),
(170,227,o),
(139,115,c),
(293,115,l),
(273,216,o),
(266,340,o),
(266,452,cs),
(266,586,o),
(325,645,o),
(480,645,cs),
(570,645,o),
(648,617,o),
(648,547,cs),
(648,431,o),
(487,469,o),
(487,411,cs),
(487,364,o),
(536,352,o),
(644,327,cs),
(692,316,ls),
(725,308,o),
(752,274,o),
(752,227,cs),
(752,148,o),
(714,110,o),
(635,110,cs),
(594,110,o),
(557,115,o),
(512,131,c)
);
}
);
width = 990;
},
{
layerId = "F6D8640C-383C-48A8-B63C-DDE9F10207CE";
name = Regular;
shapes = (
{
closed = 1;
nodes = (
(395,20,l),
(438,-1,o),
(496,-17,o),
(576,-17,cs),
(806,-17,o),
(904,99,o),
(904,218,cs),
(904,325,o),
(831,397,o),
(686,397,cs),
(681,397,ls),
(681,397,o),
(681,402,o),
(681,402,cs),
(796,402,o),
(885,482,o),
(885,569,cs),
(885,690,o),
(753,783,o),
(464,783,cs),
(186,783,o),
(20,680,o),
(20,504,cs),
(20,353,o),
(20,170,o),
(20,0,c),
(358,0,l),
(358,152,o),
(359,323,o),
(359,475,cs),
(359,527,o),
(394,543,o),
(470,543,cs),
(528,543,o),
(557,524,o),
(557,496,cs),
(557,466,o),
(527,448,o),
(417,448,cs),
(417,448,o),
(417,327,o),
(417,327,cs),
(504,327,ls),
(561,327,o),
(581,309,o),
(581,286,cs),
(581,260,o),
(556,240,o),
(506,240,cs),
(458,240,o),
(410,258,o),
(395,280,c)
);
}
);
width = 914;
}
);
unicode = 223;
},
{
color = 6;
glyphname = longs;
kernLeft = h;
kernRight = f;
lastChange = "2021-09-04 09:32:22 +0000";
layers = (
{
layerId = "F6D8640C-383C-48A8-B63C-DDE9F10207CE";
shapes = (
{
closed = 1;
nodes = (
(365,0,l),
(365,158,o),
(366,267,o),
(366,425,cs),
(366,496,o),
(394,547,o),
(482,535,c),
(482,761,l),
(432,768,o),
(383,771,o),
(336,771,cs),
(145,771,o),
(20,708,o),
(20,526,cs),
(20,351,o),
(20,175,o),
(20,0,c)
);
}
);
width = 492;
},
{
layerId = "96858A69-C8A6-410B-90BB-94EA0DA45935";
shapes = (
{
closed = 1;
nodes = (
(297,115,l),
(263,189,o),
(255,354,o),
(255,471,cs),
(255,587,o),
(297,647,o),
(361,647,c),
(361,648,l),
(352,649,o),
(342,650,o),
(332,650,cs),
(248,650,o),
(170,605,o),
(170,482,cs),
(170,304,o),
(169,177,o),
(147,115,c)
);
}
);
width = 500;
}
);
unicode = 383;
},
{
color = 6;
glyphname = t;
kernLeft = t;
kernRight = t;
lastChange = "2021-09-06 15:12:36 +0000";
layers = (
{
anchors = (
{
name = bottom;
pos = (320,-24);
},
{
name = center;
pos = (318,310);
},
{
name = top;
pos = (318,620);
},
{
name = topright;
pos = (423,742);
}
);
layerId = "96858A69-C8A6-410B-90BB-94EA0DA45935";
shapes = (
{
closed = 1;
nodes = (
(561,448,l),
(561,545,l),
(542,545,l),
(548,523,o),
(511,463,o),
(449,448,c)
);
},
{
closed = 1;
nodes = (
(135,147,o),
(224,86,o),
(317,86,cs),
(336,86,o),
(356,88,o),
(375,94,c),
(373,96,l),
(368,95,o),
(363,95,o),
(359,95,cs),
(275,95,o),
(238,217,o),
(238,310,cs),
(238,358,o),
(248,397,o),
(266,408,c),
(248,426,o),
(238,459,o),
(238,494,cs),
(238,516,o),
(242,538,o),
(249,558,c),
(135,539,l),
(135,455,o),
(135,361,o),
(135,277,cs)
);
}
);
width = 636;
},
{
anchors = (
{
name = bottom;
pos = (324,0);
},
{
name = center;
pos = (324,310);
},
{
name = top;
pos = (324,620);
},
{
name = topright;
pos = (351,786);
}
);
layerId = "F6D8640C-383C-48A8-B63C-DDE9F10207CE";
name = Regular;
shapes = (
{
closed = 1;
nodes = (
(629,348,l),
(629,620,l),
(434,620,l),
(411,529,o),
(388,439,o),
(365,348,c)
);
},
{
closed = 1;
nodes = (
(22,80,o),
(175,-23,o),
(382,-23,cs),
(472,-23,o),
(572,-1,o),
(629,44,c),
(629,348,l),
(606,305,o),
(538,277,o),
(480,277,cs),
(411,277,o),
(364,303,o),
(364,353,cs),
(364,354,o),
(364,354,o),
(364,355,c),
(364,403,o),
(364,452,o),
(364,502,cs),
(364,570,o),
(364,639,o),
(364,704,c),
(22,622,l),
(22,508,o),
(22,375,o),
(22,261,cs)
);
}
);
width = 649;
}
);
unicode = 116;
},
{
color = 6;
glyphname = tbar;
kernLeft = t;
kernRight = t;
lastChange = "2021-09-06 15:12:36 +0000";
layers = (
{
background = {
shapes = (
{
pos = (57,0);
ref = t;
}
);
};
layerId = "F6D8640C-383C-48A8-B63C-DDE9F10207CE";
shapes = (
{
closed = 1;
nodes = (
(686,312,l),
(654,263,o),
(592,237,o),
(535,237,cs),
(475,237,o),
(421,267,o),
(421,329,cs),
(421,343,o),
(421,347,o),
(421,355,c),
(421,407,o),
(421,497,o),
(421,517,cs),
(421,582,o),
(421,648,o),
(421,704,c),
(79,622,l),
(79,508,o),
(79,381,o),
(79,267,cs),
(79,77,o),
(232,-22,o),
(426,-22,cs),
(541,-22,o),
(623,0,o),
(686,42,c)
);
},
{
closed = 1;
nodes = (
(660,299,l),
(660,377,l),
(10,377,l),
(10,299,l)
);
},
{
closed = 1;
nodes = (
(686,422,l),
(686,620,l),
(489,620,l),
(466,552,o),
(444,490,o),
(421,422,c)
);
}
);
width = 706;
},
{
layerId = "96858A69-C8A6-410B-90BB-94EA0DA45935";
shapes = (
{
closed = 1;
nodes = (
(393,96,l),
(388,95,o),
(383,95,o),
(379,95,cs),
(295,95,o),
(258,217,o),
(258,310,cs),
(258,358,o),
(268,397,o),
(286,408,c),
(268,426,o),
(258,459,o),
(258,494,cs),
(258,516,o),
(262,538,o),
(269,558,c),
(155,539,l),
(155,455,o),
(155,361,o),
(155,277,cs),
(155,147,o),
(244,86,o),
(337,86,cs),
(356,86,o),
(376,88,o),
(395,94,c)
);
},
{
closed = 1;
nodes = (
(549,310,l),
(549,320,l),
(100,320,l),
(100,310,l)
);
},
{
closed = 1;
nodes = (
(581,448,l),
(581,545,l),
(562,545,l),
(568,523,o),
(531,463,o),
(469,448,c)
);
}
);
width = 691;
}
);
unicode = 359;
},
{
color = 6;
glyphname = u;
kernLeft = u;
kernRight = u;
lastChange = "2021-09-06 15:12:36 +0000";
layers = (
{
anchors = (
{
name = bottom;
pos = (419,0);
},
{
name = ogonek;
pos = (763,0);
},
{
name = top;
pos = (419,620);
},
{
name = topright;
pos = (818,620);
}
);
layerId = "F6D8640C-383C-48A8-B63C-DDE9F10207CE";
shapes = (
{
closed = 1;
nodes = (
(472,620,l),
(472,497,o),
(472,380,o),
(472,256,c),
(472,173,o),
(472,84,o),
(472,0,c),
(818,0,l),
(818,116,o),
(818,232,o),
(818,349,cs),
(818,439,o),
(818,530,o),
(818,620,c)
);
},
{
closed = 1;
nodes = (
(20,620,l),
(20,565,o),
(20,510,o),
(20,455,cs),
(20,359,o),
(20,263,o),
(20,167,cs),
(20,24,o),
(132,-22,o),
(239,-22,cs),
(298,-22,o),
(355,-9,o),
(392,10,c),
(472,257,l),
(460,247,o),
(439,240,o),
(420,240,cs),
(392,240,o),
(366,255,o),
(366,300,cs),
(366,407,o),
(366,513,o),
(366,620,c)
);
}
);
width = 838;
},
{
anchors = (
{
name = bottom;
pos = (413,0);
},
{
name = ogonek;
pos = (700,115);
},
{
name = top;
pos = (413,620);
},
{
name = topright;
pos = (808,620);
}
);
layerId = "96858A69-C8A6-410B-90BB-94EA0DA45935";
shapes = (
{
closed = 1;
nodes = (
(578,505,l),
(598,483,o),
(608,440,o),
(608,364,cs),
(608,285,o),
(581,174,o),
(564,115,c),
(724,115,l),
(688,132,o),
(681,233,o),
(681,331,cs),
(681,401,o),
(684,470,o),
(684,505,c)
);
},
{
closed = 1;
nodes = (
(116,505,l),
(136,479,o),
(163,441,o),
(163,397,cs),
(163,356,o),
(147,308,o),
(97,247,cs),
(29,163,o),
(114,104,o),
(223,104,cs),
(270,104,o),
(321,113,o),
(365,133,c),
(366,138,l),
(344,130,o),
(317,123,o),
(290,123,cs),
(238,123,o),
(191,151,o),
(191,261,cs),
(191,344,o),
(232,440,o),
(272,505,c)
);
}
);
width = 826;
}
);
unicode = 117;
},
{
color = 6;
glyphname = uogonek;
kernLeft = u;
kernRight = u;
lastChange = "2021-09-06 15:12:36 +0000";
layers = (
{
layerId = "96858A69-C8A6-410B-90BB-94EA0DA45935";
shapes = (
{
closed = 1;
nodes = (
(634,-105,o),
(680,-77,o),
(708,-34,c),
(708,-33,l),
(703,-34,o),
(698,-34,o),
(693,-34,cs),
(648,-34,o),
(598,-4,o),
(598,47,cs),
(598,75,o),
(610,99,o),
(724,115,c),
(688,132,o),
(681,233,o),
(681,331,cs),
(681,401,o),
(684,470,o),
(684,505,c),
(578,505,l),
(598,483,o),
(608,440,o),
(608,364,cs),
(608,302,o),
(576,160,o),
(564,115,c),
(688,90,o),
(494,43,o),
(494,-45,cs),
(494,-77,o),
(523,-105,o),
(579,-105,cs)
);
},
{
closed = 1;
nodes = (
(116,505,l),
(136,479,o),
(163,441,o),
(163,397,cs),
(163,356,o),
(147,308,o),
(97,247,cs),
(29,163,o),
(114,104,o),
(223,104,cs),
(270,104,o),
(321,113,o),
(365,133,c),
(366,138,l),
(344,130,o),
(317,123,o),
(290,123,cs),
(238,123,o),
(191,151,o),
(191,261,cs),
(191,344,o),
(232,440,o),
(272,505,c)
);
}
);
width = 826;
},
{
background = {
shapes = (
{
ref = u;
}
);
};
layerId = "F6D8640C-383C-48A8-B63C-DDE9F10207CE";
name = Regular;
shapes = (
{
closed = 1;
nodes = (
(719,-308,o),
(763,-300,o),
(818,-285,c),
(818,-89,l),
(788,-101,o),
(765,-105,o),
(735,-105,cs),
(693,-105,o),
(669,-92,o),
(669,-70,cs),
(669,-43,o),
(699,-5,o),
(818,0,c),
(818,111,o),
(818,223,o),
(818,335,cs),
(818,430,o),
(818,525,o),
(818,620,c),
(472,620,l),
(472,497,o),
(472,380,o),
(472,256,c),
(472,173,o),
(472,84,o),
(472,0,c),
(427,-37,o),
(404,-85,o),
(404,-140,cs),
(404,-247,o),
(489,-308,o),
(660,-308,cs)
);
},
{
closed = 1;
nodes = (
(20,620,l),
(20,565,o),
(20,510,o),
(20,455,cs),
(20,359,o),
(20,263,o),
(20,167,cs),
(20,24,o),
(132,-22,o),
(239,-22,cs),
(298,-22,o),
(355,-9,o),
(392,10,c),
(472,257,l),
(460,247,o),
(439,240,o),
(420,240,cs),
(392,240,o),
(366,255,o),
(366,300,cs),
(366,407,o),
(366,513,o),
(366,620,c)
);
}
);
width = 838;
}
);
metricLeft = u;
metricRight = u;
unicode = 371;
},
{
color = 6;
glyphname = v;
kernLeft = v;
kernRight = v;
lastChange = "2021-09-06 15:12:36 +0000";
layers = (
{
anchors = (
{
name = bottom;
pos = (447,0);
},
{
name = top;
pos = (447,620);
}
);
background = {
shapes = (
{
closed = 1;
nodes = (
(157,506,l),
(158,503,o),
(159,501,o),
(160,498,c),
(188,408,o),
(224,295,o),
(254,203,c),
(264,171,o),
(274,141,o),
(282,115,c),
(369,115,l),
(357,130,o),
(348,148,o),
(345,168,c),
(287,506,l)
);
},
{
closed = 1;
nodes = (
(568,148,o),
(560,130,o),
(548,115,c),
(615,115,l),
(622,137,o),
(630,162,o),
(639,190,c),
(667,279,o),
(703,391,o),
(732,482,c),
(735,490,o),
(737,498,o),
(740,506,c),
(629,506,l),
(572,168,l)
);
}
);
};
layerId = "96858A69-C8A6-410B-90BB-94EA0DA45935";
name = "2050";
shapes = (
{
closed = 1;
nodes = (
(638,505,l),
(705,441,o),
(610,115,o),
(524,115,cs),
(443,115,o),
(472,115,o),
(440,115,cs),
(338,115,o),
(236,439,o),
(296,505,c),
(129,505,l),
(181,446,o),
(272,172,o),
(264,115,c),
(627,115,l),
(637,388,o),
(717,481,o),
(743,505,c)
);
}
);
width = 889;
},
{
anchors = (
{
name = bottom;
pos = (428,0);
},
{
name = top;
pos = (428,620);
}
);
layerId = "F6D8640C-383C-48A8-B63C-DDE9F10207CE";
name = Regular;
shapes = (
{
closed = 1;
nodes = (
(510,620,l),
(487,481,o),
(464,341,o),
(441,202,c),
(439,189,o),
(437,189,o),
(435,202,c),
(412,341,o),
(389,481,o),
(366,620,c),
(-1,620,l),
(63,413,o),
(126,207,o),
(190,0,c),
(667,0,l),
(731,207,o),
(794,413,o),
(858,620,c)
);
}
);
width = 857;
}
);
unicode = 118;
},
{
color = 6;
glyphname = w;
kernLeft = w;
kernRight = w;
lastChange = "2021-09-06 15:12:36 +0000";
layers = (
{
anchors = (
{
name = bottom;
pos = (587,0);
},
{
name = top;
pos = (587,620);
}
);
layerId = "96858A69-C8A6-410B-90BB-94EA0DA45935";
shapes = (
{
closed = 1;
nodes = (
(946,505,l),
(948,454,o),
(951,349,o),
(951,282,cs),
(951,143,o),
(708,146,o),
(692,257,cs),
(657,505,l),
(514,505,l),
(466,253,ls),
(449,162,o),
(226,140,o),
(226,345,cs),
(226,383,o),
(232,454,o),
(240,505,c),
(155,505,l),
(211,413,o),
(206,268,o),
(230,115,c),
(441,115,l),
(487,362,ls),
(503,449,o),
(659,480,o),
(682,323,cs),
(712,115,l),
(958,115,l),
(969,245,o),
(1036,376,o),
(1051,505,c)
);
}
);
width = 1204;
},
{
anchors = (
{
name = bottom;
pos = (562,0);
},
{
name = top;
pos = (562,620);
}
);
guides = (
{
pos = (609,602);
showMeasurement = 1;
}
);
layerId = "F6D8640C-383C-48A8-B63C-DDE9F10207CE";
name = Regular;
shapes = (
{
closed = 1;
nodes = (
(843,620,l),
(826,491,o),
(810,362,o),
(793,233,cs),
(792,226,o),
(791,226,o),
(790,233,cs),
(732,620,l),
(446,620,l),
(383,237,ls),
(382,228,o),
(381,229,o),
(380,237,c),
(364,368,o),
(347,489,o),
(331,620,c),
(-1,620,l),
(47,413,o),
(95,207,o),
(143,0,c),
(511,0,l),
(563,272,ls),
(566,288,o),
(568,285,o),
(571,272,cs),
(627,0,l),
(1012,0,l),
(1060,207,o),
(1108,413,o),
(1156,620,c)
);
}
);
width = 1155;
}
);
unicode = 119;
},
{
color = 6;
glyphname = x;
kernLeft = x;
kernRight = x;
lastChange = "2021-09-06 15:12:36 +0000";
layers = (
{
anchors = (
{
name = bottom;
pos = (472,0);
},
{
name = top;
pos = (472,620);
}
);
layerId = "96858A69-C8A6-410B-90BB-94EA0DA45935";
name = "2050";
shapes = (
{
closed = 1;
nodes = (
(374,321,o),
(365,341,o),
(352,375,cs),
(299,505,l),
(168,505,l),
(247,422,ls),
(317,343,o),
(345,269,o),
(239,179,cs),
(164,115,l),
(315,115,l),
(355,262,ls),
(361,284,o),
(370,308,o),
(383,314,c)
);
},
{
closed = 1;
nodes = (
(573,371,ls),
(573,344,o),
(565,324,o),
(543,314,c),
(555,305,o),
(560,288,o),
(567,254,cs),
(594,115,l),
(760,115,l),
(676,211,ls),
(639,254,o),
(559,338,o),
(622,404,cs),
(724,505,l),
(573,505,l)
);
}
);
visible = 1;
width = 939;
},
{
anchors = (
{
name = bottom;
pos = (415,0);
},
{
name = top;
pos = (415,620);
}
);
layerId = "F6D8640C-383C-48A8-B63C-DDE9F10207CE";
name = Regular;
shapes = (
{
closed = 1;
nodes = (
(430,330,o),
(430,334,o),
(429,337,cs),
(375,620,l),
(0,620,l),
(126,314,ls),
(127,311,o),
(127,313,o),
(126,311,cs),
(-1,0,l),
(362,0,l),
(428,317,l),
(429,320,o),
(430,324,o),
(431,327,c)
);
},
{
closed = 1;
nodes = (
(406,284,l),
(405,281,o),
(405,279,o),
(404,276,c),
(405,273,o),
(405,270,o),
(406,267,cs),
(464,0,l),
(840,0,l),
(719,306,l),
(718,308,o),
(718,306,o),
(719,308,c),
(836,620,l),
(476,620,l)
);
}
);
visible = 1;
width = 839;
}
);
unicode = 120;
},
{
color = 6;
glyphname = y;
kernLeft = y;
kernRight = y;
lastChange = "2021-09-06 15:12:36 +0000";
layers = (
{
anchors = (
{
name = bottom;
pos = (452,0);
},
{
name = top;
pos = (452,620);
}
);
background = {
shapes = (
{
ref = v;
}
);
};
layerId = "F6D8640C-383C-48A8-B63C-DDE9F10207CE";
shapes = (
{
closed = 1;
nodes = (
(619,-120,l),
(700,127,o),
(780,373,o),
(861,620,c),
(513,620,l),
(488,477,o),
(464,334,o),
(439,191,c),
(439,191,o),
(438,186,o),
(438,186,c),
(438,186,o),
(437,192,o),
(437,192,c),
(413,335,o),
(390,477,o),
(366,620,c),
(-1,620,l),
(65,413,o),
(131,207,o),
(197,0,c),
(384,0,l),
(349,-40,o),
(315,-80,o),
(280,-120,c)
);
}
);
width = 860;
},
{
anchors = (
{
name = bottom;
pos = (440,0);
},
{
name = top;
pos = (440,620);
}
);
layerId = "96858A69-C8A6-410B-90BB-94EA0DA45935";
shapes = (
{
closed = 1;
nodes = (
(594,0,l),
(594,162,o),
(656,354,o),
(764,505,c),
(602,505,l),
(630,430,o),
(611,371,o),
(582,242,cs),
(556,127,o),
(502,116,o),
(458,116,cs),
(390,116,o),
(353,148,o),
(313,233,cs),
(266,334,o),
(250,432,o),
(256,505,c),
(141,505,l),
(278,327,o),
(327,217,o),
(320,115,c),
(430,115,ls),
(504,115,o),
(537,55,o),
(505,0,c)
);
}
);
width = 896;
}
);
unicode = 121;
},
{
color = 6;
glyphname = yhook;
kernLeft = y;
kernRight = yhook;
lastChange = "2021-09-06 15:12:36 +0000";
layers = (
{
anchors = (
{
name = bottom;
pos = (452,0);
},
{
name = top;
pos = (452,620);
}
);
layerId = "F6D8640C-383C-48A8-B63C-DDE9F10207CE";
shapes = (
{
closed = 1;
nodes = (
(619,-120,l),
(679,64,o),
(739,246,o),
(778,365,cs),
(794,417,o),
(827,430,o),
(867,417,c),
(867,628,l),
(829,640,o),
(780,648,o),
(723,648,cs),
(579,648,o),
(509,572,o),
(487,454,cs),
(471,366,o),
(455,279,o),
(439,191,c),
(439,191,o),
(438,186,o),
(438,186,c),
(438,186,o),
(437,192,o),
(437,192,c),
(413,335,o),
(390,477,o),
(366,620,c),
(-1,620,l),
(65,413,o),
(131,207,o),
(197,0,c),
(384,0,l),
(349,-40,o),
(315,-80,o),
(280,-120,c)
);
}
);
width = 881;
},
{
anchors = (
{
name = bottom;
pos = (440,0);
},
{
name = top;
pos = (440,620);
}
);
layerId = "96858A69-C8A6-410B-90BB-94EA0DA45935";
shapes = (
{
closed = 1;
nodes = (
(594,0,l),
(594,108,o),
(569,250,o),
(616,365,cs),
(641,426,o),
(687,473,o),
(733,466,c),
(733,525,l),
(725,525,o),
(721,525,o),
(716,525,cs),
(668,525,o),
(597,500,o),
(587,430,cs),
(579,374,o),
(601,327,o),
(582,242,cs),
(556,127,o),
(502,116,o),
(458,116,cs),
(390,116,o),
(353,148,o),
(313,233,cs),
(266,334,o),
(250,432,o),
(256,505,c),
(141,505,l),
(278,327,o),
(327,217,o),
(320,115,c),
(430,115,ls),
(504,115,o),
(537,55,o),
(505,0,c)
);
}
);
width = 896;
}
);
unicode = 436;
},
{
color = 6;
glyphname = z;
kernLeft = z;
kernRight = z;
lastChange = "2021-09-06 15:12:36 +0000";
layers = (
{
anchors = (
{
name = bottom;
pos = (377,0);
},
{
name = center;
pos = (377,310);
},
{
name = top;
pos = (377,620);
}
);
layerId = "F6D8640C-383C-48A8-B63C-DDE9F10207CE";
name = Regular;
shapes = (
{
closed = 1;
nodes = (
(263,396,ls),
(264,396,o),
(264,396,o),
(263,394,cs),
(0,0,l),
(738,0,l),
(738,226,l),
(508,226,ls),
(507,226,o),
(507,226,o),
(508,228,cs),
(556,307,o),
(695,524,o),
(754,620,c),
(29,620,l),
(29,396,l)
);
}
);
width = 754;
},
{
anchors = (
{
name = bottom;
pos = (367,0);
},
{
name = center;
pos = (367,310);
},
{
name = top;
pos = (367,620);
}
);
layerId = "96858A69-C8A6-410B-90BB-94EA0DA45935";
name = "2050";
shapes = (
{
closed = 1;
nodes = (
(376,500,ls),
(468,500,o),
(485,411,o),
(441,370,cs),
(170,115,l),
(559,115,l),
(558,120,l),
(352,120,ls),
(280,120,o),
(259,201,o),
(311,248,cs),
(357,290,o),
(541,467,o),
(586,505,c),
(182,505,l),
(183,500,l)
);
}
);
width = 754;
}
);
unicode = 122;
},
{
color = 6;
glyphname = a.alt;
kernLeft = a;
kernRight = a;
lastChange = "2021-09-06 15:12:36 +0000";
layers = (
{
anchors = (
{
name = bottom;
pos = (426,0);
},
{
name = ogonek;
pos = (759,10);
},
{
name = top;
pos = (426,620);
}
);
background = {
shapes = (
{
ref = a;
}
);
};
layerId = "F6D8640C-383C-48A8-B63C-DDE9F10207CE";
shapes = (
{
closed = 1;
nodes = (
(601,0,o),
(717,0,o),
(834,0,c),
(834,129,o),
(834,259,o),
(834,388,cs),
(834,563,o),
(624,650,o),
(399,650,cs),
(284,650,o),
(166,628,o),
(69,584,c),
(69,345,l),
(129,383,o),
(214,404,o),
(293,404,cs),
(395,404,o),
(484,368,o),
(484,285,cs),
(484,180,o),
(484,95,o),
(484,0,c)
);
},
{
closed = 1;
nodes = (
(485,203,l),
(469,164,o),
(433,160,o),
(409,160,cs),
(359,160,o),
(332,185,o),
(332,210,cs),
(332,235,o),
(358,259,o),
(409,259,cs),
(442,259,o),
(484,243,o),
(484,210,c),
(484,276,l),
(445,330,o),
(354,361,o),
(262,361,cs),
(83,361,o),
(3,264,o),
(3,167,cs),
(3,40,o),
(120,-26,o),
(246,-26,cs),
(298,-26,o),
(352,-17,o),
(400,7,c)
);
}
);
width = 853;
},
{
anchors = (
{
name = bottom;
pos = (387,0);
},
{
name = ogonek;
pos = (724,10);
},
{
name = top;
pos = (387,620);
}
);
background = {
shapes = (
{
closed = 1;
nodes = (
(116,211,ls),
(107,203,o),
(102,196,o),
(99,188,cs),
(95,181,o),
(94,174,o),
(94,167,cs),
(94,160,o),
(95,154,o),
(97,148,cs),
(100,142,o),
(103,135,o),
(109,129,cs),
(113,125,o),
(118,120,o),
(123,116,cs),
(131,111,o),
(141,105,o),
(155,101,cs),
(172,95,o),
(195,91,o),
(224,91,cs),
(235,91,o),
(245,91,o),
(255,92,cs),
(253,94,o),
(252,95,o),
(250,97,cs),
(244,104,o),
(239,112,o),
(235,121,cs),
(229,130,o),
(225,141,o),
(222,152,cs),
(218,165,o),
(216,178,o),
(216,192,cs),
(216,207,o),
(219,223,o),
(223,239,cs),
(224,241,o),
(225,243,o),
(226,245,cs),
(200,245,o),
(179,241,o),
(162,236,cs),
(145,230,o),
(132,224,o),
(122,217,cs)
);
},
{
closed = 1;
nodes = (
(369,504,o),
(392,498,o),
(415,489,cs),
(430,483,o),
(445,477,o),
(459,468,cs),
(478,457,o),
(497,443,o),
(514,425,cs),
(523,415,o),
(532,404,o),
(540,391,cs),
(549,377,o),
(556,361,o),
(561,345,cs),
(567,325,o),
(570,305,o),
(570,285,cs),
(570,192,l),
(570,115,l),
(690,115,l),
(690,388,ls),
(690,398,o),
(689,406,o),
(687,413,cs),
(685,421,o),
(682,428,o),
(677,435,cs),
(674,440,o),
(670,445,o),
(666,450,cs),
(660,457,o),
(653,463,o),
(644,470,cs),
(633,479,o),
(618,488,o),
(602,496,cs),
(579,506,o),
(553,516,o),
(523,523,cs),
(484,532,o),
(440,537,o),
(393,537,cs),
(342,537,o),
(289,531,o),
(238,518,cs),
(225,515,o),
(212,512,o),
(200,508,cs),
(225,512,o),
(249,514,o),
(274,514,cs),
(298,514,o),
(322,512,o),
(346,508,cs)
);
}
);
};
layerId = "96858A69-C8A6-410B-90BB-94EA0DA45935";
shapes = (
{
closed = 1;
nodes = (
(625,115,o),
(681,115,o),
(747,115,c),
(705,145,o),
(703,272,o),
(703,358,cs),
(703,486,o),
(617,542,o),
(510,542,cs),
(473,542,o),
(436,535,o),
(400,523,c),
(400,522,l),
(410,524,o),
(420,525,o),
(432,525,cs),
(499,525,o),
(587,483,o),
(587,345,cs),
(587,242,o),
(586,178,o),
(569,115,c)
);
},
{
closed = 1;
nodes = (
(279,92,l),
(278,92,o),
(277,92,o),
(276,92,cs),
(261,94,o),
(225,120,o),
(225,198,cs),
(225,225,o),
(236,243,o),
(248,246,cs),
(249,246,o),
(250,246,o),
(251,246,c),
(251,247,l),
(247,247,o),
(243,247,o),
(239,247,cs),
(179,244,o),
(117,221,o),
(117,167,cs),
(117,113,o),
(184,87,o),
(241,87,cs),
(255,87,o),
(268,88,o),
(279,91,c)
);
}
);
width = 836;
}
);
},
{
color = 6;
glyphname = e.alt;
kernLeft = o;
kernRight = e;
lastChange = "2021-09-06 15:12:36 +0000";
layers = (
{
background = {
shapes = (
{
ref = e;
}
);
};
layerId = "F6D8640C-383C-48A8-B63C-DDE9F10207CE";
shapes = (
{
closed = 1;
nodes = (
(388,226,o),
(347,255,o),
(346,296,cs),
(346,297,o),
(346,297,o),
(347,297,cs),
(892,297,l),
(892,540,o),
(714,650,o),
(460,650,cs),
(211,650,o),
(10,537,o),
(10,310,cs),
(10,83,o),
(210,-30,o),
(460,-30,cs),
(680,-30,o),
(846,69,o),
(883,196,c),
(574,297,l),
(572,253,o),
(533,226,o),
(462,226,cs)
);
},
{
closed = 1;
nodes = (
(525,397,o),
(572,373,o),
(572,330,cs),
(572,329,o),
(572,328,o),
(571,328,cs),
(348,328,ls),
(347,328,o),
(347,328,o),
(347,330,cs),
(347,373,o),
(394,397,o),
(460,397,cs)
);
}
);
width = 902;
},
{
background = {
shapes = (
{
closed = 1;
nodes = (
(336,120,o),
(240,187,o),
(240,251,c),
(240,273,o),
(259,297,o),
(293,297,c),
(267,297,o),
(240,313,o),
(240,361,c),
(244,454,o),
(345,501,o),
(455,501,cs),
(601,501,o),
(681,395,o),
(681,297,c),
(650,297,l),
(150,297,l),
(150,297,l),
(777,297,l),
(777,462,o),
(619,535,o),
(455,535,cs),
(242,535,o),
(120,449,o),
(120,310,cs),
(120,170,o),
(242,85,o),
(455,85,cs),
(535,85,o),
(616,107,o),
(676,139,c),
(599,163,l),
(561,135,o),
(512,120,o),
(457,120,cs)
);
}
);
};
layerId = "96858A69-C8A6-410B-90BB-94EA0DA45935";
name = "2050";
shapes = (
{
closed = 1;
nodes = (
(329,94,o),
(247,208,o),
(247,272,cs),
(247,295,o),
(263,311,o),
(288,311,cs),
(752,311,l),
(752,383,o),
(709,535,o),
(455,535,cs),
(105,535,o),
(180,351,o),
(120,238,cs),
(68,140,o),
(204,86,o),
(428,86,cs),
(505,86,o),
(562,110,o),
(595,139,c),
(592,140,l),
(547,108,o),
(500,94,o),
(445,94,cs)
);
},
{
closed = 1;
nodes = (
(652,530,o),
(682,451,o),
(682,406,cs),
(682,335,o),
(596,311,o),
(591,311,cs),
(289,311,ls),
(275,311,o),
(227,326,o),
(227,378,cs),
(227,475,o),
(336,530,o),
(453,530,cs)
);
}
);
visible = 1;
width = 886;
}
);
metricLeft = o;
metricRight = o;
},
{
color = 6;
glyphname = i.alt;
kernLeft = i;
kernRight = i;
lastChange = "2021-09-04 07:33:57 +0000";
layers = (
{
guides = (
{
pos = (90,320);
}
);
layerId = "F6D8640C-383C-48A8-B63C-DDE9F10207CE";
shapes = (
{
closed = 1;
nodes = (
(366,0,l),
(366,64,o),
(366,129,o),
(366,193,cs),
(366,245,o),
(366,297,o),
(366,349,c),
(251,349,o),
(135,349,o),
(20,349,c),
(20,315,o),
(20,282,o),
(20,249,cs),
(20,166,o),
(20,83,o),
(20,0,c)
);
},
{
closed = 1;
nodes = (
(135,373,o),
(251,397,o),
(366,421,c),
(366,488,o),
(366,553,o),
(366,620,c),
(251,620,o),
(135,620,o),
(20,620,c),
(20,529,o),
(20,440,o),
(20,349,c)
);
}
);
width = 386;
},
{
guides = (
{
pos = (85,320);
}
);
layerId = "96858A69-C8A6-410B-90BB-94EA0DA45935";
shapes = (
{
closed = 1;
nodes = (
(262,115,l),
(252,140,o),
(250,169,o),
(250,201,cs),
(250,233,o),
(248,268,o),
(236,304,c),
(205,304,o),
(148,304,o),
(117,304,c),
(138,281,o),
(145,258,o),
(145,237,cs),
(145,187,o),
(106,142,o),
(117,115,c)
);
},
{
closed = 1;
nodes = (
(193,440,o),
(205,514,o),
(247,523,c),
(247,525,o),
(247,526,o),
(247,528,c),
(201,528,o),
(173,528,o),
(127,528,c),
(117,511,o),
(139,449,o),
(127,420,c)
);
}
);
width = 364;
}
);
},
{
color = 6;
glyphname = l.alt;
kernLeft = h;
kernRight = l;
lastChange = "2021-09-04 07:33:57 +0000";
layers = (
{
layerId = "F6D8640C-383C-48A8-B63C-DDE9F10207CE";
shapes = (
{
closed = 1;
nodes = (
(366,0,l),
(366,125,o),
(366,251,o),
(366,376,cs),
(366,501,o),
(366,625,o),
(366,750,c),
(20,750,l),
(20,634,o),
(20,518,o),
(20,402,cs),
(20,268,o),
(20,134,o),
(20,0,c)
);
}
);
width = 386;
},
{
layerId = "96858A69-C8A6-410B-90BB-94EA0DA45935";
shapes = (
{
closed = 1;
nodes = (
(229,115,l),
(205,194,o),
(198,282,o),
(198,372,cs),
(198,487,o),
(209,593,o),
(209,645,c),
(109,645,l),
(134,567,o),
(144,480,o),
(144,391,cs),
(144,299,o),
(133,212,o),
(119,115,c)
);
}
);
width = 366;
}
);
},
{
color = 6;
glyphname = o.alt;
kernLeft = o;
kernRight = o;
lastChange = "2021-09-06 15:12:36 +0000";
layers = (
{
anchors = (
{
name = bottom;
pos = (460,0);
},
{
name = center;
pos = (460,310);
},
{
name = ogonek;
pos = (828,10);
},
{
name = top;
pos = (460,620);
},
{
name = topright;
pos = (900,620);
}
);
layerId = "F6D8640C-383C-48A8-B63C-DDE9F10207CE";
shapes = (
{
closed = 1;
nodes = (
(10,78,o),
(210,-30,o),
(460,-30,cs),
(710,-30,o),
(910,82,o),
(910,309,cs),
(910,539,o),
(702,650,o),
(475,650,cs),
(470,650,o),
(465,650,o),
(460,650,cs),
(211,650,o),
(10,537,o),
(10,310,cs)
);
},
{
closed = 1;
nodes = (
(575,274,o),
(544,235,o),
(461,235,cs),
(376,235,o),
(345,273,o),
(345,310,cs),
(345,351,o),
(382,385,o),
(460,385,cs),
(462,385,o),
(464,385,o),
(465,385,cs),
(523,385,o),
(575,360,o),
(575,311,cs)
);
}
);
width = 920;
},
{
anchors = (
{
name = bottom;
pos = (452,0);
},
{
name = center;
pos = (452,310);
},
{
name = ogonek;
pos = (797,10);
},
{
name = top;
pos = (452,620);
},
{
name = topright;
pos = (869,620);
}
);
layerId = "96858A69-C8A6-410B-90BB-94EA0DA45935";
shapes = (
{
closed = 1;
nodes = (
(191,248,o),
(297,95,o),
(461,95,cs),
(708,95,o),
(820,168,o),
(820,348,cs),
(820,481,o),
(700,535,o),
(560,535,cs),
(503,535,o),
(419,535,o),
(349,535,cs),
(217,535,o),
(31,483,o),
(100,382,cs)
);
},
{
closed = 1;
nodes = (
(710,266,o),
(607,100,o),
(468,100,cs),
(306,100,o),
(214,223,o),
(214,388,cs),
(214,505,o),
(302,535,o),
(347,535,cs),
(435,535,o),
(515,535,o),
(561,535,cs),
(697,535,o),
(710,438,o),
(710,398,cs)
);
}
);
width = 908;
}
);
},
{
color = 6;
glyphname = s.alt;
kernLeft = s;
kernRight = s;
lastChange = "2021-09-06 15:12:36 +0000";
layers = (
{
anchors = (
{
name = bottom;
pos = (375,0);
},
{
name = top;
pos = (375,620);
}
);
layerId = "F6D8640C-383C-48A8-B63C-DDE9F10207CE";
shapes = (
{
closed = 1;
nodes = (
(565,-28,o),
(763,32,o),
(763,195,cs),
(763,349,o),
(613,375,o),
(479,375,cs),
(449,375,o),
(428,375,o),
(398,375,cs),
(370,375,o),
(357,377,o),
(357,389,cs),
(357,410,o),
(404,421,o),
(465,421,cs),
(554,421,o),
(673,396,o),
(730,354,c),
(730,586,l),
(642,623,o),
(532,648,o),
(406,648,cs),
(200,648,o),
(10,573,o),
(10,422,cs),
(10,257,o),
(207,249,o),
(325,249,cs),
(342,249,o),
(365,249,o),
(385,249,cs),
(407,249,o),
(415,247,o),
(415,238,cs),
(415,214,o),
(367,204,o),
(305,204,cs),
(209,204,o),
(79,228,o),
(30,283,c),
(30,39,l),
(114,-5,o),
(239,-28,o),
(361,-28,cs)
);
}
);
width = 773;
},
{
anchors = (
{
name = bottom;
pos = (376,0);
},
{
name = top;
pos = (376,620);
}
);
layerId = "96858A69-C8A6-410B-90BB-94EA0DA45935";
shapes = (
{
closed = 1;
nodes = (
(543,88,o),
(686,184,o),
(617,221,cs),
(525,270,o),
(517,342,o),
(417,342,cs),
(385,342,o),
(388,342,o),
(335,342,cs),
(290,342,o),
(231,364,o),
(231,432,cs),
(231,506,o),
(303,526,o),
(379,526,cs),
(397,526,o),
(415,524,o),
(432,521,c),
(432,523,l),
(403,530,o),
(375,534,o),
(347,534,cs),
(199,534,o),
(86,437,o),
(140,395,cs),
(198,350,o),
(132,277,o),
(256,277,cs),
(306,277,o),
(395,329,o),
(444,329,cs),
(492,329,o),
(558,267,o),
(558,226,cs),
(558,119,o),
(478,93,o),
(369,93,cs),
(362,93,o),
(352,94,o),
(344,95,c),
(344,91,l),
(353,89,o),
(366,88,o),
(377,88,cs)
);
}
);
width = 751;
}
);
},
{
color = 6;
glyphname = t.alt;
kernLeft = t;
kernRight = t;
lastChange = "2021-09-06 15:12:36 +0000";
layers = (
{
layerId = "F6D8640C-383C-48A8-B63C-DDE9F10207CE";
shapes = (
{
closed = 1;
nodes = (
(636,349,l),
(636,621,l),
(441,621,l),
(418,530,o),
(395,440,o),
(372,349,c)
);
},
{
closed = 1;
nodes = (
(29,81,o),
(182,-22,o),
(389,-22,cs),
(479,-22,o),
(579,0,o),
(636,45,c),
(636,349,l),
(613,306,o),
(545,278,o),
(487,278,cs),
(418,278,o),
(371,304,o),
(371,354,cs),
(371,355,o),
(371,355,o),
(371,705,c),
(29,623,l),
(29,580,o),
(29,534,o),
(29,488,cs),
(29,411,o),
(29,333,o),
(29,262,cs)
);
}
);
width = 656;
},
{
layerId = "96858A69-C8A6-410B-90BB-94EA0DA45935";
shapes = (
{
closed = 1;
nodes = (
(600,445,l),
(600,542,l),
(486,542,l),
(483,508,o),
(438,451,o),
(416,445,c)
);
},
{
closed = 1;
nodes = (
(129,172,o),
(264,87,o),
(402,87,cs),
(461,87,o),
(520,102,o),
(570,135,c),
(567,139,l),
(549,132,o),
(523,128,o),
(493,128,cs),
(383,128,o),
(224,182,o),
(224,392,cs),
(224,483,o),
(253,535,o),
(289,574,c),
(119,550,l),
(129,523,o),
(132,483,o),
(132,440,cs),
(132,387,o),
(129,349,o),
(129,306,cs)
);
}
);
width = 656;
}
);
},
{
color = 6;
glyphname = u.alt;
kernLeft = u;
kernRight = u;
lastChange = "2021-09-06 15:12:36 +0000";
layers = (
{
layerId = "96858A69-C8A6-410B-90BB-94EA0DA45935";
shapes = (
{
closed = 1;
nodes = (
(544,505,l),
(550,491,o),
(562,416,o),
(562,347,cs),
(562,305,o),
(557,265,o),
(544,244,c),
(593,244,o),
(616,160,o),
(604,115,c),
(690,115,l),
(673,187,o),
(661,302,o),
(661,394,cs),
(661,439,o),
(663,479,o),
(670,505,c)
);
},
{
closed = 1;
nodes = (
(87,505,l),
(92,471,o),
(93,379,o),
(93,259,cs),
(93,151,o),
(155,104,o),
(214,104,cs),
(237,104,o),
(259,110,o),
(277,121,c),
(278,126,l),
(271,124,o),
(265,123,o),
(259,123,cs),
(211,123,o),
(187,186,o),
(187,281,cs),
(187,350,o),
(198,443,o),
(238,505,c)
);
}
);
width = 824;
},
{
layerId = "F6D8640C-383C-48A8-B63C-DDE9F10207CE";
name = Regular;
shapes = (
{
closed = 1;
nodes = (
(472,620,l),
(472,550,o),
(472,483,o),
(472,414,cs),
(472,362,o),
(472,310,o),
(472,256,c),
(472,173,o),
(472,84,o),
(472,0,c),
(818,0,l),
(818,147,o),
(818,294,o),
(818,442,cs),
(818,501,o),
(818,561,o),
(818,620,c)
);
},
{
closed = 1;
nodes = (
(20,620,l),
(20,469,o),
(20,318,o),
(20,167,cs),
(20,24,o),
(132,-22,o),
(239,-22,cs),
(298,-22,o),
(355,-9,o),
(392,10,c),
(472,257,l),
(460,247,o),
(439,240,o),
(420,240,cs),
(392,240,o),
(366,255,o),
(366,300,cs),
(366,407,o),
(366,513,o),
(366,620,c)
);
}
);
width = 838;
}
);
},
{
color = 6;
glyphname = y.alt;
kernLeft = y;
kernRight = y;
lastChange = "2021-09-06 15:12:36 +0000";
layers = (
{
background = {
shapes = (
{
ref = y;
}
);
};
layerId = "F6D8640C-383C-48A8-B63C-DDE9F10207CE";
shapes = (
{
closed = 1;
nodes = (
(65,413,o),
(131,207,o),
(197,0,c),
(384,0,l),
(384,0,o),
(384,-1,o),
(383,-1,c),
(349,-41,o),
(314,-80,o),
(280,-120,c),
(619,-120,l),
(700,127,o),
(780,373,o),
(861,620,c),
(513,620,l),
(488,477,o),
(464,335,o),
(439,192,c),
(439,192,o),
(439,191,o),
(438,191,cs),
(437,191,o),
(437,192,o),
(437,192,cs),
(413,335,o),
(390,477,o),
(366,620,c),
(-1,620,l)
);
}
);
width = 859;
},
{
background = {
shapes = (
{
closed = 1;
nodes = (
(444,99,o),
(457,86,o),
(467,69,c),
(479,48,o),
(482,23,o),
(478,0,c),
(563,0,l),
(733,540,l),
(571,540,l),
(510,189,l),
(503,146,o),
(470,114,o),
(428,107,c)
);
},
{
closed = 1;
nodes = (
(255,540,l),
(110,540,l),
(244,120,l),
(361,120,l),
(336,135,o),
(318,160,o),
(313,190,c)
);
}
);
};
layerId = "96858A69-C8A6-410B-90BB-94EA0DA45935";
shapes = (
{
closed = 1;
nodes = (
(255,382,o),
(220,256,o),
(266,114,c),
(419,114,l),
(463,114,o),
(485,102,o),
(485,77,cs),
(485,41,o),
(442,12,o),
(418,0,c),
(544,0,l),
(562,192,o),
(679,382,o),
(751,505,c),
(619,505,l),
(635,428,o),
(625,355,o),
(611,267,cs),
(598,183,o),
(533,149,o),
(427,149,cs),
(341,149,o),
(252,192,o),
(241,275,cs),
(229,363,o),
(261,449,o),
(275,505,c),
(152,505,l)
);
}
);
width = 906;
}
);
},
{
color = 6;
glyphname = ordfeminine;
kernLeft = ordfeminine;
kernRight = ordfeminine;
lastChange = "2021-09-06 15:12:36 +0000";
layers = (
{
layerId = "F6D8640C-383C-48A8-B63C-DDE9F10207CE";
shapes = (
{
closed = 1;
nodes = (
(595,743,o),
(455,797,o),
(300,797,cs),
(213,797,o),
(121,781,o),
(45,751,c),
(45,580,l),
(87,609,o),
(147,631,o),
(210,631,cs),
(275,631,o),
(341,601,o),
(341,553,cs),
(341,490,o),
(341,426,o),
(341,363,c),
(595,363,l),
(595,449,o),
(595,536,o),
(595,622,cs)
);
},
{
closed = 1;
nodes = (
(297,587,o),
(240,600,o),
(185,600,cs),
(80,600,o),
(4,553,o),
(4,463,cs),
(4,347,o),
(176,308,o),
(285,368,c),
(338,487,l),
(328,465,o),
(309,457,o),
(287,457,cs),
(257,457,o),
(233,469,o),
(233,492,cs),
(233,517,o),
(258,529,o),
(287,529,cs),
(314,529,o),
(341,516,o),
(341,491,c),
(341,552,l)
);
}
);
width = 610;
},
{
layerId = "96858A69-C8A6-410B-90BB-94EA0DA45935";
shapes = (
{
closed = 1;
nodes = (
(521,710,o),
(439,755,o),
(351,755,cs),
(320,755,o),
(290,750,o),
(261,740,c),
(261,739,l),
(269,741,o),
(277,741,o),
(286,741,cs),
(341,741,o),
(412,708,o),
(412,588,cs),
(412,505,o),
(411,456,o),
(397,420,c),
(564,420,l),
(521,441,o),
(521,529,o),
(521,598,cs)
);
},
{
closed = 1;
nodes = (
(205,527,o),
(202,527,o),
(200,527,cs),
(147,525,o),
(91,507,o),
(91,462,cs),
(91,408,o),
(178,387,o),
(228,400,c),
(229,401,l),
(229,401,o),
(229,401,o),
(228,401,cs),
(217,401,o),
(186,422,o),
(186,487,cs),
(186,508,o),
(193,522,o),
(203,525,cs),
(204,526,o),
(205,526,o),
(207,526,c),
(207,527,l)
);
}
);
width = 663;
}
);
unicode = 170;
},
{
color = 6;
glyphname = ordmasculine;
kernLeft = ordmasculine;
kernRight = ordmasculine;
lastChange = "2021-09-06 15:12:36 +0000";
layers = (
{
layerId = "F6D8640C-383C-48A8-B63C-DDE9F10207CE";
shapes = (
{
closed = 1;
nodes = (
(4,422,o),
(136,341,o),
(309,341,cs),
(482,341,o),
(614,425,o),
(614,568,cs),
(614,715,o),
(482,796,o),
(309,796,cs),
(137,796,o),
(4,715,o),
(4,568,cs)
);
},
{
closed = 1;
nodes = (
(382,538,o),
(356,519,o),
(309,519,cs),
(263,519,o),
(236,538,o),
(236,567,cs),
(236,597,o),
(263,618,o),
(309,618,cs),
(356,618,o),
(382,597,o),
(382,567,cs)
);
}
);
width = 618;
},
{
layerId = "96858A69-C8A6-410B-90BB-94EA0DA45935";
shapes = (
{
closed = 1;
nodes = (
(0,475,o),
(219,374,o),
(328,374,cs),
(496,374,o),
(515,470,o),
(578,567,cs),
(641,664,o),
(497,760,o),
(333,760,cs),
(168,760,o),
(166,690,o),
(71,567,cs)
);
},
{
closed = 1;
nodes = (
(519,432,o),
(438,380,o),
(342,380,cs),
(244,380,o),
(170,498,o),
(170,602,cs),
(170,680,o),
(177,755,o),
(333,755,cs),
(485,755,o),
(519,657,o),
(519,554,cs)
);
}
);
width = 670;
}
);
unicode = 186;
},
{
color = 6;
glyphname = Delta;
kernLeft = A;
kernRight = A;
lastChange = "2021-09-06 15:12:36 +0000";
layers = (
{
background = {
shapes = (
{
pos = (3,0);
ref = A;
}
);
};
layerId = "F6D8640C-383C-48A8-B63C-DDE9F10207CE";
shapes = (
{
closed = 1;
nodes = (
(1048,0,l),
(976,250,o),
(905,500,o),
(833,750,c),
(215,750,l),
(144,500,o),
(73,250,o),
(2,0,c)
);
},
{
closed = 1;
nodes = (
(459,193,o),
(459,193,o),
(459,194,cs),
(459,195,o),
(513,512,o),
(514,512,cs),
(514,512,o),
(515,512,o),
(515,512,cs),
(516,512,o),
(571,195,o),
(571,194,cs),
(571,194,o),
(571,193,o),
(570,193,cs),
(460,193,ls)
);
}
);
width = 1050;
},
{
layerId = "96858A69-C8A6-410B-90BB-94EA0DA45935";
shapes = (
{
closed = 1;
nodes = (
(1002,115,l),
(1034,242,o),
(762,469,o),
(812,645,c),
(385,645,l),
(416,463,o),
(144,238,o),
(144,115,c)
);
},
{
closed = 1;
nodes = (
(336,120,o),
(320,197,o),
(320,296,cs),
(320,374,o),
(364,645,o),
(547,645,cs),
(562,645,o),
(581,645,o),
(591,645,cs),
(720,645,o),
(804,455,o),
(804,323,cs),
(804,215,o),
(761,120,o),
(653,120,cs),
(461,120,ls)
);
}
);
width = 1172;
}
);
unicode = 916;
},
{
color = 6;
glyphname = Omega;
lastChange = "2021-09-06 15:12:36 +0000";
layers = (
{
background = {
shapes = (
{
pos = (-2,0);
ref = O;
}
);
};
layerId = "F6D8640C-383C-48A8-B63C-DDE9F10207CE";
name = Regular;
shapes = (
{
closed = 1;
nodes = (
(1026,237,o),
(1108,319,o),
(1108,481,cs),
(1108,663,o),
(857,780,o),
(558,780,cs),
(249,780,o),
(8,665,o),
(8,478,cs),
(8,315,o),
(110,237,o),
(426,213,c),
(299,213,o),
(171,213,o),
(44,213,c),
(44,0,l),
(531,0,l),
(531,284,l),
(461,304,o),
(433,327,o),
(433,382,cs),
(433,429,o),
(465,474,o),
(559,474,cs),
(652,474,o),
(683,427,o),
(683,383,cs),
(683,327,o),
(654,304,o),
(587,284,c),
(587,0,l),
(1072,0,l),
(1072,213,l),
(945,213,o),
(817,213,o),
(690,213,c)
);
}
);
width = 1116;
},
{
layerId = "96858A69-C8A6-410B-90BB-94EA0DA45935";
name = "2050";
shapes = (
{
closed = 1;
nodes = (
(677,289,o),
(956,263,o),
(956,392,cs),
(956,492,o),
(819,652,o),
(579,652,cs),
(328,652,o),
(176,582,o),
(176,446,cs),
(176,225,o),
(453,316,o),
(453,204,cs),
(453,158,o),
(373,120,o),
(195,120,c),
(195,115,l),
(507,115,l),
(507,225,l),
(361,249,o),
(340,377,o),
(340,473,cs),
(340,569,o),
(396,647,o),
(581,647,cs),
(780,647,o),
(796,491,o),
(796,370,cs),
(796,271,o),
(746,250,o),
(620,233,c),
(620,115,l),
(937,115,l),
(937,120,l),
(766,120,o),
(677,146,o),
(677,196,cs)
);
}
);
width = 1120;
}
);
unicode = 937;
},
{
color = 6;
glyphname = mu;
kernLeft = n;
kernRight = u;
lastChange = "2021-09-06 15:12:36 +0000";
layers = (
{
layerId = "F6D8640C-383C-48A8-B63C-DDE9F10207CE";
shapes = (
{
closed = 1;
nodes = (
(366,-120,l),
(366,-80,o),
(366,-41,o),
(366,-1,c),
(375,2,o),
(384,6,o),
(392,10,c),
(472,257,l),
(460,247,o),
(439,240,o),
(420,240,cs),
(392,240,o),
(366,255,o),
(366,300,cs),
(366,407,o),
(366,513,o),
(366,620,c),
(20,620,l),
(20,506,o),
(20,391,o),
(20,277,cs),
(20,145,o),
(20,13,o),
(20,-120,c)
);
},
{
closed = 1;
nodes = (
(818,0,l),
(818,117,o),
(818,235,o),
(818,352,cs),
(818,442,o),
(818,531,o),
(818,620,c),
(472,620,l),
(472,497,o),
(472,380,o),
(472,256,c),
(472,173,o),
(472,84,o),
(472,0,c)
);
}
);
width = 838;
},
{
background = {
shapes = (
{
closed = 1;
nodes = (
(578,505,l),
(598,483,o),
(608,440,o),
(608,364,cs),
(608,285,o),
(581,174,o),
(564,115,c),
(724,115,l),
(688,132,o),
(681,233,o),
(681,331,cs),
(681,401,o),
(684,470,o),
(684,505,c)
);
},
{
closed = 1;
nodes = (
(116,505,l),
(136,479,o),
(154,408,o),
(154,364,cs),
(154,224,o),
(104,88,o),
(118,0,c),
(273,0,l),
(230,24,o),
(216,64,o),
(216,104,c),
(282,104,o),
(321,113,o),
(365,133,c),
(366,138,l),
(344,130,o),
(317,123,o),
(290,123,cs),
(238,123,o),
(191,151,o),
(191,261,cs),
(191,344,o),
(232,440,o),
(272,505,c)
);
}
);
};
layerId = "96858A69-C8A6-410B-90BB-94EA0DA45935";
shapes = (
{
closed = 1;
nodes = (
(273,-15,l),
(230,9,o),
(216,64,o),
(216,104,c),
(282,104,o),
(321,113,o),
(365,133,c),
(366,138,l),
(344,130,o),
(317,123,o),
(290,123,cs),
(238,123,o),
(191,151,o),
(191,261,cs),
(191,344,o),
(232,440,o),
(272,505,c),
(116,505,l),
(136,479,o),
(154,408,o),
(154,364,cs),
(154,224,o),
(104,73,o),
(118,-15,c)
);
},
{
closed = 1;
nodes = (
(724,115,l),
(688,132,o),
(681,233,o),
(681,331,cs),
(681,401,o),
(684,470,o),
(684,505,c),
(578,505,l),
(598,483,o),
(608,440,o),
(608,364,cs),
(608,285,o),
(581,174,o),
(564,115,c)
);
}
);
width = 823;
}
);
unicode = 956;
},
{
color = 6;
glyphname = pi;
kernLeft = pi;
kernRight = pi;
lastChange = "2021-09-06 15:12:36 +0000";
layers = (
{
layerId = "F6D8640C-383C-48A8-B63C-DDE9F10207CE";
shapes = (
{
closed = 1;
nodes = (
(10,410,l),
(90,410,ls),
(90,410,o),
(90,293,o),
(90,234,cs),
(90,156,o),
(90,78,o),
(90,0,c),
(437,0,l),
(437,78,o),
(437,156,o),
(437,234,cs),
(437,293,o),
(437,410,o),
(437,410,cs),
(504,410,ls),
(504,410,o),
(504,293,o),
(504,234,cs),
(504,156,o),
(504,78,o),
(504,0,c),
(851,0,l),
(851,78,o),
(851,156,o),
(851,234,cs),
(851,293,o),
(851,410,o),
(851,410,cs),
(931,410,l),
(931,620,l),
(10,620,l)
);
}
);
width = 941;
},
{
background = {
shapes = (
{
pos = (30,0);
ref = n;
}
);
};
layerId = "96858A69-C8A6-410B-90BB-94EA0DA45935";
shapes = (
{
closed = 1;
nodes = (
(63,500,l),
(103,500,ls),
(182,500,o),
(200,467,o),
(200,391,cs),
(200,314,o),
(161,195,o),
(173,115,c),
(305,115,l),
(282,195,o),
(267,250,o),
(267,332,cs),
(267,453,o),
(305,500,o),
(420,500,cs),
(447,500,ls),
(576,500,o),
(603,450,o),
(603,321,cs),
(603,229,o),
(588,163,o),
(561,115,c),
(700,115,l),
(700,163,o),
(669,250,o),
(669,349,cs),
(669,441,o),
(674,500,o),
(747,500,cs),
(800,500,l),
(800,505,l),
(63,505,l)
);
}
);
width = 873;
}
);
unicode = 960;
},
{
color = 6;
glyphname = zero;
kernLeft = O;
kernRight = O;
lastChange = "2021-09-06 15:12:36 +0000";
layers = (
{
layerId = "F6D8640C-383C-48A8-B63C-DDE9F10207CE";
shapes = (
{
closed = 1;
nodes = (
(927,-30,o),
(1110,138,o),
(1110,374,cs),
(1110,587,o),
(957,780,o),
(560,780,cs),
(163,780,o),
(10,587,o),
(10,374,cs),
(10,138,o),
(193,-30,o),
(560,-30,cs)
);
},
{
closed = 1;
nodes = (
(464,294,o),
(435,335,o),
(435,374,cs),
(435,415,o),
(471,456,o),
(564,456,cs),
(655,456,o),
(685,414,o),
(685,373,cs),
(685,337,o),
(651,294,o),
(558,294,cs)
);
}
);
width = 1120;
},
{
background = {
shapes = (
{
ref = C;
}
);
};
layerId = "96858A69-C8A6-410B-90BB-94EA0DA45935";
name = "2050";
shapes = (
{
closed = 1;
nodes = (
(1115,105,o),
(968,237,o),
(825,471,cs),
(715,653,o),
(814,654,o),
(537,654,cs),
(254,654,o),
(163,488,o),
(163,279,cs),
(163,170,o),
(182,105,o),
(532,105,cs)
);
},
{
closed = 1;
nodes = (
(306,144,o),
(240,310,o),
(240,429,cs),
(240,608,o),
(399,649,o),
(537,649,cs),
(723,649,o),
(860,443,o),
(860,358,cs),
(860,251,o),
(694,144,o),
(500,144,cs)
);
}
);
width = 1110;
}
);
unicode = 48;
},
{
color = 6;
glyphname = one;
kernLeft = one;
kernRight = one;
lastChange = "2021-09-06 15:12:36 +0000";
layers = (
{
background = {
shapes = (
{
closed = 1;
nodes = (
(549,0,l),
(549,750,l),
(164,750,l),
(8,429,l),
(123,429,l),
(123,0,l)
);
}
);
};
layerId = "F6D8640C-383C-48A8-B63C-DDE9F10207CE";
shapes = (
{
closed = 1;
nodes = (
(536,0,l),
(536,182,o),
(536,364,o),
(536,546,cs),
(536,614,o),
(536,682,o),
(536,750,c),
(145,750,l),
(3,429,l),
(42,429,o),
(81,429,o),
(120,429,cs),
(121,429,o),
(121,429,o),
(121,428,cs),
(121,285,o),
(121,143,o),
(121,0,c)
);
}
);
width = 556;
},
{
background = {
shapes = (
{
closed = 1;
nodes = (
(541,0,l),
(541,750,l),
(156,750,l),
(0,429,l),
(115,429,l),
(115,0,l)
);
}
);
};
layerId = "96858A69-C8A6-410B-90BB-94EA0DA45935";
name = "2050";
shapes = (
{
closed = 1;
nodes = (
(366,115,l),
(346,220,o),
(316,389,o),
(316,526,cs),
(316,575,o),
(321,617,o),
(333,645,c),
(232,645,l),
(165,521,l),
(167,521,o),
(166,521,o),
(166,521,cs),
(260,521,o),
(313,502,o),
(313,441,cs),
(313,339,o),
(253,153,o),
(194,115,c)
);
}
);
visible = 1;
width = 539;
}
);
unicode = 49;
},
{
color = 6;
glyphname = two;
kernLeft = two;
kernRight = two;
lastChange = "2021-09-06 15:12:36 +0000";
layers = (
{
background = {
shapes = (
{
pos = (-74,56);
ref = C;
}
);
};
layerId = "F6D8640C-383C-48A8-B63C-DDE9F10207CE";
shapes = (
{
closed = 1;
nodes = (
(774,284,o),
(545,284,o),
(315,284,c),
(207,260,o),
(92,244,o),
(22,236,c),
(22,0,l),
(1004,0,l),
(1004,284,l)
);
},
{
closed = 1;
nodes = (
(786,265,o),
(1003,345,o),
(1003,519,cs),
(1003,692,o),
(770,780,o),
(528,780,cs),
(259,780,o),
(-19,661,o),
(8,425,c),
(512,339,l),
(431,363,o),
(403,401,o),
(403,437,cs),
(403,483,o),
(460,508,o),
(516,508,cs),
(570,508,o),
(623,485,o),
(623,437,cs),
(623,356,o),
(419,308,o),
(270,274,c)
);
}
);
width = 1020;
},
{
layerId = "96858A69-C8A6-410B-90BB-94EA0DA45935";
name = "2050";
shapes = (
{
closed = 1;
nodes = (
(540,120,o),
(382,155,o),
(332,264,c),
(323,223,o),
(181,215,o),
(134,215,c),
(134,115,l),
(883,115,l),
(883,120,l)
);
},
{
closed = 1;
nodes = (
(835,415,o),
(889,469,o),
(889,515,cs),
(889,605,o),
(730,658,o),
(524,658,cs),
(311,658,o),
(155,569,o),
(126,469,c),
(303,411,l),
(274,436,o),
(260,468,o),
(260,507,cs),
(260,605,o),
(379,653,o),
(526,653,cs),
(630,653,o),
(737,597,o),
(737,483,cs),
(737,441,o),
(730,411,o),
(715,400,c)
);
}
);
width = 1005;
}
);
unicode = 50;
},
{
color = 6;
glyphname = three;
kernLeft = three;
kernRight = three;
lastChange = "2021-09-06 15:12:36 +0000";
layers = (
{
layerId = "F6D8640C-383C-48A8-B63C-DDE9F10207CE";
shapes = (
{
closed = 1;
nodes = (
(1000,424,o),
(1062,485,o),
(1062,557,cs),
(1062,697,o),
(818,780,o),
(565,780,cs),
(293,780,o),
(10,682,o),
(12,453,c),
(437,385,l),
(420,465,o),
(494,496,o),
(564,496,cs),
(620,496,o),
(674,476,o),
(674,444,cs),
(674,414,o),
(659,401,o),
(568,401,c),
(568,382,l),
(662,382,o),
(680,375,o),
(680,341,cs),
(680,306,o),
(623,285,o),
(564,285,cs),
(494,285,o),
(421,314,o),
(437,385,c),
(22,339,l),
(-26,87,o),
(276,-30,o),
(570,-30,cs),
(829,-30,o),
(1082,61,o),
(1082,232,cs),
(1082,324,o),
(1025,392,o),
(892,409,cs),
(890,410,o),
(890,410,o),
(892,411,cs)
);
}
);
width = 1092;
},
{
background = {
shapes = (
{
ref = C;
}
);
};
layerId = "96858A69-C8A6-410B-90BB-94EA0DA45935";
name = "2050";
shapes = (
{
closed = 1;
nodes = (
(899,511,o),
(929,533,o),
(929,552,cs),
(929,611,o),
(748,658,o),
(556,658,cs),
(394,658,o),
(224,624,o),
(153,540,c),
(353,508,l),
(320,600,o),
(425,653,o),
(544,653,cs),
(658,653,o),
(781,599,o),
(781,488,cs),
(781,433,o),
(720,402,o),
(632,402,c),
(638,402,l),
(731,402,o),
(800,339,o),
(800,275,cs),
(800,161,o),
(673,106,o),
(554,106,cs),
(420,106,o),
(301,168,o),
(353,277,c),
(137,253,l),
(188,149,o),
(391,101,o),
(562,101,cs),
(787,101,o),
(979,153,o),
(979,236,cs),
(979,273,o),
(955,300,o),
(850,341,cs),
(693,402,o),
(750,441,o),
(850,488,cs)
);
}
);
width = 1086;
}
);
unicode = 51;
},
{
color = 6;
glyphname = four;
kernLeft = four;
kernRight = four;
lastChange = "2021-09-06 15:12:36 +0000";
layers = (
{
layerId = "F6D8640C-383C-48A8-B63C-DDE9F10207CE";
shapes = (
{
closed = 1;
nodes = (
(932,294,ls),
(931,294,o),
(931,294,o),
(931,295,cs),
(931,410,o),
(931,514,o),
(931,629,c),
(518,408,l),
(518,370,o),
(519,333,o),
(519,295,cs),
(519,294,o),
(519,294,o),
(518,294,cs),
(392,294,ls),
(391,294,o),
(390,294,o),
(391,295,cs),
(560,447,o),
(730,598,o),
(899,750,c),
(380,750,l),
(258,625,o),
(135,499,o),
(13,374,c),
(13,81,l),
(519,81,ls),
(520,81,o),
(520,81,o),
(520,80,cs),
(520,0,l),
(931,0,l),
(931,80,ls),
(931,81,o),
(931,81,o),
(932,81,cs),
(1010,81,l),
(1010,294,l)
);
}
);
width = 1020;
},
{
layerId = "96858A69-C8A6-410B-90BB-94EA0DA45935";
shapes = (
{
closed = 1;
nodes = (
(883,206,ls),
(845,206,o),
(816,236,o),
(816,289,cs),
(816,345,o),
(817,400,o),
(819,445,c),
(667,357,l),
(677,346,o),
(687,315,o),
(687,294,cs),
(687,227,o),
(632,196,o),
(553,196,cs),
(393,196,ls),
(265,196,o),
(257,313,o),
(324,374,cs),
(425,466,o),
(530,554,o),
(632,645,c),
(509,645,l),
(438,530,o),
(367,319,o),
(131,319,c),
(131,196,l),
(563,196,ls),
(637,196,o),
(665,146,o),
(665,118,cs),
(665,115,l),
(822,115,l),
(822,117,ls),
(822,172,o),
(839,206,o),
(876,206,cs),
(887,206,l),
(892,206,l)
);
}
);
width = 1021;
}
);
unicode = 52;
},
{
color = 6;
glyphname = five;
kernLeft = five;
kernRight = five;
lastChange = "2021-09-06 15:12:36 +0000";
layers = (
{
layerId = "F6D8640C-383C-48A8-B63C-DDE9F10207CE";
shapes = (
{
closed = 1;
nodes = (
(953,750,l),
(19,750,l),
(19,632,o),
(19,514,o),
(19,396,c),
(427,319,l),
(427,376,o),
(427,444,o),
(427,511,c),
(953,511,l)
);
},
{
closed = 1;
nodes = (
(428,355,o),
(482,375,o),
(536,375,cs),
(586,375,o),
(636,357,o),
(636,316,cs),
(636,275,o),
(585,255,o),
(534,255,cs),
(481,255,o),
(427,276,o),
(427,319,c),
(14,287,l),
(14,81,o),
(275,-30,o),
(530,-30,cs),
(773,-30,o),
(1010,71,o),
(1010,267,cs),
(1010,419,o),
(853,489,o),
(701,489,cs),
(562,489,o),
(428,429,o),
(428,319,cs)
);
}
);
width = 1020;
},
{
background = {
shapes = (
{
ref = C;
}
);
};
layerId = "96858A69-C8A6-410B-90BB-94EA0DA45935";
name = "2050";
shapes = (
{
closed = 1;
nodes = (
(728,645,l),
(134,645,l),
(134,598,o),
(134,570,o),
(134,502,c),
(312,469,l),
(312,570,o),
(299,640,o),
(367,640,c),
(728,640,l)
);
},
{
closed = 1;
nodes = (
(523,420,o),
(601,423,o),
(650,423,cs),
(760,423,o),
(801,396,o),
(801,324,cs),
(801,192,o),
(675,106,o),
(551,106,cs),
(394,106,o),
(364,161,o),
(364,212,c),
(179,197,l),
(252,132,o),
(403,101,o),
(541,101,cs),
(788,101,o),
(884,200,o),
(884,259,cs),
(884,318,o),
(697,482,o),
(650,482,cs),
(619,482,o),
(619,424,o),
(492,420,c)
);
}
);
width = 1013;
}
);
unicode = 53;
},
{
color = 6;
glyphname = six;
kernLeft = six;
kernRight = six;
lastChange = "2021-09-06 15:12:36 +0000";
layers = (
{
layerId = "F6D8640C-383C-48A8-B63C-DDE9F10207CE";
shapes = (
{
closed = 1;
nodes = (
(10,92,o),
(261,-30,o),
(570,-30,cs),
(906,-30,o),
(1082,101,o),
(1082,237,cs),
(1082,384,o),
(938,455,o),
(783,455,cs),
(706,455,o),
(628,447,o),
(563,430,cs),
(493,412,o),
(438,383,o),
(417,343,c),
(462,387,o),
(522,398,o),
(564,398,cs),
(623,398,o),
(684,375,o),
(684,329,cs),
(684,285,o),
(625,256,o),
(562,256,cs),
(480,256,o),
(413,293,o),
(413,384,cs),
(413,448,o),
(463,511,o),
(559,511,cs),
(590,511,o),
(670,502,o),
(670,446,c),
(1063,539,l),
(1015,693,o),
(841,780,o),
(565,780,cs),
(209,780,o),
(10,636,o),
(10,368,cs)
);
}
);
width = 1094;
},
{
layerId = "96858A69-C8A6-410B-90BB-94EA0DA45935";
name = "2050";
shapes = (
{
closed = 1;
nodes = (
(32,285,o),
(329,91,o),
(616,91,cs),
(839,91,o),
(963,180,o),
(963,247,cs),
(963,355,o),
(700,320,o),
(674,451,c),
(653,433,o),
(572,423,o),
(545,417,cs),
(516,411,o),
(498,407,o),
(474,396,c),
(500,404,o),
(531,407,o),
(557,407,c),
(666,407,o),
(834,361,o),
(834,245,cs),
(834,200,o),
(798,96,o),
(619,96,cs),
(437,96,o),
(294,197,o),
(294,364,cs),
(294,524,o),
(408,655,o),
(596,655,cs),
(674,655,o),
(689,614,o),
(683,560,c),
(855,590,l),
(819,628,o),
(742,661,o),
(611,661,cs),
(313,661,o),
(325,438,o),
(191,368,cs)
);
}
);
width = 1089;
}
);
unicode = 54;
},
{
color = 6;
glyphname = seven;
kernLeft = seven;
kernRight = seven;
lastChange = "2021-09-06 15:12:36 +0000";
layers = (
{
layerId = "F6D8640C-383C-48A8-B63C-DDE9F10207CE";
shapes = (
{
closed = 1;
nodes = (
(14,491,l),
(383,491,ls),
(385,491,o),
(386,491,o),
(385,489,cs),
(297,326,o),
(208,163,o),
(120,0,c),
(590,0,l),
(700,250,o),
(810,500,o),
(920,750,c),
(14,750,l)
);
}
);
width = 909;
},
{
layerId = "96858A69-C8A6-410B-90BB-94EA0DA45935";
shapes = (
{
closed = 1;
nodes = (
(243,640,l),
(447,640,ls),
(625,640,o),
(641,470,o),
(543,348,cs),
(450,231,o),
(416,232,o),
(282,115,c),
(484,115,l),
(521,281,o),
(599,459,o),
(718,645,c),
(243,645,l)
);
}
);
width = 910;
}
);
unicode = 55;
},
{
color = 6;
glyphname = eight;
kernLeft = eight;
kernRight = eight;
lastChange = "2021-09-06 15:12:36 +0000";
layers = (
{
layerId = "F6D8640C-383C-48A8-B63C-DDE9F10207CE";
shapes = (
{
closed = 1;
nodes = (
(819,401,ls),
(966,437,o),
(1030,502,o),
(1030,580,cs),
(1030,693,o),
(893,780,o),
(529,780,cs),
(165,780,o),
(26,693,o),
(26,580,cs),
(26,502,o),
(88,435,o),
(235,400,cs),
(235,399,ls),
(71,361,o),
(10,289,o),
(10,203,cs),
(10,72,o),
(151,-30,o),
(530,-30,cs),
(908,-30,o),
(1049,72,o),
(1049,203,cs),
(1049,290,o),
(984,363,o),
(819,400,cs)
);
},
{
closed = 1;
nodes = (
(423,513,o),
(465,533,o),
(530,533,cs),
(594,533,o),
(633,514,o),
(633,475,cs),
(633,437,o),
(596,417,o),
(536,417,cs),
(534,417,o),
(532,417,o),
(530,417,cs),
(465,417,o),
(423,436,o),
(423,475,cs)
);
},
{
closed = 1;
nodes = (
(408,375,o),
(456,397,o),
(530,397,cs),
(532,397,o),
(535,397,o),
(536,397,cs),
(605,397,o),
(648,373,o),
(648,330,cs),
(648,286,o),
(602,264,o),
(530,264,cs),
(456,264,o),
(408,287,o),
(408,330,cs)
);
}
);
width = 1059;
},
{
layerId = "96858A69-C8A6-410B-90BB-94EA0DA45935";
name = "2050";
shapes = (
{
closed = 1;
nodes = (
(738,416,ls),
(738,478,o),
(882,496,o),
(882,572,cs),
(882,635,o),
(690,667,o),
(525,667,cs),
(340,667,o),
(185,635,o),
(185,572,cs),
(185,496,o),
(338,480,o),
(338,416,cs),
(338,415,ls),
(338,349,o),
(127,305,o),
(127,235,cs),
(127,183,o),
(235,97,o),
(526,97,cs),
(816,97,o),
(924,173,o),
(924,225,cs),
(924,299,o),
(738,330,o),
(738,415,cs)
);
},
{
closed = 1;
nodes = (
(278,615,o),
(367,662,o),
(528,662,cs),
(748,662,o),
(781,589,o),
(781,526,cs),
(781,476,o),
(731,409,o),
(658,409,cs),
(652,409,o),
(453,409,o),
(445,409,cs),
(343,409,o),
(278,489,o),
(278,541,cs)
);
},
{
closed = 1;
nodes = (
(278,358,o),
(336,409,o),
(425,409,cs),
(433,409,o),
(648,409,o),
(652,409,cs),
(738,409,o),
(781,354,o),
(781,276,cs),
(781,191,o),
(738,102,o),
(537,102,cs),
(330,102,o),
(278,192,o),
(278,276,cs)
);
}
);
width = 1050;
}
);
unicode = 56;
},
{
color = 6;
glyphname = nine;
kernLeft = nine;
kernRight = nine;
lastChange = "2021-09-06 15:12:36 +0000";
layers = (
{
layerId = "F6D8640C-383C-48A8-B63C-DDE9F10207CE";
shapes = (
{
closed = 1;
nodes = (
(885,-30,o),
(1084,114,o),
(1084,383,cs),
(1084,658,o),
(833,780,o),
(524,780,cs),
(188,780,o),
(12,649,o),
(12,514,cs),
(12,367,o),
(156,296,o),
(311,296,cs),
(388,296,o),
(466,304,o),
(531,321,cs),
(601,339,o),
(656,368,o),
(677,408,c),
(632,364,o),
(572,353,o),
(530,353,cs),
(471,353,o),
(410,376,o),
(410,422,cs),
(410,466,o),
(469,495,o),
(532,495,cs),
(614,495,o),
(681,458,o),
(681,367,cs),
(681,303,o),
(631,240,o),
(535,240,cs),
(504,240,o),
(424,249,o),
(424,305,c),
(31,212,l),
(79,57,o),
(253,-30,o),
(529,-30,cs)
);
}
);
width = 1094;
},
{
layerId = "96858A69-C8A6-410B-90BB-94EA0DA45935";
name = "2050";
shapes = (
{
closed = 1;
nodes = (
(797,91,o),
(785,314,o),
(919,384,cs),
(1078,467,o),
(781,661,o),
(494,661,cs),
(271,661,o),
(147,572,o),
(147,505,cs),
(147,397,o),
(410,432,o),
(436,301,c),
(457,319,o),
(538,329,o),
(565,335,cs),
(594,341,o),
(612,345,o),
(636,356,c),
(610,348,o),
(579,345,o),
(553,345,c),
(444,345,o),
(276,391,o),
(276,507,cs),
(276,552,o),
(312,656,o),
(491,656,cs),
(673,656,o),
(816,555,o),
(816,388,cs),
(816,228,o),
(702,97,o),
(514,97,cs),
(436,97,o),
(421,138,o),
(427,192,c),
(255,162,l),
(291,124,o),
(368,91,o),
(499,91,cs)
);
}
);
width = 1089;
}
);
unicode = 57;
},
{
color = 6;
glyphname = one.dnom;
lastChange = "2021-09-06 15:12:36 +0000";
layers = (
{
guides = (
{
pos = (79,-74);
}
);
layerId = "F6D8640C-383C-48A8-B63C-DDE9F10207CE";
shapes = (
{
closed = 1;
nodes = (
(375,0,l),
(375,106,o),
(375,212,o),
(375,318,cs),
(375,352,o),
(375,386,o),
(375,420,c),
(76,420,l),
(-1,222,l),
(24,222,o),
(53,222,o),
(79,222,cs),
(79,222,o),
(79,222,o),
(79,221,c),
(79,147,o),
(79,74,o),
(79,0,c)
);
}
);
width = 390;
},
{
layerId = "96858A69-C8A6-410B-90BB-94EA0DA45935";
shapes = (
{
closed = 1;
nodes = (
(241,115,l),
(224,201,o),
(203,313,o),
(203,394,cs),
(203,425,o),
(210,451,o),
(218,470,c),
(144,470,l),
(100,385,l),
(102,385,o),
(98,385,o),
(101,385,cs),
(166,385,o),
(200,372,o),
(200,331,cs),
(200,261,o),
(151,141,o),
(110,115,c)
);
}
);
width = 345;
}
);
},
{
color = 6;
glyphname = two.dnom;
lastChange = "2021-09-06 15:12:36 +0000";
layers = (
{
guides = (
{
pos = (52,-74);
}
);
layerId = "F6D8640C-383C-48A8-B63C-DDE9F10207CE";
shapes = (
{
closed = 1;
nodes = (
(435,163,o),
(307,163,o),
(178,163,c),
(118,149,o),
(56,140,o),
(16,136,c),
(16,0,l),
(563,0,l),
(563,163,l)
);
},
{
closed = 1;
nodes = (
(440,152,o),
(561,208,o),
(561,290,cs),
(561,387,o),
(431,432,o),
(297,432,cs),
(139,432,o),
(-10,369,o),
(5,233,c),
(101,222,o),
(198,211,o),
(294,201,c),
(243,209,o),
(223,223,o),
(223,243,cs),
(223,268,o),
(251,278,o),
(283,278,cs),
(313,278,o),
(341,267,o),
(341,244,cs),
(341,201,o),
(233,176,o),
(153,157,c)
);
}
);
width = 569;
},
{
guides = (
{
angle = 180;
pos = (271,-43);
},
{
pos = (228,470);
}
);
layerId = "96858A69-C8A6-410B-90BB-94EA0DA45935";
shapes = (
{
closed = 1;
nodes = (
(300,120,o),
(211,141,o),
(183,215,c),
(178,187,o),
(97,181,o),
(71,181,c),
(71,115,l),
(494,115,l),
(494,120,l)
);
},
{
closed = 1;
nodes = (
(481,325,o),
(522,349,o),
(522,387,cs),
(522,446,o),
(405,479,o),
(297,479,cs),
(203,479,o),
(103,450,o),
(71,388,c),
(106,380,o),
(143,373,o),
(174,365,c),
(174,370,o),
(174,368,o),
(174,374,c),
(174,441,o),
(244,474,o),
(298,474,cs),
(374,474,o),
(430,439,o),
(430,370,cs),
(430,343,o),
(426,323,o),
(416,315,c)
);
}
);
width = 579;
}
);
},
{
color = 6;
glyphname = three.dnom;
lastChange = "2021-09-06 15:12:36 +0000";
layers = (
{
layerId = "F6D8640C-383C-48A8-B63C-DDE9F10207CE";
shapes = (
{
closed = 1;
nodes = (
(563,241,o),
(602,275,o),
(602,315,cs),
(602,389,o),
(463,432,o),
(316,432,cs),
(164,432,o),
(2,380,o),
(4,256,c),
(242,219,l),
(235,264,o),
(277,281,o),
(315,281,cs),
(347,281,o),
(376,269,o),
(376,252,cs),
(376,236,o),
(355,231,o),
(304,231,c),
(304,214,l),
(356,214,o),
(380,212,o),
(380,194,cs),
(380,174,o),
(349,163,o),
(315,163,cs),
(277,163,o),
(235,179,o),
(242,219,c),
(9,193,l),
(-18,51,o),
(155,-15,o),
(317,-15,cs),
(469,-15,o),
(613,36,o),
(613,133,cs),
(613,184,o),
(578,222,o),
(496,232,cs),
(495,233,o),
(495,233,o),
(496,233,cs)
);
}
);
width = 617;
},
{
layerId = "96858A69-C8A6-410B-90BB-94EA0DA45935";
shapes = (
{
closed = 1;
nodes = (
(511,378,o),
(532,392,o),
(532,404,cs),
(532,448,o),
(416,479,o),
(290,479,cs),
(199,479,o),
(97,457,o),
(64,403,c),
(177,382,l),
(157,440,o),
(221,474,o),
(290,474,cs),
(360,474,o),
(435,440,o),
(435,363,cs),
(435,330,o),
(402,307,o),
(347,307,c),
(350,307,l),
(406,307,o),
(447,266,o),
(447,225,cs),
(447,146,o),
(368,111,o),
(294,111,cs),
(217,111,o),
(146,150,o),
(177,218,c),
(51,203,l),
(82,136,o),
(203,106,o),
(300,106,cs),
(444,106,o),
(563,140,o),
(563,199,cs),
(563,223,o),
(545,241,o),
(481,267,cs),
(384,306,o),
(419,332,o),
(481,363,cs)
);
}
);
width = 611;
}
);
},
{
color = 6;
glyphname = four.dnom;
lastChange = "2021-09-06 15:12:36 +0000";
layers = (
{
layerId = "96858A69-C8A6-410B-90BB-94EA0DA45935";
shapes = (
{
closed = 1;
nodes = (
(508,175,ls),
(482,175,o),
(464,198,o),
(464,226,cs),
(464,266,o),
(464,295,o),
(466,332,c),
(362,274,l),
(369,267,o),
(375,246,o),
(375,232,cs),
(375,188,o),
(339,168,o),
(287,168,cs),
(219,168,ls),
(135,168,o),
(129,247,o),
(170,284,cs),
(240,347,o),
(300,407,o),
(369,470,c),
(283,470,l),
(239,395,o),
(195,244,o),
(47,244,c),
(47,168,l),
(294,168,ls),
(343,168,o),
(361,135,o),
(361,117,cs),
(361,115,l),
(468,115,l),
(468,116,ls),
(468,152,o),
(479,175,o),
(504,175,cs),
(511,175,l),
(514,175,l)
);
}
);
width = 562;
},
{
guides = (
{
pos = (95,-74);
}
);
layerId = "F6D8640C-383C-48A8-B63C-DDE9F10207CE";
name = Regular;
shapes = (
{
closed = 1;
nodes = (
(553,165,ls),
(552,165,o),
(552,165,o),
(552,166,cs),
(552,231,o),
(552,292,o),
(552,356,c),
(302,234,l),
(302,213,o),
(304,187,o),
(304,166,cs),
(304,165,o),
(304,165,o),
(302,165,cs),
(221,165,ls),
(220,165,o),
(219,165,o),
(220,166,c),
(317,250,o),
(413,336,o),
(509,420,c),
(230,420,l),
(156,348,o),
(82,277,o),
(8,205,c),
(8,45,l),
(304,45,ls),
(305,45,o),
(305,45,o),
(305,45,cs),
(305,0,l),
(552,0,l),
(552,45,ls),
(552,45,o),
(552,45,o),
(553,45,cs),
(600,45,l),
(600,165,l)
);
}
);
width = 603;
}
);
},
{
color = 6;
glyphname = one.numr;
lastChange = "2021-09-04 07:33:57 +0000";
layers = (
{
guides = (
{
pos = (280,363);
}
);
layerId = "F6D8640C-383C-48A8-B63C-DDE9F10207CE";
shapes = (
{
closed = 1;
nodes = (
(375,330,l),
(375,436,o),
(375,542,o),
(375,648,cs),
(375,682,o),
(375,716,o),
(375,750,c),
(76,750,l),
(-1,552,l),
(24,552,o),
(53,552,o),
(79,552,cs),
(79,552,o),
(79,552,o),
(79,551,c),
(79,477,o),
(79,404,o),
(79,330,c)
);
}
);
width = 390;
},
{
guides = (
{
pos = (283,394);
}
);
layerId = "96858A69-C8A6-410B-90BB-94EA0DA45935";
shapes = (
{
closed = 1;
nodes = (
(241,290,l),
(224,376,o),
(203,488,o),
(203,569,cs),
(203,600,o),
(210,626,o),
(218,645,c),
(144,645,l),
(100,560,l),
(102,560,o),
(98,560,o),
(101,560,cs),
(166,560,o),
(200,547,o),
(200,506,cs),
(200,436,o),
(151,316,o),
(110,290,c)
);
}
);
width = 345;
}
);
metricLeft = one.dnom;
metricRight = one.dnom;
},
